<svg width="47" height="22" viewBox="0 0 47 22" fill="none" xmlns="http://www.w3.org/2000/svg">
<mask id="path-1-outside-1_6_2" maskUnits="userSpaceOnUse" x="-1" y="-1" width="49" height="24" fill="black">
<rect fill="white" x="-1" y="-1" width="49" height="24"/>
<path d="M10.296 21.988C10.2027 21.988 10.156 21.8947 10.156 21.708C10.156 21.092 10.6787 19.524 11.724 17.004C12.0413 16.276 12.3587 15.548 12.676 14.82C12.9933 14.092 13.3013 13.364 13.6 12.636L14.888 8.856C15.0933 8.22133 15.252 7.68 15.364 7.232C15.4947 6.76533 15.56 6.38267 15.56 6.084C15.56 4.77733 15.1867 3.79733 14.44 3.144C13.6933 2.472 12.704 2.136 11.472 2.136C10.3147 2.136 9.16667 2.39733 8.028 2.92C6.908 3.424 5.88133 4.11467 4.948 4.992C4.03333 5.86933 3.296 6.84933 2.736 7.932C1.93333 9.46267 1.532 10.8627 1.532 12.132C1.532 13.0093 1.74667 13.8027 2.176 14.512C2.60533 15.2213 3.16533 15.7067 3.856 15.968C4.34133 16.136 4.81733 16.22 5.284 16.22C5.93733 16.22 6.544 16.08 7.104 15.8C7.664 15.5013 8.112 15.0907 8.448 14.568C8.80267 14.0453 8.98 13.4573 8.98 12.804C8.98 12.7293 8.98 12.6547 8.98 12.58C8.98 12.4867 8.97067 12.4027 8.952 12.328C8.87733 12.104 8.93333 11.992 9.12 11.992C9.32533 11.992 9.43733 12.1413 9.456 12.44C9.47467 12.5147 9.484 12.5893 9.484 12.664C9.50267 12.7387 9.512 12.8227 9.512 12.916C9.512 13.588 9.288 14.2133 8.84 14.792C8.392 15.3707 7.81333 15.8467 7.104 16.22C6.41333 16.5747 5.69467 16.752 4.948 16.752C4.18267 16.752 3.44533 16.5653 2.736 16.192C1.224 15.3707 0.468 13.9427 0.468 11.908C0.468 10.452 0.86 9.04267 1.644 7.68C2.35333 6.448 3.27733 5.37467 4.416 4.46C5.55467 3.54533 6.80533 2.836 8.168 2.332C9.53067 1.80933 10.884 1.548 12.228 1.548C13.1613 1.548 14.0013 1.69733 14.748 1.996C15.4947 2.276 16.0827 2.71467 16.512 3.312C16.96 3.89067 17.184 4.63733 17.184 5.552C17.184 7.288 16.4 9.892 14.832 13.364C13.04 17.3027 12.144 19.5147 12.144 20C12.144 20.1307 12.1907 20.1773 12.284 20.14C12.7693 19.8227 14.9627 17.3213 18.864 12.636C20.8613 10.2467 22.5507 8.31467 23.932 6.84C25.332 5.34667 26.4333 4.31067 27.236 3.732C27.9453 3.19067 28.5613 2.752 29.084 2.416C29.6067 2.06133 30.0267 1.79067 30.344 1.604C31.5013 0.969332 32.5653 0.651999 33.536 0.651999C33.9653 0.651999 34.292 0.698665 34.516 0.791999C34.7587 0.866665 34.88 1.09067 34.88 1.464C34.88 1.70667 34.796 1.828 34.628 1.828C34.572 1.828 34.4413 1.79067 34.236 1.716C34.0307 1.62267 33.8253 1.576 33.62 1.576C32.6307 1.576 31.5947 1.86533 30.512 2.444C28.3467 3.60133 25.864 5.67333 23.064 8.66C22.2613 9.51867 21.3187 10.5827 20.236 11.852C19.172 13.1213 17.968 14.6053 16.624 16.304C14.496 18.992 13.2173 20.4573 12.788 20.7C11.9853 21.1667 11.3787 21.4933 10.968 21.68C10.576 21.8853 10.352 21.988 10.296 21.988ZM32.288 21.624C29.1707 21.7733 26.9307 20.9987 25.568 19.3C23.9254 20.5693 22.7214 21.204 21.956 21.204C21.5454 21.204 21.2374 20.9987 21.032 20.588C20.8454 20.196 20.752 19.7667 20.752 19.3C20.752 18.404 21.0974 17.116 21.788 15.436C22.6094 13.532 23.3654 12.58 24.056 12.58C24.4107 12.58 24.6814 13.14 24.868 14.26C25.1854 15.94 25.4747 17.0973 25.736 17.732C26.352 17.0787 27.1174 16.192 28.032 15.072C28.9654 13.952 30.0387 12.5987 31.252 11.012C34.276 7.036 36.2827 4.86133 37.272 4.488C37.608 4.35733 37.944 4.292 38.28 4.292C38.6534 4.292 38.952 4.376 39.176 4.544C39.4187 4.69333 39.54 4.87067 39.54 5.076C39.54 5.39333 39.2694 5.58 38.728 5.636C38.336 5.84133 37.8507 6.196 37.272 6.7C36.712 7.204 36.1147 7.78267 35.48 8.436C34.864 9.07067 34.2854 9.70533 33.744 10.34C33.2027 10.956 32.764 11.488 32.428 11.936C30.4307 14.7173 28.4334 16.9387 26.436 18.6L26.268 18.74C26.8654 19.6173 27.584 20.224 28.424 20.56C29.264 20.896 30.1974 21.064 31.224 21.064C32.9227 21.064 34.5374 20.8027 36.068 20.28C37.6174 19.776 39.008 19.02 40.24 18.012C41.4907 16.9853 42.5174 15.7347 43.32 14.26C44.1974 12.6547 44.636 11.124 44.636 9.668C44.636 8.67867 44.4214 7.74533 43.992 6.868C43.5627 5.972 42.984 5.20667 42.256 4.572C41.5467 3.93733 40.7534 3.52667 39.876 3.34C38.8494 3.116 37.776 3.004 36.656 3.004C33.7814 3.004 31.1307 3.66667 28.704 4.992C26.1467 6.392 24.868 7.96 24.868 9.696C24.868 10.1627 25.008 10.564 25.288 10.9C25.512 11.1613 25.6707 11.3107 25.764 11.348H25.596C25.0734 11.2547 24.6254 10.9933 24.252 10.564C23.8787 10.1347 23.692 9.65867 23.692 9.136C23.692 8.16533 23.9907 7.27867 24.588 6.476C25.204 5.65467 26.0907 4.908 27.248 4.236C29.5627 2.91067 32.2974 2.248 35.452 2.248C36.1614 2.248 36.8707 2.28533 37.58 2.36C38.2894 2.43467 38.9894 2.54667 39.68 2.696C40.8934 2.95733 41.9947 3.452 42.984 4.18C43.9734 4.908 44.7667 5.79467 45.364 6.84C45.9614 7.88533 46.26 9.01467 46.26 10.228C46.26 11.628 45.8494 13.0747 45.028 14.568C44.2067 16.08 43.1427 17.3493 41.836 18.376C40.548 19.384 39.092 20.1493 37.468 20.672C35.844 21.2133 34.1174 21.5307 32.288 21.624ZM22.096 20.7C22.8987 20.3453 23.8694 19.608 25.008 18.488C24.4667 17.592 24.112 16.836 23.944 16.22C23.832 15.8093 23.748 15.184 23.692 14.344C22.404 16.192 21.76 17.8067 21.76 19.188C21.76 19.7667 21.872 20.2707 22.096 20.7Z"/>
</mask>
<path d="M10.296 21.988C10.2027 21.988 10.156 21.8947 10.156 21.708C10.156 21.092 10.6787 19.524 11.724 17.004C12.0413 16.276 12.3587 15.548 12.676 14.82C12.9933 14.092 13.3013 13.364 13.6 12.636L14.888 8.856C15.0933 8.22133 15.252 7.68 15.364 7.232C15.4947 6.76533 15.56 6.38267 15.56 6.084C15.56 4.77733 15.1867 3.79733 14.44 3.144C13.6933 2.472 12.704 2.136 11.472 2.136C10.3147 2.136 9.16667 2.39733 8.028 2.92C6.908 3.424 5.88133 4.11467 4.948 4.992C4.03333 5.86933 3.296 6.84933 2.736 7.932C1.93333 9.46267 1.532 10.8627 1.532 12.132C1.532 13.0093 1.74667 13.8027 2.176 14.512C2.60533 15.2213 3.16533 15.7067 3.856 15.968C4.34133 16.136 4.81733 16.22 5.284 16.22C5.93733 16.22 6.544 16.08 7.104 15.8C7.664 15.5013 8.112 15.0907 8.448 14.568C8.80267 14.0453 8.98 13.4573 8.98 12.804C8.98 12.7293 8.98 12.6547 8.98 12.58C8.98 12.4867 8.97067 12.4027 8.952 12.328C8.87733 12.104 8.93333 11.992 9.12 11.992C9.32533 11.992 9.43733 12.1413 9.456 12.44C9.47467 12.5147 9.484 12.5893 9.484 12.664C9.50267 12.7387 9.512 12.8227 9.512 12.916C9.512 13.588 9.288 14.2133 8.84 14.792C8.392 15.3707 7.81333 15.8467 7.104 16.22C6.41333 16.5747 5.69467 16.752 4.948 16.752C4.18267 16.752 3.44533 16.5653 2.736 16.192C1.224 15.3707 0.468 13.9427 0.468 11.908C0.468 10.452 0.86 9.04267 1.644 7.68C2.35333 6.448 3.27733 5.37467 4.416 4.46C5.55467 3.54533 6.80533 2.836 8.168 2.332C9.53067 1.80933 10.884 1.548 12.228 1.548C13.1613 1.548 14.0013 1.69733 14.748 1.996C15.4947 2.276 16.0827 2.71467 16.512 3.312C16.96 3.89067 17.184 4.63733 17.184 5.552C17.184 7.288 16.4 9.892 14.832 13.364C13.04 17.3027 12.144 19.5147 12.144 20C12.144 20.1307 12.1907 20.1773 12.284 20.14C12.7693 19.8227 14.9627 17.3213 18.864 12.636C20.8613 10.2467 22.5507 8.31467 23.932 6.84C25.332 5.34667 26.4333 4.31067 27.236 3.732C27.9453 3.19067 28.5613 2.752 29.084 2.416C29.6067 2.06133 30.0267 1.79067 30.344 1.604C31.5013 0.969332 32.5653 0.651999 33.536 0.651999C33.9653 0.651999 34.292 0.698665 34.516 0.791999C34.7587 0.866665 34.88 1.09067 34.88 1.464C34.88 1.70667 34.796 1.828 34.628 1.828C34.572 1.828 34.4413 1.79067 34.236 1.716C34.0307 1.62267 33.8253 1.576 33.62 1.576C32.6307 1.576 31.5947 1.86533 30.512 2.444C28.3467 3.60133 25.864 5.67333 23.064 8.66C22.2613 9.51867 21.3187 10.5827 20.236 11.852C19.172 13.1213 17.968 14.6053 16.624 16.304C14.496 18.992 13.2173 20.4573 12.788 20.7C11.9853 21.1667 11.3787 21.4933 10.968 21.68C10.576 21.8853 10.352 21.988 10.296 21.988ZM32.288 21.624C29.1707 21.7733 26.9307 20.9987 25.568 19.3C23.9254 20.5693 22.7214 21.204 21.956 21.204C21.5454 21.204 21.2374 20.9987 21.032 20.588C20.8454 20.196 20.752 19.7667 20.752 19.3C20.752 18.404 21.0974 17.116 21.788 15.436C22.6094 13.532 23.3654 12.58 24.056 12.58C24.4107 12.58 24.6814 13.14 24.868 14.26C25.1854 15.94 25.4747 17.0973 25.736 17.732C26.352 17.0787 27.1174 16.192 28.032 15.072C28.9654 13.952 30.0387 12.5987 31.252 11.012C34.276 7.036 36.2827 4.86133 37.272 4.488C37.608 4.35733 37.944 4.292 38.28 4.292C38.6534 4.292 38.952 4.376 39.176 4.544C39.4187 4.69333 39.54 4.87067 39.54 5.076C39.54 5.39333 39.2694 5.58 38.728 5.636C38.336 5.84133 37.8507 6.196 37.272 6.7C36.712 7.204 36.1147 7.78267 35.48 8.436C34.864 9.07067 34.2854 9.70533 33.744 10.34C33.2027 10.956 32.764 11.488 32.428 11.936C30.4307 14.7173 28.4334 16.9387 26.436 18.6L26.268 18.74C26.8654 19.6173 27.584 20.224 28.424 20.56C29.264 20.896 30.1974 21.064 31.224 21.064C32.9227 21.064 34.5374 20.8027 36.068 20.28C37.6174 19.776 39.008 19.02 40.24 18.012C41.4907 16.9853 42.5174 15.7347 43.32 14.26C44.1974 12.6547 44.636 11.124 44.636 9.668C44.636 8.67867 44.4214 7.74533 43.992 6.868C43.5627 5.972 42.984 5.20667 42.256 4.572C41.5467 3.93733 40.7534 3.52667 39.876 3.34C38.8494 3.116 37.776 3.004 36.656 3.004C33.7814 3.004 31.1307 3.66667 28.704 4.992C26.1467 6.392 24.868 7.96 24.868 9.696C24.868 10.1627 25.008 10.564 25.288 10.9C25.512 11.1613 25.6707 11.3107 25.764 11.348H25.596C25.0734 11.2547 24.6254 10.9933 24.252 10.564C23.8787 10.1347 23.692 9.65867 23.692 9.136C23.692 8.16533 23.9907 7.27867 24.588 6.476C25.204 5.65467 26.0907 4.908 27.248 4.236C29.5627 2.91067 32.2974 2.248 35.452 2.248C36.1614 2.248 36.8707 2.28533 37.58 2.36C38.2894 2.43467 38.9894 2.54667 39.68 2.696C40.8934 2.95733 41.9947 3.452 42.984 4.18C43.9734 4.908 44.7667 5.79467 45.364 6.84C45.9614 7.88533 46.26 9.01467 46.26 10.228C46.26 11.628 45.8494 13.0747 45.028 14.568C44.2067 16.08 43.1427 17.3493 41.836 18.376C40.548 19.384 39.092 20.1493 37.468 20.672C35.844 21.2133 34.1174 21.5307 32.288 21.624ZM22.096 20.7C22.8987 20.3453 23.8694 19.608 25.008 18.488C24.4667 17.592 24.112 16.836 23.944 16.22C23.832 15.8093 23.748 15.184 23.692 14.344C22.404 16.192 21.76 17.8067 21.76 19.188C21.76 19.7667 21.872 20.2707 22.096 20.7Z" fill="#00BC91"/>
<path d="M11.724 17.004L10.8073 16.6044L10.8037 16.6126L10.8003 16.6208L11.724 17.004ZM12.676 14.82L13.5927 15.2196L13.5927 15.2196L12.676 14.82ZM13.6 12.636L14.5252 13.0156L14.5367 12.9874L14.5466 12.9585L13.6 12.636ZM14.888 8.856L15.8346 9.17853L15.8371 9.17119L15.8394 9.16382L14.888 8.856ZM15.364 7.232L14.401 6.96237L14.3973 6.97587L14.3939 6.98946L15.364 7.232ZM14.44 3.144L13.771 3.88737L13.7815 3.89658L14.44 3.144ZM8.028 2.92L8.43838 3.83195L8.44517 3.82883L8.028 2.92ZM4.948 4.992L4.26306 4.26333L4.25577 4.27032L4.948 4.992ZM2.736 7.932L3.62163 8.39642L3.62422 8.39142L2.736 7.932ZM3.856 15.968L3.50211 16.9033L3.51543 16.9083L3.52889 16.913L3.856 15.968ZM7.104 15.8L7.55121 16.6944L7.56298 16.6885L7.57459 16.6824L7.104 15.8ZM8.448 14.568L7.62052 14.0065L7.61354 14.0168L7.60682 14.0272L8.448 14.568ZM8.952 12.328L9.92214 12.0855L9.91283 12.0482L9.90068 12.0118L8.952 12.328ZM9.456 12.44L8.45795 12.5024L8.46366 12.5937L8.48586 12.6825L9.456 12.44ZM9.484 12.664H8.484V12.7871L8.51386 12.9065L9.484 12.664ZM8.84 14.792L8.04928 14.1798L8.04928 14.1798L8.84 14.792ZM7.104 16.22L7.56083 17.1096L7.56975 17.1049L7.104 16.22ZM2.736 16.192L2.25863 17.0708L2.27025 17.0769L2.736 16.192ZM1.644 7.68L0.777378 7.18103L0.777222 7.18131L1.644 7.68ZM4.416 4.46L5.04225 5.23962L5.04225 5.23962L4.416 4.46ZM8.168 2.332L8.51492 3.26997L8.52612 3.26567L8.168 2.332ZM14.748 1.996L14.3766 2.92448L14.3867 2.92851L14.3969 2.93233L14.748 1.996ZM16.512 3.312L15.7 3.89564L15.7104 3.91009L15.7213 3.92417L16.512 3.312ZM14.832 13.364L15.7422 13.7781L15.7434 13.7756L14.832 13.364ZM12.284 20.14L12.6554 21.0685L12.7479 21.0315L12.8313 20.977L12.284 20.14ZM18.864 12.636L18.0968 11.9946L18.0955 11.9961L18.864 12.636ZM23.932 6.84L23.2025 6.15606L23.2022 6.15637L23.932 6.84ZM27.236 3.732L27.8208 4.54318L27.8318 4.53521L27.8427 4.52695L27.236 3.732ZM29.084 2.416L29.6248 3.25718L29.6352 3.25046L29.6455 3.24348L29.084 2.416ZM30.344 1.604L29.8632 0.727188L29.85 0.734429L29.837 0.742064L30.344 1.604ZM34.516 0.791999L34.1314 1.71508L34.1759 1.73361L34.2219 1.74778L34.516 0.791999ZM34.236 1.716L33.8222 2.62637L33.8577 2.64248L33.8943 2.65579L34.236 1.716ZM30.512 2.444L30.0406 1.56207L30.0406 1.56207L30.512 2.444ZM23.064 8.66L22.3345 7.97606L22.3335 7.97712L23.064 8.66ZM20.236 11.852L19.4751 11.203L19.4696 11.2096L20.236 11.852ZM16.624 16.304L17.408 16.9247L17.4082 16.9245L16.624 16.304ZM12.788 20.7L12.2959 19.8294L12.2854 19.8355L12.788 20.7ZM10.968 21.68L10.5542 20.7696L10.5288 20.7812L10.504 20.7942L10.968 21.68ZM10.296 20.988C10.4477 20.988 10.625 21.0288 10.7895 21.1384C10.9477 21.2439 11.0378 21.3755 11.0854 21.4708C11.1666 21.6331 11.156 21.7503 11.156 21.708H9.156C9.156 21.8524 9.16876 22.1096 9.29657 22.3652C9.36755 22.5072 9.48681 22.6737 9.68005 22.8026C9.87955 22.9355 10.0977 22.988 10.296 22.988V20.988ZM11.156 21.708C11.156 21.5846 11.2305 21.1847 11.4967 20.3862C11.7472 19.6346 12.1291 18.6373 12.6477 17.3872L10.8003 16.6208C10.2736 17.8907 9.87143 18.9374 9.59932 19.7538C9.34279 20.5233 9.156 21.2154 9.156 21.708H11.156ZM12.6407 17.4036C12.958 16.6756 13.2754 15.9476 13.5927 15.2196L11.7593 14.4204C11.442 15.1484 11.1246 15.8764 10.8073 16.6044L12.6407 17.4036ZM13.5927 15.2196C13.9129 14.485 14.2237 13.7503 14.5252 13.0156L12.6748 12.2564C12.3789 12.9777 12.0738 13.699 11.7593 14.4204L13.5927 15.2196ZM14.5466 12.9585L15.8346 9.17853L13.9414 8.53347L12.6534 12.3135L14.5466 12.9585ZM15.8394 9.16382C16.049 8.51616 16.2148 7.95177 16.3341 7.47453L14.3939 6.98946C14.2892 7.40823 14.1377 7.9265 13.9366 8.54818L15.8394 9.16382ZM16.327 7.50163C16.469 6.99445 16.56 6.51247 16.56 6.084H14.56C14.56 6.25286 14.5204 6.53622 14.401 6.96237L16.327 7.50163ZM16.56 6.084C16.56 4.5859 16.1258 3.2903 15.0985 2.39142L13.7815 3.89658C14.2475 4.30436 14.56 4.96877 14.56 6.084H16.56ZM15.109 2.4007C14.1394 1.52808 12.8925 1.136 11.472 1.136V3.136C12.5155 3.136 13.2473 3.41592 13.771 3.88729L15.109 2.4007ZM11.472 1.136C10.1591 1.136 8.86941 1.43346 7.61083 2.01117L8.44517 3.82883C9.46393 3.3612 10.4703 3.136 11.472 3.136V1.136ZM7.61764 2.00808C6.39231 2.55948 5.27365 3.31345 4.26309 4.26337L5.63291 5.72063C6.48902 4.91589 7.4237 4.28852 8.43837 3.83192L7.61764 2.00808ZM4.25577 4.27032C3.265 5.22065 2.46025 6.28847 1.84778 7.47258L3.62422 8.39142C4.13175 7.4102 4.80167 6.51801 5.64023 5.71368L4.25577 4.27032ZM1.85038 7.46759C0.998455 9.09219 0.532 10.6531 0.532 12.132H2.532C2.532 11.0722 2.86821 9.83314 3.62162 8.39641L1.85038 7.46759ZM0.532 12.132C0.532 13.1808 0.791071 14.1551 1.3205 15.0298L3.0315 13.9942C2.70226 13.4502 2.532 12.8378 2.532 12.132H0.532ZM1.3205 15.0298C1.85064 15.9057 2.57668 16.5531 3.50211 16.9033L4.20989 15.0327C3.75399 14.8602 3.36003 14.537 3.0315 13.9942L1.3205 15.0298ZM3.52889 16.913C4.10891 17.1138 4.69537 17.22 5.284 17.22V15.22C4.9393 15.22 4.57376 15.1582 4.18311 15.023L3.52889 16.913ZM5.284 17.22C6.08562 17.22 6.84627 17.0469 7.55121 16.6944L6.65679 14.9056C6.24173 15.1131 5.78905 15.22 5.284 15.22V17.22ZM7.57459 16.6824C8.28188 16.3051 8.85879 15.7782 9.28918 15.1088L7.60682 14.0272C7.36521 14.4031 7.04612 14.6975 6.63341 14.9176L7.57459 16.6824ZM9.27548 15.1295C9.74659 14.4352 9.98 13.6503 9.98 12.804H7.98C7.98 13.2644 7.85874 13.6554 7.62052 14.0065L9.27548 15.1295ZM9.98 12.804C9.98 12.8039 9.98 12.8037 9.98 12.8036C9.98 12.8034 9.98 12.8033 9.98 12.8031C9.98 12.803 9.98 12.8028 9.98 12.8027C9.98 12.8025 9.98 12.8024 9.98 12.8023C9.98 12.8021 9.98 12.802 9.98 12.8018C9.98 12.8017 9.98 12.8015 9.98 12.8014C9.98 12.8012 9.98 12.8011 9.98 12.8009C9.98 12.8008 9.98 12.8006 9.98 12.8005C9.98 12.8004 9.98 12.8002 9.98 12.8001C9.98 12.7999 9.98 12.7998 9.98 12.7996C9.98 12.7995 9.98 12.7993 9.98 12.7992C9.98 12.799 9.98 12.7989 9.98 12.7988C9.98 12.7986 9.98 12.7985 9.98 12.7983C9.98 12.7982 9.98 12.798 9.98 12.7979C9.98 12.7977 9.98 12.7976 9.98 12.7974C9.98 12.7973 9.98 12.7971 9.98 12.797C9.98 12.7969 9.98 12.7967 9.98 12.7966C9.98 12.7964 9.98 12.7963 9.98 12.7961C9.98 12.796 9.98 12.7958 9.98 12.7957C9.98 12.7955 9.98 12.7954 9.98 12.7953C9.98 12.7951 9.98 12.795 9.98 12.7948C9.98 12.7947 9.98 12.7945 9.98 12.7944C9.98 12.7942 9.98 12.7941 9.98 12.7939C9.98 12.7938 9.98 12.7936 9.98 12.7935C9.98 12.7934 9.98 12.7932 9.98 12.7931C9.98 12.7929 9.98 12.7928 9.98 12.7926C9.98 12.7925 9.98 12.7923 9.98 12.7922C9.98 12.792 9.98 12.7919 9.98 12.7917C9.98 12.7916 9.98 12.7915 9.98 12.7913C9.98 12.7912 9.98 12.791 9.98 12.7909C9.98 12.7907 9.98 12.7906 9.98 12.7904C9.98 12.7903 9.98 12.7901 9.98 12.79C9.98 12.7899 9.98 12.7897 9.98 12.7896C9.98 12.7894 9.98 12.7893 9.98 12.7891C9.98 12.789 9.98 12.7888 9.98 12.7887C9.98 12.7885 9.98 12.7884 9.98 12.7882C9.98 12.7881 9.98 12.788 9.98 12.7878C9.98 12.7877 9.98 12.7875 9.98 12.7874C9.98 12.7872 9.98 12.7871 9.98 12.7869C9.98 12.7868 9.98 12.7866 9.98 12.7865C9.98 12.7864 9.98 12.7862 9.98 12.7861C9.98 12.7859 9.98 12.7858 9.98 12.7856C9.98 12.7855 9.98 12.7853 9.98 12.7852C9.98 12.785 9.98 12.7849 9.98 12.7847C9.98 12.7846 9.98 12.7845 9.98 12.7843C9.98 12.7842 9.98 12.784 9.98 12.7839C9.98 12.7837 9.98 12.7836 9.98 12.7834C9.98 12.7833 9.98 12.7831 9.98 12.783C9.98 12.7829 9.98 12.7827 9.98 12.7826C9.98 12.7824 9.98 12.7823 9.98 12.7821C9.98 12.782 9.98 12.7818 9.98 12.7817C9.98 12.7815 9.98 12.7814 9.98 12.7812C9.98 12.7811 9.98 12.781 9.98 12.7808C9.98 12.7807 9.98 12.7805 9.98 12.7804C9.98 12.7802 9.98 12.7801 9.98 12.7799C9.98 12.7798 9.98 12.7796 9.98 12.7795C9.98 12.7794 9.98 12.7792 9.98 12.7791C9.98 12.7789 9.98 12.7788 9.98 12.7786C9.98 12.7785 9.98 12.7783 9.98 12.7782C9.98 12.778 9.98 12.7779 9.98 12.7777C9.98 12.7776 9.98 12.7775 9.98 12.7773C9.98 12.7772 9.98 12.777 9.98 12.7769C9.98 12.7767 9.98 12.7766 9.98 12.7764C9.98 12.7763 9.98 12.7761 9.98 12.776C9.98 12.7759 9.98 12.7757 9.98 12.7756C9.98 12.7754 9.98 12.7753 9.98 12.7751C9.98 12.775 9.98 12.7748 9.98 12.7747C9.98 12.7745 9.98 12.7744 9.98 12.7742C9.98 12.7741 9.98 12.774 9.98 12.7738C9.98 12.7737 9.98 12.7735 9.98 12.7734C9.98 12.7732 9.98 12.7731 9.98 12.7729C9.98 12.7728 9.98 12.7726 9.98 12.7725C9.98 12.7724 9.98 12.7722 9.98 12.7721C9.98 12.7719 9.98 12.7718 9.98 12.7716C9.98 12.7715 9.98 12.7713 9.98 12.7712C9.98 12.771 9.98 12.7709 9.98 12.7707C9.98 12.7706 9.98 12.7705 9.98 12.7703C9.98 12.7702 9.98 12.77 9.98 12.7699C9.98 12.7697 9.98 12.7696 9.98 12.7694C9.98 12.7693 9.98 12.7691 9.98 12.769C9.98 12.7689 9.98 12.7687 9.98 12.7686C9.98 12.7684 9.98 12.7683 9.98 12.7681C9.98 12.768 9.98 12.7678 9.98 12.7677C9.98 12.7675 9.98 12.7674 9.98 12.7672C9.98 12.7671 9.98 12.767 9.98 12.7668C9.98 12.7667 9.98 12.7665 9.98 12.7664C9.98 12.7662 9.98 12.7661 9.98 12.7659C9.98 12.7658 9.98 12.7656 9.98 12.7655C9.98 12.7654 9.98 12.7652 9.98 12.7651C9.98 12.7649 9.98 12.7648 9.98 12.7646C9.98 12.7645 9.98 12.7643 9.98 12.7642C9.98 12.764 9.98 12.7639 9.98 12.7637C9.98 12.7636 9.98 12.7635 9.98 12.7633C9.98 12.7632 9.98 12.763 9.98 12.7629C9.98 12.7627 9.98 12.7626 9.98 12.7624C9.98 12.7623 9.98 12.7621 9.98 12.762C9.98 12.7619 9.98 12.7617 9.98 12.7616C9.98 12.7614 9.98 12.7613 9.98 12.7611C9.98 12.761 9.98 12.7608 9.98 12.7607C9.98 12.7605 9.98 12.7604 9.98 12.7602C9.98 12.7601 9.98 12.76 9.98 12.7598C9.98 12.7597 9.98 12.7595 9.98 12.7594C9.98 12.7592 9.98 12.7591 9.98 12.7589C9.98 12.7588 9.98 12.7586 9.98 12.7585C9.98 12.7584 9.98 12.7582 9.98 12.7581C9.98 12.7579 9.98 12.7578 9.98 12.7576C9.98 12.7575 9.98 12.7573 9.98 12.7572C9.98 12.757 9.98 12.7569 9.98 12.7567C9.98 12.7566 9.98 12.7565 9.98 12.7563C9.98 12.7562 9.98 12.756 9.98 12.7559C9.98 12.7557 9.98 12.7556 9.98 12.7554C9.98 12.7553 9.98 12.7551 9.98 12.755C9.98 12.7549 9.98 12.7547 9.98 12.7546C9.98 12.7544 9.98 12.7543 9.98 12.7541C9.98 12.754 9.98 12.7538 9.98 12.7537C9.98 12.7535 9.98 12.7534 9.98 12.7532C9.98 12.7531 9.98 12.753 9.98 12.7528C9.98 12.7527 9.98 12.7525 9.98 12.7524C9.98 12.7522 9.98 12.7521 9.98 12.7519C9.98 12.7518 9.98 12.7516 9.98 12.7515C9.98 12.7514 9.98 12.7512 9.98 12.7511C9.98 12.7509 9.98 12.7508 9.98 12.7506C9.98 12.7505 9.98 12.7503 9.98 12.7502C9.98 12.75 9.98 12.7499 9.98 12.7497C9.98 12.7496 9.98 12.7495 9.98 12.7493C9.98 12.7492 9.98 12.749 9.98 12.7489C9.98 12.7487 9.98 12.7486 9.98 12.7484C9.98 12.7483 9.98 12.7481 9.98 12.748C9.98 12.7479 9.98 12.7477 9.98 12.7476C9.98 12.7474 9.98 12.7473 9.98 12.7471C9.98 12.747 9.98 12.7468 9.98 12.7467C9.98 12.7465 9.98 12.7464 9.98 12.7462C9.98 12.7461 9.98 12.746 9.98 12.7458C9.98 12.7457 9.98 12.7455 9.98 12.7454C9.98 12.7452 9.98 12.7451 9.98 12.7449C9.98 12.7448 9.98 12.7446 9.98 12.7445C9.98 12.7444 9.98 12.7442 9.98 12.7441C9.98 12.7439 9.98 12.7438 9.98 12.7436C9.98 12.7435 9.98 12.7433 9.98 12.7432C9.98 12.743 9.98 12.7429 9.98 12.7427C9.98 12.7426 9.98 12.7425 9.98 12.7423C9.98 12.7422 9.98 12.742 9.98 12.7419C9.98 12.7417 9.98 12.7416 9.98 12.7414C9.98 12.7413 9.98 12.7411 9.98 12.741C9.98 12.7409 9.98 12.7407 9.98 12.7406C9.98 12.7404 9.98 12.7403 9.98 12.7401C9.98 12.74 9.98 12.7398 9.98 12.7397C9.98 12.7395 9.98 12.7394 9.98 12.7392C9.98 12.7391 9.98 12.739 9.98 12.7388C9.98 12.7387 9.98 12.7385 9.98 12.7384C9.98 12.7382 9.98 12.7381 9.98 12.7379C9.98 12.7378 9.98 12.7376 9.98 12.7375C9.98 12.7374 9.98 12.7372 9.98 12.7371C9.98 12.7369 9.98 12.7368 9.98 12.7366C9.98 12.7365 9.98 12.7363 9.98 12.7362C9.98 12.736 9.98 12.7359 9.98 12.7357C9.98 12.7356 9.98 12.7355 9.98 12.7353C9.98 12.7352 9.98 12.735 9.98 12.7349C9.98 12.7347 9.98 12.7346 9.98 12.7344C9.98 12.7343 9.98 12.7341 9.98 12.734C9.98 12.7339 9.98 12.7337 9.98 12.7336C9.98 12.7334 9.98 12.7333 9.98 12.7331C9.98 12.733 9.98 12.7328 9.98 12.7327C9.98 12.7325 9.98 12.7324 9.98 12.7322C9.98 12.7321 9.98 12.732 9.98 12.7318C9.98 12.7317 9.98 12.7315 9.98 12.7314C9.98 12.7312 9.98 12.7311 9.98 12.7309C9.98 12.7308 9.98 12.7306 9.98 12.7305C9.98 12.7304 9.98 12.7302 9.98 12.7301C9.98 12.7299 9.98 12.7298 9.98 12.7296C9.98 12.7295 9.98 12.7293 9.98 12.7292C9.98 12.729 9.98 12.7289 9.98 12.7287C9.98 12.7286 9.98 12.7285 9.98 12.7283C9.98 12.7282 9.98 12.728 9.98 12.7279C9.98 12.7277 9.98 12.7276 9.98 12.7274C9.98 12.7273 9.98 12.7271 9.98 12.727C9.98 12.7269 9.98 12.7267 9.98 12.7266C9.98 12.7264 9.98 12.7263 9.98 12.7261C9.98 12.726 9.98 12.7258 9.98 12.7257C9.98 12.7255 9.98 12.7254 9.98 12.7252C9.98 12.7251 9.98 12.725 9.98 12.7248C9.98 12.7247 9.98 12.7245 9.98 12.7244C9.98 12.7242 9.98 12.7241 9.98 12.7239C9.98 12.7238 9.98 12.7236 9.98 12.7235C9.98 12.7234 9.98 12.7232 9.98 12.7231C9.98 12.7229 9.98 12.7228 9.98 12.7226C9.98 12.7225 9.98 12.7223 9.98 12.7222C9.98 12.722 9.98 12.7219 9.98 12.7217C9.98 12.7216 9.98 12.7215 9.98 12.7213C9.98 12.7212 9.98 12.721 9.98 12.7209C9.98 12.7207 9.98 12.7206 9.98 12.7204C9.98 12.7203 9.98 12.7201 9.98 12.72C9.98 12.7199 9.98 12.7197 9.98 12.7196C9.98 12.7194 9.98 12.7193 9.98 12.7191C9.98 12.719 9.98 12.7188 9.98 12.7187C9.98 12.7185 9.98 12.7184 9.98 12.7182C9.98 12.7181 9.98 12.718 9.98 12.7178C9.98 12.7177 9.98 12.7175 9.98 12.7174C9.98 12.7172 9.98 12.7171 9.98 12.7169C9.98 12.7168 9.98 12.7166 9.98 12.7165C9.98 12.7164 9.98 12.7162 9.98 12.7161C9.98 12.7159 9.98 12.7158 9.98 12.7156C9.98 12.7155 9.98 12.7153 9.98 12.7152C9.98 12.715 9.98 12.7149 9.98 12.7147C9.98 12.7146 9.98 12.7145 9.98 12.7143C9.98 12.7142 9.98 12.714 9.98 12.7139C9.98 12.7137 9.98 12.7136 9.98 12.7134C9.98 12.7133 9.98 12.7131 9.98 12.713C9.98 12.7129 9.98 12.7127 9.98 12.7126C9.98 12.7124 9.98 12.7123 9.98 12.7121C9.98 12.712 9.98 12.7118 9.98 12.7117C9.98 12.7115 9.98 12.7114 9.98 12.7112C9.98 12.7111 9.98 12.711 9.98 12.7108C9.98 12.7107 9.98 12.7105 9.98 12.7104C9.98 12.7102 9.98 12.7101 9.98 12.7099C9.98 12.7098 9.98 12.7096 9.98 12.7095C9.98 12.7094 9.98 12.7092 9.98 12.7091C9.98 12.7089 9.98 12.7088 9.98 12.7086C9.98 12.7085 9.98 12.7083 9.98 12.7082C9.98 12.708 9.98 12.7079 9.98 12.7077C9.98 12.7076 9.98 12.7075 9.98 12.7073C9.98 12.7072 9.98 12.707 9.98 12.7069C9.98 12.7067 9.98 12.7066 9.98 12.7064C9.98 12.7063 9.98 12.7061 9.98 12.706C9.98 12.7059 9.98 12.7057 9.98 12.7056C9.98 12.7054 9.98 12.7053 9.98 12.7051C9.98 12.705 9.98 12.7048 9.98 12.7047C9.98 12.7045 9.98 12.7044 9.98 12.7042C9.98 12.7041 9.98 12.704 9.98 12.7038C9.98 12.7037 9.98 12.7035 9.98 12.7034C9.98 12.7032 9.98 12.7031 9.98 12.7029C9.98 12.7028 9.98 12.7026 9.98 12.7025C9.98 12.7024 9.98 12.7022 9.98 12.7021C9.98 12.7019 9.98 12.7018 9.98 12.7016C9.98 12.7015 9.98 12.7013 9.98 12.7012C9.98 12.701 9.98 12.7009 9.98 12.7007C9.98 12.7006 9.98 12.7005 9.98 12.7003C9.98 12.7002 9.98 12.7 9.98 12.6999C9.98 12.6997 9.98 12.6996 9.98 12.6994C9.98 12.6993 9.98 12.6991 9.98 12.699C9.98 12.6989 9.98 12.6987 9.98 12.6986C9.98 12.6984 9.98 12.6983 9.98 12.6981C9.98 12.698 9.98 12.6978 9.98 12.6977C9.98 12.6975 9.98 12.6974 9.98 12.6972C9.98 12.6971 9.98 12.697 9.98 12.6968C9.98 12.6967 9.98 12.6965 9.98 12.6964C9.98 12.6962 9.98 12.6961 9.98 12.6959C9.98 12.6958 9.98 12.6956 9.98 12.6955C9.98 12.6954 9.98 12.6952 9.98 12.6951C9.98 12.6949 9.98 12.6948 9.98 12.6946C9.98 12.6945 9.98 12.6943 9.98 12.6942C9.98 12.694 9.98 12.6939 9.98 12.6937C9.98 12.6936 9.98 12.6935 9.98 12.6933C9.98 12.6932 9.98 12.693 9.98 12.6929C9.98 12.6927 9.98 12.6926 9.98 12.6924C9.98 12.6923 9.98 12.6921 9.98 12.692C9.98 12.6919 9.98 12.6917 9.98 12.6916C9.98 12.6914 9.98 12.6913 9.98 12.6911C9.98 12.691 9.98 12.6908 9.98 12.6907C9.98 12.6905 9.98 12.6904 9.98 12.6902C9.98 12.6901 9.98 12.69 9.98 12.6898C9.98 12.6897 9.98 12.6895 9.98 12.6894C9.98 12.6892 9.98 12.6891 9.98 12.6889C9.98 12.6888 9.98 12.6886 9.98 12.6885C9.98 12.6884 9.98 12.6882 9.98 12.6881C9.98 12.6879 9.98 12.6878 9.98 12.6876C9.98 12.6875 9.98 12.6873 9.98 12.6872C9.98 12.687 9.98 12.6869 9.98 12.6867C9.98 12.6866 9.98 12.6865 9.98 12.6863C9.98 12.6862 9.98 12.686 9.98 12.6859C9.98 12.6857 9.98 12.6856 9.98 12.6854C9.98 12.6853 9.98 12.6851 9.98 12.685C9.98 12.6849 9.98 12.6847 9.98 12.6846C9.98 12.6844 9.98 12.6843 9.98 12.6841C9.98 12.684 9.98 12.6838 9.98 12.6837C9.98 12.6835 9.98 12.6834 9.98 12.6832C9.98 12.6831 9.98 12.683 9.98 12.6828C9.98 12.6827 9.98 12.6825 9.98 12.6824C9.98 12.6822 9.98 12.6821 9.98 12.6819C9.98 12.6818 9.98 12.6816 9.98 12.6815C9.98 12.6814 9.98 12.6812 9.98 12.6811C9.98 12.6809 9.98 12.6808 9.98 12.6806C9.98 12.6805 9.98 12.6803 9.98 12.6802C9.98 12.68 9.98 12.6799 9.98 12.6797C9.98 12.6796 9.98 12.6795 9.98 12.6793C9.98 12.6792 9.98 12.679 9.98 12.6789C9.98 12.6787 9.98 12.6786 9.98 12.6784C9.98 12.6783 9.98 12.6781 9.98 12.678C9.98 12.6779 9.98 12.6777 9.98 12.6776C9.98 12.6774 9.98 12.6773 9.98 12.6771C9.98 12.677 9.98 12.6768 9.98 12.6767C9.98 12.6765 9.98 12.6764 9.98 12.6762C9.98 12.6761 9.98 12.676 9.98 12.6758C9.98 12.6757 9.98 12.6755 9.98 12.6754C9.98 12.6752 9.98 12.6751 9.98 12.6749C9.98 12.6748 9.98 12.6746 9.98 12.6745C9.98 12.6744 9.98 12.6742 9.98 12.6741C9.98 12.6739 9.98 12.6738 9.98 12.6736C9.98 12.6735 9.98 12.6733 9.98 12.6732C9.98 12.673 9.98 12.6729 9.98 12.6727C9.98 12.6726 9.98 12.6725 9.98 12.6723C9.98 12.6722 9.98 12.672 9.98 12.6719C9.98 12.6717 9.98 12.6716 9.98 12.6714C9.98 12.6713 9.98 12.6711 9.98 12.671C9.98 12.6709 9.98 12.6707 9.98 12.6706C9.98 12.6704 9.98 12.6703 9.98 12.6701C9.98 12.67 9.98 12.6698 9.98 12.6697C9.98 12.6695 9.98 12.6694 9.98 12.6692C9.98 12.6691 9.98 12.669 9.98 12.6688C9.98 12.6687 9.98 12.6685 9.98 12.6684C9.98 12.6682 9.98 12.6681 9.98 12.6679C9.98 12.6678 9.98 12.6676 9.98 12.6675C9.98 12.6674 9.98 12.6672 9.98 12.6671C9.98 12.6669 9.98 12.6668 9.98 12.6666C9.98 12.6665 9.98 12.6663 9.98 12.6662C9.98 12.666 9.98 12.6659 9.98 12.6657C9.98 12.6656 9.98 12.6655 9.98 12.6653C9.98 12.6652 9.98 12.665 9.98 12.6649C9.98 12.6647 9.98 12.6646 9.98 12.6644C9.98 12.6643 9.98 12.6641 9.98 12.664C9.98 12.6639 9.98 12.6637 9.98 12.6636C9.98 12.6634 9.98 12.6633 9.98 12.6631C9.98 12.663 9.98 12.6628 9.98 12.6627C9.98 12.6625 9.98 12.6624 9.98 12.6622C9.98 12.6621 9.98 12.662 9.98 12.6618C9.98 12.6617 9.98 12.6615 9.98 12.6614C9.98 12.6612 9.98 12.6611 9.98 12.6609C9.98 12.6608 9.98 12.6606 9.98 12.6605C9.98 12.6604 9.98 12.6602 9.98 12.6601C9.98 12.6599 9.98 12.6598 9.98 12.6596C9.98 12.6595 9.98 12.6593 9.98 12.6592C9.98 12.659 9.98 12.6589 9.98 12.6587C9.98 12.6586 9.98 12.6585 9.98 12.6583C9.98 12.6582 9.98 12.658 9.98 12.6579C9.98 12.6577 9.98 12.6576 9.98 12.6574C9.98 12.6573 9.98 12.6571 9.98 12.657C9.98 12.6569 9.98 12.6567 9.98 12.6566C9.98 12.6564 9.98 12.6563 9.98 12.6561C9.98 12.656 9.98 12.6558 9.98 12.6557C9.98 12.6555 9.98 12.6554 9.98 12.6552C9.98 12.6551 9.98 12.655 9.98 12.6548C9.98 12.6547 9.98 12.6545 9.98 12.6544C9.98 12.6542 9.98 12.6541 9.98 12.6539C9.98 12.6538 9.98 12.6536 9.98 12.6535C9.98 12.6534 9.98 12.6532 9.98 12.6531C9.98 12.6529 9.98 12.6528 9.98 12.6526C9.98 12.6525 9.98 12.6523 9.98 12.6522C9.98 12.652 9.98 12.6519 9.98 12.6517C9.98 12.6516 9.98 12.6515 9.98 12.6513C9.98 12.6512 9.98 12.651 9.98 12.6509C9.98 12.6507 9.98 12.6506 9.98 12.6504C9.98 12.6503 9.98 12.6501 9.98 12.65C9.98 12.6499 9.98 12.6497 9.98 12.6496C9.98 12.6494 9.98 12.6493 9.98 12.6491C9.98 12.649 9.98 12.6488 9.98 12.6487C9.98 12.6485 9.98 12.6484 9.98 12.6482C9.98 12.6481 9.98 12.648 9.98 12.6478C9.98 12.6477 9.98 12.6475 9.98 12.6474C9.98 12.6472 9.98 12.6471 9.98 12.6469C9.98 12.6468 9.98 12.6466 9.98 12.6465C9.98 12.6464 9.98 12.6462 9.98 12.6461C9.98 12.6459 9.98 12.6458 9.98 12.6456C9.98 12.6455 9.98 12.6453 9.98 12.6452C9.98 12.645 9.98 12.6449 9.98 12.6447C9.98 12.6446 9.98 12.6445 9.98 12.6443C9.98 12.6442 9.98 12.644 9.98 12.6439C9.98 12.6437 9.98 12.6436 9.98 12.6434C9.98 12.6433 9.98 12.6431 9.98 12.643C9.98 12.6429 9.98 12.6427 9.98 12.6426C9.98 12.6424 9.98 12.6423 9.98 12.6421C9.98 12.642 9.98 12.6418 9.98 12.6417C9.98 12.6415 9.98 12.6414 9.98 12.6412C9.98 12.6411 9.98 12.641 9.98 12.6408C9.98 12.6407 9.98 12.6405 9.98 12.6404C9.98 12.6402 9.98 12.6401 9.98 12.6399C9.98 12.6398 9.98 12.6396 9.98 12.6395C9.98 12.6394 9.98 12.6392 9.98 12.6391C9.98 12.6389 9.98 12.6388 9.98 12.6386C9.98 12.6385 9.98 12.6383 9.98 12.6382C9.98 12.638 9.98 12.6379 9.98 12.6377C9.98 12.6376 9.98 12.6375 9.98 12.6373C9.98 12.6372 9.98 12.637 9.98 12.6369C9.98 12.6367 9.98 12.6366 9.98 12.6364C9.98 12.6363 9.98 12.6361 9.98 12.636C9.98 12.6359 9.98 12.6357 9.98 12.6356C9.98 12.6354 9.98 12.6353 9.98 12.6351C9.98 12.635 9.98 12.6348 9.98 12.6347C9.98 12.6345 9.98 12.6344 9.98 12.6342C9.98 12.6341 9.98 12.634 9.98 12.6338C9.98 12.6337 9.98 12.6335 9.98 12.6334C9.98 12.6332 9.98 12.6331 9.98 12.6329C9.98 12.6328 9.98 12.6326 9.98 12.6325C9.98 12.6324 9.98 12.6322 9.98 12.6321C9.98 12.6319 9.98 12.6318 9.98 12.6316C9.98 12.6315 9.98 12.6313 9.98 12.6312C9.98 12.631 9.98 12.6309 9.98 12.6307C9.98 12.6306 9.98 12.6305 9.98 12.6303C9.98 12.6302 9.98 12.63 9.98 12.6299C9.98 12.6297 9.98 12.6296 9.98 12.6294C9.98 12.6293 9.98 12.6291 9.98 12.629C9.98 12.6289 9.98 12.6287 9.98 12.6286C9.98 12.6284 9.98 12.6283 9.98 12.6281C9.98 12.628 9.98 12.6278 9.98 12.6277C9.98 12.6275 9.98 12.6274 9.98 12.6272C9.98 12.6271 9.98 12.627 9.98 12.6268C9.98 12.6267 9.98 12.6265 9.98 12.6264C9.98 12.6262 9.98 12.6261 9.98 12.6259C9.98 12.6258 9.98 12.6256 9.98 12.6255C9.98 12.6254 9.98 12.6252 9.98 12.6251C9.98 12.6249 9.98 12.6248 9.98 12.6246C9.98 12.6245 9.98 12.6243 9.98 12.6242C9.98 12.624 9.98 12.6239 9.98 12.6237C9.98 12.6236 9.98 12.6235 9.98 12.6233C9.98 12.6232 9.98 12.623 9.98 12.6229C9.98 12.6227 9.98 12.6226 9.98 12.6224C9.98 12.6223 9.98 12.6221 9.98 12.622C9.98 12.6219 9.98 12.6217 9.98 12.6216C9.98 12.6214 9.98 12.6213 9.98 12.6211C9.98 12.621 9.98 12.6208 9.98 12.6207C9.98 12.6205 9.98 12.6204 9.98 12.6202C9.98 12.6201 9.98 12.62 9.98 12.6198C9.98 12.6197 9.98 12.6195 9.98 12.6194C9.98 12.6192 9.98 12.6191 9.98 12.6189C9.98 12.6188 9.98 12.6186 9.98 12.6185C9.98 12.6184 9.98 12.6182 9.98 12.6181C9.98 12.6179 9.98 12.6178 9.98 12.6176C9.98 12.6175 9.98 12.6173 9.98 12.6172C9.98 12.617 9.98 12.6169 9.98 12.6167C9.98 12.6166 9.98 12.6165 9.98 12.6163C9.98 12.6162 9.98 12.616 9.98 12.6159C9.98 12.6157 9.98 12.6156 9.98 12.6154C9.98 12.6153 9.98 12.6151 9.98 12.615C9.98 12.6149 9.98 12.6147 9.98 12.6146C9.98 12.6144 9.98 12.6143 9.98 12.6141C9.98 12.614 9.98 12.6138 9.98 12.6137C9.98 12.6135 9.98 12.6134 9.98 12.6132C9.98 12.6131 9.98 12.613 9.98 12.6128C9.98 12.6127 9.98 12.6125 9.98 12.6124C9.98 12.6122 9.98 12.6121 9.98 12.6119C9.98 12.6118 9.98 12.6116 9.98 12.6115C9.98 12.6114 9.98 12.6112 9.98 12.6111C9.98 12.6109 9.98 12.6108 9.98 12.6106C9.98 12.6105 9.98 12.6103 9.98 12.6102C9.98 12.61 9.98 12.6099 9.98 12.6097C9.98 12.6096 9.98 12.6095 9.98 12.6093C9.98 12.6092 9.98 12.609 9.98 12.6089C9.98 12.6087 9.98 12.6086 9.98 12.6084C9.98 12.6083 9.98 12.6081 9.98 12.608C9.98 12.6079 9.98 12.6077 9.98 12.6076C9.98 12.6074 9.98 12.6073 9.98 12.6071C9.98 12.607 9.98 12.6068 9.98 12.6067C9.98 12.6065 9.98 12.6064 9.98 12.6062C9.98 12.6061 9.98 12.606 9.98 12.6058C9.98 12.6057 9.98 12.6055 9.98 12.6054C9.98 12.6052 9.98 12.6051 9.98 12.6049C9.98 12.6048 9.98 12.6046 9.98 12.6045C9.98 12.6044 9.98 12.6042 9.98 12.6041C9.98 12.6039 9.98 12.6038 9.98 12.6036C9.98 12.6035 9.98 12.6033 9.98 12.6032C9.98 12.603 9.98 12.6029 9.98 12.6027C9.98 12.6026 9.98 12.6025 9.98 12.6023C9.98 12.6022 9.98 12.602 9.98 12.6019C9.98 12.6017 9.98 12.6016 9.98 12.6014C9.98 12.6013 9.98 12.6011 9.98 12.601C9.98 12.6009 9.98 12.6007 9.98 12.6006C9.98 12.6004 9.98 12.6003 9.98 12.6001C9.98 12.6 9.98 12.5998 9.98 12.5997C9.98 12.5995 9.98 12.5994 9.98 12.5992C9.98 12.5991 9.98 12.599 9.98 12.5988C9.98 12.5987 9.98 12.5985 9.98 12.5984C9.98 12.5982 9.98 12.5981 9.98 12.5979C9.98 12.5978 9.98 12.5976 9.98 12.5975C9.98 12.5974 9.98 12.5972 9.98 12.5971C9.98 12.5969 9.98 12.5968 9.98 12.5966C9.98 12.5965 9.98 12.5963 9.98 12.5962C9.98 12.596 9.98 12.5959 9.98 12.5957C9.98 12.5956 9.98 12.5955 9.98 12.5953C9.98 12.5952 9.98 12.595 9.98 12.5949C9.98 12.5947 9.98 12.5946 9.98 12.5944C9.98 12.5943 9.98 12.5941 9.98 12.594C9.98 12.5939 9.98 12.5937 9.98 12.5936C9.98 12.5934 9.98 12.5933 9.98 12.5931C9.98 12.593 9.98 12.5928 9.98 12.5927C9.98 12.5925 9.98 12.5924 9.98 12.5922C9.98 12.5921 9.98 12.592 9.98 12.5918C9.98 12.5917 9.98 12.5915 9.98 12.5914C9.98 12.5912 9.98 12.5911 9.98 12.5909C9.98 12.5908 9.98 12.5906 9.98 12.5905C9.98 12.5904 9.98 12.5902 9.98 12.5901C9.98 12.5899 9.98 12.5898 9.98 12.5896C9.98 12.5895 9.98 12.5893 9.98 12.5892C9.98 12.589 9.98 12.5889 9.98 12.5887C9.98 12.5886 9.98 12.5885 9.98 12.5883C9.98 12.5882 9.98 12.588 9.98 12.5879C9.98 12.5877 9.98 12.5876 9.98 12.5874C9.98 12.5873 9.98 12.5871 9.98 12.587C9.98 12.5869 9.98 12.5867 9.98 12.5866C9.98 12.5864 9.98 12.5863 9.98 12.5861C9.98 12.586 9.98 12.5858 9.98 12.5857C9.98 12.5855 9.98 12.5854 9.98 12.5852C9.98 12.5851 9.98 12.585 9.98 12.5848C9.98 12.5847 9.98 12.5845 9.98 12.5844C9.98 12.5842 9.98 12.5841 9.98 12.5839C9.98 12.5838 9.98 12.5836 9.98 12.5835C9.98 12.5834 9.98 12.5832 9.98 12.5831C9.98 12.5829 9.98 12.5828 9.98 12.5826C9.98 12.5825 9.98 12.5823 9.98 12.5822C9.98 12.582 9.98 12.5819 9.98 12.5817C9.98 12.5816 9.98 12.5815 9.98 12.5813C9.98 12.5812 9.98 12.581 9.98 12.5809C9.98 12.5807 9.98 12.5806 9.98 12.5804C9.98 12.5803 9.98 12.5801 9.98 12.58H7.98C7.98 12.5801 7.98 12.5803 7.98 12.5804C7.98 12.5806 7.98 12.5807 7.98 12.5809C7.98 12.581 7.98 12.5812 7.98 12.5813C7.98 12.5815 7.98 12.5816 7.98 12.5817C7.98 12.5819 7.98 12.582 7.98 12.5822C7.98 12.5823 7.98 12.5825 7.98 12.5826C7.98 12.5828 7.98 12.5829 7.98 12.5831C7.98 12.5832 7.98 12.5834 7.98 12.5835C7.98 12.5836 7.98 12.5838 7.98 12.5839C7.98 12.5841 7.98 12.5842 7.98 12.5844C7.98 12.5845 7.98 12.5847 7.98 12.5848C7.98 12.585 7.98 12.5851 7.98 12.5852C7.98 12.5854 7.98 12.5855 7.98 12.5857C7.98 12.5858 7.98 12.586 7.98 12.5861C7.98 12.5863 7.98 12.5864 7.98 12.5866C7.98 12.5867 7.98 12.5869 7.98 12.587C7.98 12.5871 7.98 12.5873 7.98 12.5874C7.98 12.5876 7.98 12.5877 7.98 12.5879C7.98 12.588 7.98 12.5882 7.98 12.5883C7.98 12.5885 7.98 12.5886 7.98 12.5887C7.98 12.5889 7.98 12.589 7.98 12.5892C7.98 12.5893 7.98 12.5895 7.98 12.5896C7.98 12.5898 7.98 12.5899 7.98 12.5901C7.98 12.5902 7.98 12.5904 7.98 12.5905C7.98 12.5906 7.98 12.5908 7.98 12.5909C7.98 12.5911 7.98 12.5912 7.98 12.5914C7.98 12.5915 7.98 12.5917 7.98 12.5918C7.98 12.592 7.98 12.5921 7.98 12.5922C7.98 12.5924 7.98 12.5925 7.98 12.5927C7.98 12.5928 7.98 12.593 7.98 12.5931C7.98 12.5933 7.98 12.5934 7.98 12.5936C7.98 12.5937 7.98 12.5939 7.98 12.594C7.98 12.5941 7.98 12.5943 7.98 12.5944C7.98 12.5946 7.98 12.5947 7.98 12.5949C7.98 12.595 7.98 12.5952 7.98 12.5953C7.98 12.5955 7.98 12.5956 7.98 12.5957C7.98 12.5959 7.98 12.596 7.98 12.5962C7.98 12.5963 7.98 12.5965 7.98 12.5966C7.98 12.5968 7.98 12.5969 7.98 12.5971C7.98 12.5972 7.98 12.5974 7.98 12.5975C7.98 12.5976 7.98 12.5978 7.98 12.5979C7.98 12.5981 7.98 12.5982 7.98 12.5984C7.98 12.5985 7.98 12.5987 7.98 12.5988C7.98 12.599 7.98 12.5991 7.98 12.5992C7.98 12.5994 7.98 12.5995 7.98 12.5997C7.98 12.5998 7.98 12.6 7.98 12.6001C7.98 12.6003 7.98 12.6004 7.98 12.6006C7.98 12.6007 7.98 12.6009 7.98 12.601C7.98 12.6011 7.98 12.6013 7.98 12.6014C7.98 12.6016 7.98 12.6017 7.98 12.6019C7.98 12.602 7.98 12.6022 7.98 12.6023C7.98 12.6025 7.98 12.6026 7.98 12.6027C7.98 12.6029 7.98 12.603 7.98 12.6032C7.98 12.6033 7.98 12.6035 7.98 12.6036C7.98 12.6038 7.98 12.6039 7.98 12.6041C7.98 12.6042 7.98 12.6044 7.98 12.6045C7.98 12.6046 7.98 12.6048 7.98 12.6049C7.98 12.6051 7.98 12.6052 7.98 12.6054C7.98 12.6055 7.98 12.6057 7.98 12.6058C7.98 12.606 7.98 12.6061 7.98 12.6062C7.98 12.6064 7.98 12.6065 7.98 12.6067C7.98 12.6068 7.98 12.607 7.98 12.6071C7.98 12.6073 7.98 12.6074 7.98 12.6076C7.98 12.6077 7.98 12.6079 7.98 12.608C7.98 12.6081 7.98 12.6083 7.98 12.6084C7.98 12.6086 7.98 12.6087 7.98 12.6089C7.98 12.609 7.98 12.6092 7.98 12.6093C7.98 12.6095 7.98 12.6096 7.98 12.6097C7.98 12.6099 7.98 12.61 7.98 12.6102C7.98 12.6103 7.98 12.6105 7.98 12.6106C7.98 12.6108 7.98 12.6109 7.98 12.6111C7.98 12.6112 7.98 12.6114 7.98 12.6115C7.98 12.6116 7.98 12.6118 7.98 12.6119C7.98 12.6121 7.98 12.6122 7.98 12.6124C7.98 12.6125 7.98 12.6127 7.98 12.6128C7.98 12.613 7.98 12.6131 7.98 12.6132C7.98 12.6134 7.98 12.6135 7.98 12.6137C7.98 12.6138 7.98 12.614 7.98 12.6141C7.98 12.6143 7.98 12.6144 7.98 12.6146C7.98 12.6147 7.98 12.6149 7.98 12.615C7.98 12.6151 7.98 12.6153 7.98 12.6154C7.98 12.6156 7.98 12.6157 7.98 12.6159C7.98 12.616 7.98 12.6162 7.98 12.6163C7.98 12.6165 7.98 12.6166 7.98 12.6167C7.98 12.6169 7.98 12.617 7.98 12.6172C7.98 12.6173 7.98 12.6175 7.98 12.6176C7.98 12.6178 7.98 12.6179 7.98 12.6181C7.98 12.6182 7.98 12.6184 7.98 12.6185C7.98 12.6186 7.98 12.6188 7.98 12.6189C7.98 12.6191 7.98 12.6192 7.98 12.6194C7.98 12.6195 7.98 12.6197 7.98 12.6198C7.98 12.62 7.98 12.6201 7.98 12.6202C7.98 12.6204 7.98 12.6205 7.98 12.6207C7.98 12.6208 7.98 12.621 7.98 12.6211C7.98 12.6213 7.98 12.6214 7.98 12.6216C7.98 12.6217 7.98 12.6219 7.98 12.622C7.98 12.6221 7.98 12.6223 7.98 12.6224C7.98 12.6226 7.98 12.6227 7.98 12.6229C7.98 12.623 7.98 12.6232 7.98 12.6233C7.98 12.6235 7.98 12.6236 7.98 12.6237C7.98 12.6239 7.98 12.624 7.98 12.6242C7.98 12.6243 7.98 12.6245 7.98 12.6246C7.98 12.6248 7.98 12.6249 7.98 12.6251C7.98 12.6252 7.98 12.6254 7.98 12.6255C7.98 12.6256 7.98 12.6258 7.98 12.6259C7.98 12.6261 7.98 12.6262 7.98 12.6264C7.98 12.6265 7.98 12.6267 7.98 12.6268C7.98 12.627 7.98 12.6271 7.98 12.6272C7.98 12.6274 7.98 12.6275 7.98 12.6277C7.98 12.6278 7.98 12.628 7.98 12.6281C7.98 12.6283 7.98 12.6284 7.98 12.6286C7.98 12.6287 7.98 12.6289 7.98 12.629C7.98 12.6291 7.98 12.6293 7.98 12.6294C7.98 12.6296 7.98 12.6297 7.98 12.6299C7.98 12.63 7.98 12.6302 7.98 12.6303C7.98 12.6305 7.98 12.6306 7.98 12.6307C7.98 12.6309 7.98 12.631 7.98 12.6312C7.98 12.6313 7.98 12.6315 7.98 12.6316C7.98 12.6318 7.98 12.6319 7.98 12.6321C7.98 12.6322 7.98 12.6324 7.98 12.6325C7.98 12.6326 7.98 12.6328 7.98 12.6329C7.98 12.6331 7.98 12.6332 7.98 12.6334C7.98 12.6335 7.98 12.6337 7.98 12.6338C7.98 12.634 7.98 12.6341 7.98 12.6342C7.98 12.6344 7.98 12.6345 7.98 12.6347C7.98 12.6348 7.98 12.635 7.98 12.6351C7.98 12.6353 7.98 12.6354 7.98 12.6356C7.98 12.6357 7.98 12.6359 7.98 12.636C7.98 12.6361 7.98 12.6363 7.98 12.6364C7.98 12.6366 7.98 12.6367 7.98 12.6369C7.98 12.637 7.98 12.6372 7.98 12.6373C7.98 12.6375 7.98 12.6376 7.98 12.6377C7.98 12.6379 7.98 12.638 7.98 12.6382C7.98 12.6383 7.98 12.6385 7.98 12.6386C7.98 12.6388 7.98 12.6389 7.98 12.6391C7.98 12.6392 7.98 12.6394 7.98 12.6395C7.98 12.6396 7.98 12.6398 7.98 12.6399C7.98 12.6401 7.98 12.6402 7.98 12.6404C7.98 12.6405 7.98 12.6407 7.98 12.6408C7.98 12.641 7.98 12.6411 7.98 12.6412C7.98 12.6414 7.98 12.6415 7.98 12.6417C7.98 12.6418 7.98 12.642 7.98 12.6421C7.98 12.6423 7.98 12.6424 7.98 12.6426C7.98 12.6427 7.98 12.6429 7.98 12.643C7.98 12.6431 7.98 12.6433 7.98 12.6434C7.98 12.6436 7.98 12.6437 7.98 12.6439C7.98 12.644 7.98 12.6442 7.98 12.6443C7.98 12.6445 7.98 12.6446 7.98 12.6447C7.98 12.6449 7.98 12.645 7.98 12.6452C7.98 12.6453 7.98 12.6455 7.98 12.6456C7.98 12.6458 7.98 12.6459 7.98 12.6461C7.98 12.6462 7.98 12.6464 7.98 12.6465C7.98 12.6466 7.98 12.6468 7.98 12.6469C7.98 12.6471 7.98 12.6472 7.98 12.6474C7.98 12.6475 7.98 12.6477 7.98 12.6478C7.98 12.648 7.98 12.6481 7.98 12.6482C7.98 12.6484 7.98 12.6485 7.98 12.6487C7.98 12.6488 7.98 12.649 7.98 12.6491C7.98 12.6493 7.98 12.6494 7.98 12.6496C7.98 12.6497 7.98 12.6499 7.98 12.65C7.98 12.6501 7.98 12.6503 7.98 12.6504C7.98 12.6506 7.98 12.6507 7.98 12.6509C7.98 12.651 7.98 12.6512 7.98 12.6513C7.98 12.6515 7.98 12.6516 7.98 12.6517C7.98 12.6519 7.98 12.652 7.98 12.6522C7.98 12.6523 7.98 12.6525 7.98 12.6526C7.98 12.6528 7.98 12.6529 7.98 12.6531C7.98 12.6532 7.98 12.6534 7.98 12.6535C7.98 12.6536 7.98 12.6538 7.98 12.6539C7.98 12.6541 7.98 12.6542 7.98 12.6544C7.98 12.6545 7.98 12.6547 7.98 12.6548C7.98 12.655 7.98 12.6551 7.98 12.6552C7.98 12.6554 7.98 12.6555 7.98 12.6557C7.98 12.6558 7.98 12.656 7.98 12.6561C7.98 12.6563 7.98 12.6564 7.98 12.6566C7.98 12.6567 7.98 12.6569 7.98 12.657C7.98 12.6571 7.98 12.6573 7.98 12.6574C7.98 12.6576 7.98 12.6577 7.98 12.6579C7.98 12.658 7.98 12.6582 7.98 12.6583C7.98 12.6585 7.98 12.6586 7.98 12.6587C7.98 12.6589 7.98 12.659 7.98 12.6592C7.98 12.6593 7.98 12.6595 7.98 12.6596C7.98 12.6598 7.98 12.6599 7.98 12.6601C7.98 12.6602 7.98 12.6604 7.98 12.6605C7.98 12.6606 7.98 12.6608 7.98 12.6609C7.98 12.6611 7.98 12.6612 7.98 12.6614C7.98 12.6615 7.98 12.6617 7.98 12.6618C7.98 12.662 7.98 12.6621 7.98 12.6622C7.98 12.6624 7.98 12.6625 7.98 12.6627C7.98 12.6628 7.98 12.663 7.98 12.6631C7.98 12.6633 7.98 12.6634 7.98 12.6636C7.98 12.6637 7.98 12.6639 7.98 12.664C7.98 12.6641 7.98 12.6643 7.98 12.6644C7.98 12.6646 7.98 12.6647 7.98 12.6649C7.98 12.665 7.98 12.6652 7.98 12.6653C7.98 12.6655 7.98 12.6656 7.98 12.6657C7.98 12.6659 7.98 12.666 7.98 12.6662C7.98 12.6663 7.98 12.6665 7.98 12.6666C7.98 12.6668 7.98 12.6669 7.98 12.6671C7.98 12.6672 7.98 12.6674 7.98 12.6675C7.98 12.6676 7.98 12.6678 7.98 12.6679C7.98 12.6681 7.98 12.6682 7.98 12.6684C7.98 12.6685 7.98 12.6687 7.98 12.6688C7.98 12.669 7.98 12.6691 7.98 12.6692C7.98 12.6694 7.98 12.6695 7.98 12.6697C7.98 12.6698 7.98 12.67 7.98 12.6701C7.98 12.6703 7.98 12.6704 7.98 12.6706C7.98 12.6707 7.98 12.6709 7.98 12.671C7.98 12.6711 7.98 12.6713 7.98 12.6714C7.98 12.6716 7.98 12.6717 7.98 12.6719C7.98 12.672 7.98 12.6722 7.98 12.6723C7.98 12.6725 7.98 12.6726 7.98 12.6727C7.98 12.6729 7.98 12.673 7.98 12.6732C7.98 12.6733 7.98 12.6735 7.98 12.6736C7.98 12.6738 7.98 12.6739 7.98 12.6741C7.98 12.6742 7.98 12.6744 7.98 12.6745C7.98 12.6746 7.98 12.6748 7.98 12.6749C7.98 12.6751 7.98 12.6752 7.98 12.6754C7.98 12.6755 7.98 12.6757 7.98 12.6758C7.98 12.676 7.98 12.6761 7.98 12.6762C7.98 12.6764 7.98 12.6765 7.98 12.6767C7.98 12.6768 7.98 12.677 7.98 12.6771C7.98 12.6773 7.98 12.6774 7.98 12.6776C7.98 12.6777 7.98 12.6779 7.98 12.678C7.98 12.6781 7.98 12.6783 7.98 12.6784C7.98 12.6786 7.98 12.6787 7.98 12.6789C7.98 12.679 7.98 12.6792 7.98 12.6793C7.98 12.6795 7.98 12.6796 7.98 12.6797C7.98 12.6799 7.98 12.68 7.98 12.6802C7.98 12.6803 7.98 12.6805 7.98 12.6806C7.98 12.6808 7.98 12.6809 7.98 12.6811C7.98 12.6812 7.98 12.6814 7.98 12.6815C7.98 12.6816 7.98 12.6818 7.98 12.6819C7.98 12.6821 7.98 12.6822 7.98 12.6824C7.98 12.6825 7.98 12.6827 7.98 12.6828C7.98 12.683 7.98 12.6831 7.98 12.6832C7.98 12.6834 7.98 12.6835 7.98 12.6837C7.98 12.6838 7.98 12.684 7.98 12.6841C7.98 12.6843 7.98 12.6844 7.98 12.6846C7.98 12.6847 7.98 12.6849 7.98 12.685C7.98 12.6851 7.98 12.6853 7.98 12.6854C7.98 12.6856 7.98 12.6857 7.98 12.6859C7.98 12.686 7.98 12.6862 7.98 12.6863C7.98 12.6865 7.98 12.6866 7.98 12.6867C7.98 12.6869 7.98 12.687 7.98 12.6872C7.98 12.6873 7.98 12.6875 7.98 12.6876C7.98 12.6878 7.98 12.6879 7.98 12.6881C7.98 12.6882 7.98 12.6884 7.98 12.6885C7.98 12.6886 7.98 12.6888 7.98 12.6889C7.98 12.6891 7.98 12.6892 7.98 12.6894C7.98 12.6895 7.98 12.6897 7.98 12.6898C7.98 12.69 7.98 12.6901 7.98 12.6902C7.98 12.6904 7.98 12.6905 7.98 12.6907C7.98 12.6908 7.98 12.691 7.98 12.6911C7.98 12.6913 7.98 12.6914 7.98 12.6916C7.98 12.6917 7.98 12.6919 7.98 12.692C7.98 12.6921 7.98 12.6923 7.98 12.6924C7.98 12.6926 7.98 12.6927 7.98 12.6929C7.98 12.693 7.98 12.6932 7.98 12.6933C7.98 12.6935 7.98 12.6936 7.98 12.6937C7.98 12.6939 7.98 12.694 7.98 12.6942C7.98 12.6943 7.98 12.6945 7.98 12.6946C7.98 12.6948 7.98 12.6949 7.98 12.6951C7.98 12.6952 7.98 12.6954 7.98 12.6955C7.98 12.6956 7.98 12.6958 7.98 12.6959C7.98 12.6961 7.98 12.6962 7.98 12.6964C7.98 12.6965 7.98 12.6967 7.98 12.6968C7.98 12.697 7.98 12.6971 7.98 12.6972C7.98 12.6974 7.98 12.6975 7.98 12.6977C7.98 12.6978 7.98 12.698 7.98 12.6981C7.98 12.6983 7.98 12.6984 7.98 12.6986C7.98 12.6987 7.98 12.6989 7.98 12.699C7.98 12.6991 7.98 12.6993 7.98 12.6994C7.98 12.6996 7.98 12.6997 7.98 12.6999C7.98 12.7 7.98 12.7002 7.98 12.7003C7.98 12.7005 7.98 12.7006 7.98 12.7007C7.98 12.7009 7.98 12.701 7.98 12.7012C7.98 12.7013 7.98 12.7015 7.98 12.7016C7.98 12.7018 7.98 12.7019 7.98 12.7021C7.98 12.7022 7.98 12.7024 7.98 12.7025C7.98 12.7026 7.98 12.7028 7.98 12.7029C7.98 12.7031 7.98 12.7032 7.98 12.7034C7.98 12.7035 7.98 12.7037 7.98 12.7038C7.98 12.704 7.98 12.7041 7.98 12.7042C7.98 12.7044 7.98 12.7045 7.98 12.7047C7.98 12.7048 7.98 12.705 7.98 12.7051C7.98 12.7053 7.98 12.7054 7.98 12.7056C7.98 12.7057 7.98 12.7059 7.98 12.706C7.98 12.7061 7.98 12.7063 7.98 12.7064C7.98 12.7066 7.98 12.7067 7.98 12.7069C7.98 12.707 7.98 12.7072 7.98 12.7073C7.98 12.7075 7.98 12.7076 7.98 12.7077C7.98 12.7079 7.98 12.708 7.98 12.7082C7.98 12.7083 7.98 12.7085 7.98 12.7086C7.98 12.7088 7.98 12.7089 7.98 12.7091C7.98 12.7092 7.98 12.7094 7.98 12.7095C7.98 12.7096 7.98 12.7098 7.98 12.7099C7.98 12.7101 7.98 12.7102 7.98 12.7104C7.98 12.7105 7.98 12.7107 7.98 12.7108C7.98 12.711 7.98 12.7111 7.98 12.7112C7.98 12.7114 7.98 12.7115 7.98 12.7117C7.98 12.7118 7.98 12.712 7.98 12.7121C7.98 12.7123 7.98 12.7124 7.98 12.7126C7.98 12.7127 7.98 12.7129 7.98 12.713C7.98 12.7131 7.98 12.7133 7.98 12.7134C7.98 12.7136 7.98 12.7137 7.98 12.7139C7.98 12.714 7.98 12.7142 7.98 12.7143C7.98 12.7145 7.98 12.7146 7.98 12.7147C7.98 12.7149 7.98 12.715 7.98 12.7152C7.98 12.7153 7.98 12.7155 7.98 12.7156C7.98 12.7158 7.98 12.7159 7.98 12.7161C7.98 12.7162 7.98 12.7164 7.98 12.7165C7.98 12.7166 7.98 12.7168 7.98 12.7169C7.98 12.7171 7.98 12.7172 7.98 12.7174C7.98 12.7175 7.98 12.7177 7.98 12.7178C7.98 12.718 7.98 12.7181 7.98 12.7182C7.98 12.7184 7.98 12.7185 7.98 12.7187C7.98 12.7188 7.98 12.719 7.98 12.7191C7.98 12.7193 7.98 12.7194 7.98 12.7196C7.98 12.7197 7.98 12.7199 7.98 12.72C7.98 12.7201 7.98 12.7203 7.98 12.7204C7.98 12.7206 7.98 12.7207 7.98 12.7209C7.98 12.721 7.98 12.7212 7.98 12.7213C7.98 12.7215 7.98 12.7216 7.98 12.7217C7.98 12.7219 7.98 12.722 7.98 12.7222C7.98 12.7223 7.98 12.7225 7.98 12.7226C7.98 12.7228 7.98 12.7229 7.98 12.7231C7.98 12.7232 7.98 12.7234 7.98 12.7235C7.98 12.7236 7.98 12.7238 7.98 12.7239C7.98 12.7241 7.98 12.7242 7.98 12.7244C7.98 12.7245 7.98 12.7247 7.98 12.7248C7.98 12.725 7.98 12.7251 7.98 12.7252C7.98 12.7254 7.98 12.7255 7.98 12.7257C7.98 12.7258 7.98 12.726 7.98 12.7261C7.98 12.7263 7.98 12.7264 7.98 12.7266C7.98 12.7267 7.98 12.7269 7.98 12.727C7.98 12.7271 7.98 12.7273 7.98 12.7274C7.98 12.7276 7.98 12.7277 7.98 12.7279C7.98 12.728 7.98 12.7282 7.98 12.7283C7.98 12.7285 7.98 12.7286 7.98 12.7287C7.98 12.7289 7.98 12.729 7.98 12.7292C7.98 12.7293 7.98 12.7295 7.98 12.7296C7.98 12.7298 7.98 12.7299 7.98 12.7301C7.98 12.7302 7.98 12.7304 7.98 12.7305C7.98 12.7306 7.98 12.7308 7.98 12.7309C7.98 12.7311 7.98 12.7312 7.98 12.7314C7.98 12.7315 7.98 12.7317 7.98 12.7318C7.98 12.732 7.98 12.7321 7.98 12.7322C7.98 12.7324 7.98 12.7325 7.98 12.7327C7.98 12.7328 7.98 12.733 7.98 12.7331C7.98 12.7333 7.98 12.7334 7.98 12.7336C7.98 12.7337 7.98 12.7339 7.98 12.734C7.98 12.7341 7.98 12.7343 7.98 12.7344C7.98 12.7346 7.98 12.7347 7.98 12.7349C7.98 12.735 7.98 12.7352 7.98 12.7353C7.98 12.7355 7.98 12.7356 7.98 12.7357C7.98 12.7359 7.98 12.736 7.98 12.7362C7.98 12.7363 7.98 12.7365 7.98 12.7366C7.98 12.7368 7.98 12.7369 7.98 12.7371C7.98 12.7372 7.98 12.7374 7.98 12.7375C7.98 12.7376 7.98 12.7378 7.98 12.7379C7.98 12.7381 7.98 12.7382 7.98 12.7384C7.98 12.7385 7.98 12.7387 7.98 12.7388C7.98 12.739 7.98 12.7391 7.98 12.7392C7.98 12.7394 7.98 12.7395 7.98 12.7397C7.98 12.7398 7.98 12.74 7.98 12.7401C7.98 12.7403 7.98 12.7404 7.98 12.7406C7.98 12.7407 7.98 12.7409 7.98 12.741C7.98 12.7411 7.98 12.7413 7.98 12.7414C7.98 12.7416 7.98 12.7417 7.98 12.7419C7.98 12.742 7.98 12.7422 7.98 12.7423C7.98 12.7425 7.98 12.7426 7.98 12.7427C7.98 12.7429 7.98 12.743 7.98 12.7432C7.98 12.7433 7.98 12.7435 7.98 12.7436C7.98 12.7438 7.98 12.7439 7.98 12.7441C7.98 12.7442 7.98 12.7444 7.98 12.7445C7.98 12.7446 7.98 12.7448 7.98 12.7449C7.98 12.7451 7.98 12.7452 7.98 12.7454C7.98 12.7455 7.98 12.7457 7.98 12.7458C7.98 12.746 7.98 12.7461 7.98 12.7462C7.98 12.7464 7.98 12.7465 7.98 12.7467C7.98 12.7468 7.98 12.747 7.98 12.7471C7.98 12.7473 7.98 12.7474 7.98 12.7476C7.98 12.7477 7.98 12.7479 7.98 12.748C7.98 12.7481 7.98 12.7483 7.98 12.7484C7.98 12.7486 7.98 12.7487 7.98 12.7489C7.98 12.749 7.98 12.7492 7.98 12.7493C7.98 12.7495 7.98 12.7496 7.98 12.7497C7.98 12.7499 7.98 12.75 7.98 12.7502C7.98 12.7503 7.98 12.7505 7.98 12.7506C7.98 12.7508 7.98 12.7509 7.98 12.7511C7.98 12.7512 7.98 12.7514 7.98 12.7515C7.98 12.7516 7.98 12.7518 7.98 12.7519C7.98 12.7521 7.98 12.7522 7.98 12.7524C7.98 12.7525 7.98 12.7527 7.98 12.7528C7.98 12.753 7.98 12.7531 7.98 12.7532C7.98 12.7534 7.98 12.7535 7.98 12.7537C7.98 12.7538 7.98 12.754 7.98 12.7541C7.98 12.7543 7.98 12.7544 7.98 12.7546C7.98 12.7547 7.98 12.7549 7.98 12.755C7.98 12.7551 7.98 12.7553 7.98 12.7554C7.98 12.7556 7.98 12.7557 7.98 12.7559C7.98 12.756 7.98 12.7562 7.98 12.7563C7.98 12.7565 7.98 12.7566 7.98 12.7567C7.98 12.7569 7.98 12.757 7.98 12.7572C7.98 12.7573 7.98 12.7575 7.98 12.7576C7.98 12.7578 7.98 12.7579 7.98 12.7581C7.98 12.7582 7.98 12.7584 7.98 12.7585C7.98 12.7586 7.98 12.7588 7.98 12.7589C7.98 12.7591 7.98 12.7592 7.98 12.7594C7.98 12.7595 7.98 12.7597 7.98 12.7598C7.98 12.76 7.98 12.7601 7.98 12.7602C7.98 12.7604 7.98 12.7605 7.98 12.7607C7.98 12.7608 7.98 12.761 7.98 12.7611C7.98 12.7613 7.98 12.7614 7.98 12.7616C7.98 12.7617 7.98 12.7619 7.98 12.762C7.98 12.7621 7.98 12.7623 7.98 12.7624C7.98 12.7626 7.98 12.7627 7.98 12.7629C7.98 12.763 7.98 12.7632 7.98 12.7633C7.98 12.7635 7.98 12.7636 7.98 12.7637C7.98 12.7639 7.98 12.764 7.98 12.7642C7.98 12.7643 7.98 12.7645 7.98 12.7646C7.98 12.7648 7.98 12.7649 7.98 12.7651C7.98 12.7652 7.98 12.7654 7.98 12.7655C7.98 12.7656 7.98 12.7658 7.98 12.7659C7.98 12.7661 7.98 12.7662 7.98 12.7664C7.98 12.7665 7.98 12.7667 7.98 12.7668C7.98 12.767 7.98 12.7671 7.98 12.7672C7.98 12.7674 7.98 12.7675 7.98 12.7677C7.98 12.7678 7.98 12.768 7.98 12.7681C7.98 12.7683 7.98 12.7684 7.98 12.7686C7.98 12.7687 7.98 12.7689 7.98 12.769C7.98 12.7691 7.98 12.7693 7.98 12.7694C7.98 12.7696 7.98 12.7697 7.98 12.7699C7.98 12.77 7.98 12.7702 7.98 12.7703C7.98 12.7705 7.98 12.7706 7.98 12.7707C7.98 12.7709 7.98 12.771 7.98 12.7712C7.98 12.7713 7.98 12.7715 7.98 12.7716C7.98 12.7718 7.98 12.7719 7.98 12.7721C7.98 12.7722 7.98 12.7724 7.98 12.7725C7.98 12.7726 7.98 12.7728 7.98 12.7729C7.98 12.7731 7.98 12.7732 7.98 12.7734C7.98 12.7735 7.98 12.7737 7.98 12.7738C7.98 12.774 7.98 12.7741 7.98 12.7742C7.98 12.7744 7.98 12.7745 7.98 12.7747C7.98 12.7748 7.98 12.775 7.98 12.7751C7.98 12.7753 7.98 12.7754 7.98 12.7756C7.98 12.7757 7.98 12.7759 7.98 12.776C7.98 12.7761 7.98 12.7763 7.98 12.7764C7.98 12.7766 7.98 12.7767 7.98 12.7769C7.98 12.777 7.98 12.7772 7.98 12.7773C7.98 12.7775 7.98 12.7776 7.98 12.7777C7.98 12.7779 7.98 12.778 7.98 12.7782C7.98 12.7783 7.98 12.7785 7.98 12.7786C7.98 12.7788 7.98 12.7789 7.98 12.7791C7.98 12.7792 7.98 12.7794 7.98 12.7795C7.98 12.7796 7.98 12.7798 7.98 12.7799C7.98 12.7801 7.98 12.7802 7.98 12.7804C7.98 12.7805 7.98 12.7807 7.98 12.7808C7.98 12.781 7.98 12.7811 7.98 12.7812C7.98 12.7814 7.98 12.7815 7.98 12.7817C7.98 12.7818 7.98 12.782 7.98 12.7821C7.98 12.7823 7.98 12.7824 7.98 12.7826C7.98 12.7827 7.98 12.7829 7.98 12.783C7.98 12.7831 7.98 12.7833 7.98 12.7834C7.98 12.7836 7.98 12.7837 7.98 12.7839C7.98 12.784 7.98 12.7842 7.98 12.7843C7.98 12.7845 7.98 12.7846 7.98 12.7847C7.98 12.7849 7.98 12.785 7.98 12.7852C7.98 12.7853 7.98 12.7855 7.98 12.7856C7.98 12.7858 7.98 12.7859 7.98 12.7861C7.98 12.7862 7.98 12.7864 7.98 12.7865C7.98 12.7866 7.98 12.7868 7.98 12.7869C7.98 12.7871 7.98 12.7872 7.98 12.7874C7.98 12.7875 7.98 12.7877 7.98 12.7878C7.98 12.788 7.98 12.7881 7.98 12.7882C7.98 12.7884 7.98 12.7885 7.98 12.7887C7.98 12.7888 7.98 12.789 7.98 12.7891C7.98 12.7893 7.98 12.7894 7.98 12.7896C7.98 12.7897 7.98 12.7899 7.98 12.79C7.98 12.7901 7.98 12.7903 7.98 12.7904C7.98 12.7906 7.98 12.7907 7.98 12.7909C7.98 12.791 7.98 12.7912 7.98 12.7913C7.98 12.7915 7.98 12.7916 7.98 12.7917C7.98 12.7919 7.98 12.792 7.98 12.7922C7.98 12.7923 7.98 12.7925 7.98 12.7926C7.98 12.7928 7.98 12.7929 7.98 12.7931C7.98 12.7932 7.98 12.7934 7.98 12.7935C7.98 12.7936 7.98 12.7938 7.98 12.7939C7.98 12.7941 7.98 12.7942 7.98 12.7944C7.98 12.7945 7.98 12.7947 7.98 12.7948C7.98 12.795 7.98 12.7951 7.98 12.7953C7.98 12.7954 7.98 12.7955 7.98 12.7957C7.98 12.7958 7.98 12.796 7.98 12.7961C7.98 12.7963 7.98 12.7964 7.98 12.7966C7.98 12.7967 7.98 12.7969 7.98 12.797C7.98 12.7971 7.98 12.7973 7.98 12.7974C7.98 12.7976 7.98 12.7977 7.98 12.7979C7.98 12.798 7.98 12.7982 7.98 12.7983C7.98 12.7985 7.98 12.7986 7.98 12.7988C7.98 12.7989 7.98 12.799 7.98 12.7992C7.98 12.7993 7.98 12.7995 7.98 12.7996C7.98 12.7998 7.98 12.7999 7.98 12.8001C7.98 12.8002 7.98 12.8004 7.98 12.8005C7.98 12.8006 7.98 12.8008 7.98 12.8009C7.98 12.8011 7.98 12.8012 7.98 12.8014C7.98 12.8015 7.98 12.8017 7.98 12.8018C7.98 12.802 7.98 12.8021 7.98 12.8023C7.98 12.8024 7.98 12.8025 7.98 12.8027C7.98 12.8028 7.98 12.803 7.98 12.8031C7.98 12.8033 7.98 12.8034 7.98 12.8036C7.98 12.8037 7.98 12.8039 7.98 12.804H9.98ZM9.98 12.58C9.98 12.4216 9.96431 12.2541 9.92214 12.0855L7.98186 12.5705C7.97933 12.5604 7.97892 12.5557 7.97912 12.5574C7.97931 12.5592 7.98 12.5665 7.98 12.58H9.98ZM9.90068 12.0118C9.90103 12.0128 9.90423 12.0225 9.90793 12.0397C9.91156 12.0567 9.91677 12.086 9.91896 12.1255C9.92308 12.1998 9.9185 12.3511 9.83243 12.5232C9.73779 12.7125 9.58453 12.8467 9.42356 12.921C9.28119 12.9867 9.16432 12.992 9.12 12.992V10.992C8.85595 10.992 8.31738 11.0812 8.04357 11.6288C7.82801 12.0599 7.94847 12.4797 8.00332 12.6442L9.90068 12.0118ZM9.12 12.992C9.04912 12.992 8.94513 12.9787 8.8307 12.9248C8.71311 12.8695 8.62147 12.7886 8.558 12.704C8.44593 12.5546 8.45409 12.4406 8.45795 12.5024L10.4541 12.3776C10.4392 12.1407 10.3821 11.8028 10.158 11.504C9.89236 11.1498 9.5011 10.992 9.12 10.992V12.992ZM8.48586 12.6825C8.48566 12.6817 8.48516 12.6795 8.48472 12.676C8.48429 12.6725 8.484 12.6685 8.484 12.664H10.484C10.484 12.5051 10.464 12.349 10.4261 12.1975L8.48586 12.6825ZM8.51386 12.9065C8.51133 12.8964 8.51092 12.8917 8.51112 12.8934C8.51131 12.8952 8.512 12.9025 8.512 12.916H10.512C10.512 12.7576 10.4963 12.5901 10.4541 12.4215L8.51386 12.9065ZM8.512 12.916C8.512 13.3463 8.37445 13.7598 8.04928 14.1798L9.63072 15.4042C10.2016 14.6668 10.512 13.8297 10.512 12.916H8.512ZM8.04928 14.1798C7.69691 14.635 7.23319 15.022 6.63825 15.3351L7.56975 17.1049C8.39347 16.6714 9.08709 16.1064 9.63072 15.4042L8.04928 14.1798ZM6.6472 15.3304C6.09205 15.6155 5.52938 15.752 4.948 15.752V17.752C5.85996 17.752 6.73462 17.5338 7.5608 17.1096L6.6472 15.3304ZM4.948 15.752C4.35271 15.752 3.7745 15.6085 3.20175 15.3071L2.27025 17.0769C3.11617 17.5221 4.01262 17.752 4.948 17.752V15.752ZM3.21333 15.3133C2.08832 14.7022 1.468 13.6564 1.468 11.908H-0.532C-0.532 14.229 0.359676 16.0392 2.25867 17.0707L3.21333 15.3133ZM1.468 11.908C1.468 10.6409 1.80688 9.40214 2.51078 8.17869L0.777222 7.18131C-0.0868779 8.68319 -0.532 10.2631 -0.532 11.908H1.468ZM2.51062 8.17896C3.15626 7.0576 3.99774 6.07865 5.04225 5.23962L3.78975 3.68038C2.55692 4.67068 1.55041 5.8384 0.777378 7.18103L2.51062 8.17896ZM5.04225 5.23962C6.09738 4.39205 7.25381 3.73633 8.5149 3.2699L7.8211 1.3941C6.35686 1.93567 5.01195 2.69861 3.78975 3.68038L5.04225 5.23962ZM8.52612 3.26567C9.78434 2.78307 11.0166 2.548 12.228 2.548V0.547999C10.7514 0.547999 9.277 0.835594 7.80988 1.39832L8.52612 3.26567ZM12.228 2.548C13.0543 2.548 13.7654 2.68001 14.3766 2.92448L15.1194 1.06752C14.2372 0.714658 13.2684 0.547999 12.228 0.547999V2.548ZM14.3969 2.93233C14.9747 3.14901 15.3958 3.4724 15.7 3.89564L17.324 2.72836C16.7696 1.95694 16.0146 1.40299 15.0991 1.05967L14.3969 2.93233ZM15.7213 3.92417C16.0027 4.28768 16.184 4.80252 16.184 5.552H18.184C18.184 4.47215 17.9173 3.49365 17.3027 2.69983L15.7213 3.92417ZM16.184 5.552C16.184 7.05704 15.4837 9.49138 13.9206 12.9524L15.7434 13.7756C17.3163 10.2926 18.184 7.51896 18.184 5.552H16.184ZM13.9218 12.9499C13.0238 14.9235 12.345 16.4761 11.8892 17.6016C11.6617 18.1631 11.4847 18.6306 11.363 18.997C11.3023 19.1798 11.2513 19.3493 11.2146 19.4998C11.1819 19.6336 11.144 19.8159 11.144 20H13.144C13.144 20.0628 13.1341 20.0697 13.1574 19.9744C13.1767 19.8956 13.2097 19.7818 13.261 19.6275C13.3633 19.3196 13.5223 18.8969 13.7429 18.3524C14.183 17.2659 14.8482 15.7431 15.7422 13.7781L13.9218 12.9499ZM11.144 20C11.144 20.1039 11.1458 20.5141 11.4719 20.8401C11.9153 21.2835 12.4589 21.1471 12.6554 21.0685L11.9126 19.2115C11.9723 19.1876 12.1072 19.1423 12.2893 19.1545C12.4969 19.1683 12.7151 19.2549 12.8861 19.4259C13.0391 19.5789 13.0973 19.7423 13.1198 19.8278C13.1429 19.9156 13.144 19.9799 13.144 20H11.144ZM12.8313 20.977C13.0688 20.8216 13.3788 20.5122 13.6931 20.1814C14.0414 19.815 14.493 19.3147 15.0449 18.6853C16.15 17.425 17.68 15.6207 19.6325 13.2759L18.0955 11.9961C16.1466 14.3367 14.6294 16.1256 13.5411 17.3667C12.9964 17.988 12.5648 18.4654 12.2434 18.8036C12.0823 18.9731 11.955 19.1012 11.8587 19.1923C11.75 19.2952 11.7174 19.3157 11.7368 19.303L12.8313 20.977ZM19.6312 13.2774C21.6222 10.8957 23.2983 8.97933 24.6618 7.52363L23.2022 6.15637C21.8031 7.65 20.1005 9.59767 18.0968 11.9946L19.6312 13.2774ZM24.6615 7.52394C26.0537 6.03892 27.1006 5.06239 27.8208 4.54318L26.6512 2.92082C25.7661 3.55894 24.6103 4.65441 23.2025 6.15606L24.6615 7.52394ZM27.8427 4.52695C28.539 3.99554 29.132 3.57392 29.6248 3.25718L28.5432 1.57482C27.9906 1.93008 27.3517 2.38579 26.6293 2.93705L27.8427 4.52695ZM29.6455 3.24348C30.161 2.89367 30.5607 2.63671 30.851 2.46594L29.837 0.742064C29.4926 0.94462 29.0523 1.22899 28.5225 1.58852L29.6455 3.24348ZM30.8248 2.48081C31.8855 1.89916 32.7831 1.652 33.536 1.652V-0.348001C32.3476 -0.348001 31.1172 0.0395027 29.8632 0.727188L30.8248 2.48081ZM33.536 1.652C33.9192 1.652 34.0892 1.69751 34.1314 1.71508L34.9006 -0.131078C34.4948 -0.300174 34.0115 -0.348001 33.536 -0.348001V1.652ZM34.2219 1.74778C34.1682 1.73125 34.1036 1.70045 34.0409 1.64907C33.9784 1.59774 33.9359 1.54072 33.9097 1.49228C33.8628 1.40568 33.88 1.37172 33.88 1.464H35.88C35.88 1.18295 35.8365 0.850319 35.6683 0.539715C35.4834 0.198285 35.1827 -0.0491295 34.8101 -0.16378L34.2219 1.74778ZM33.88 1.464C33.88 1.50085 33.868 1.35093 33.9948 1.16779C34.0667 1.06393 34.1712 0.968385 34.3044 0.904248C34.4328 0.842439 34.5496 0.827999 34.628 0.827999V2.828C34.9875 2.828 35.3823 2.67726 35.6392 2.30621C35.85 2.00174 35.88 1.66981 35.88 1.464H33.88ZM34.628 0.827999C34.6738 0.827999 34.7087 0.831618 34.7275 0.833971C34.7477 0.83649 34.7618 0.839159 34.7681 0.840418C34.7797 0.842743 34.7794 0.843243 34.7627 0.838474C34.7474 0.834099 34.7243 0.82702 34.6922 0.816315C34.6605 0.805728 34.6225 0.792472 34.5777 0.776205L33.8943 2.65579C34.0075 2.69697 34.116 2.73374 34.2133 2.76152C34.2769 2.77971 34.445 2.828 34.628 2.828V0.827999ZM34.6498 0.805631C34.3274 0.6591 33.9816 0.575999 33.62 0.575999V2.576C33.669 2.576 33.7339 2.58623 33.8222 2.62637L34.6498 0.805631ZM33.62 0.575999C32.4312 0.575999 31.2339 0.924259 30.0406 1.56207L30.9834 3.32593C31.9554 2.80641 32.8301 2.576 33.62 2.576V0.575999ZM30.0406 1.56207C27.736 2.79384 25.1663 4.95546 22.3345 7.97606L23.7935 9.34394C26.5617 6.39121 28.9573 4.40883 30.9834 3.32593L30.0406 1.56207ZM22.3335 7.97712C21.5172 8.85037 20.564 9.92653 19.4752 11.2031L20.9968 12.5009C22.0734 11.2388 23.0055 10.187 23.7945 9.34288L22.3335 7.97712ZM19.4696 11.2096C18.3981 12.488 17.188 13.9796 15.8398 15.6835L17.4082 16.9245C18.748 15.2311 19.9459 13.7547 21.0024 12.4944L19.4696 11.2096ZM15.84 15.6833C14.7796 17.0227 13.9394 18.0466 13.3155 18.7615C13.003 19.1197 12.753 19.3908 12.5621 19.5816C12.3468 19.797 12.2716 19.8432 12.2959 19.8294L13.2801 21.5706C13.5191 21.4355 13.7647 21.2075 13.9764 20.9959C14.2125 20.7597 14.4957 20.451 14.8225 20.0765C15.4773 19.3261 16.3404 18.2733 17.408 16.9247L15.84 15.6833ZM12.2854 19.8355C11.4881 20.299 10.9171 20.6047 10.5542 20.7696L11.3818 22.5904C11.8402 22.382 12.4826 22.0343 13.2906 21.5645L12.2854 19.8355ZM10.504 20.7942C10.3134 20.894 10.1776 20.9615 10.0893 21.0019C10.044 21.0227 10.0251 21.0299 10.0252 21.0299C10.0263 21.0295 10.0306 21.0279 10.0374 21.0257C10.044 21.0236 10.0557 21.02 10.0715 21.0158C10.0866 21.0119 10.1117 21.0058 10.1441 21.0004C10.1741 20.9954 10.2277 20.988 10.296 20.988V22.988C10.5116 22.988 10.6938 22.915 10.7138 22.9076C10.7839 22.8819 10.856 22.8506 10.9227 22.8201C11.0585 22.7578 11.2306 22.6713 11.432 22.5658L10.504 20.7942ZM32.288 21.624L32.3359 22.6229L32.339 22.6227L32.288 21.624ZM25.568 19.3L26.3481 18.6743L25.7336 17.9083L24.9566 18.5087L25.568 19.3ZM21.032 20.588L20.1292 21.0179L20.1333 21.0266L20.1376 21.0352L21.032 20.588ZM21.788 15.436L20.8698 15.0399L20.8664 15.0478L20.8631 15.0558L21.788 15.436ZM24.868 14.26L23.8816 14.4244L23.8834 14.435L23.8854 14.4456L24.868 14.26ZM25.736 17.732L24.8114 18.1127L25.4011 19.5449L26.4636 18.418L25.736 17.732ZM28.032 15.072L27.2638 14.4318L27.2575 14.4395L28.032 15.072ZM31.252 11.012L32.0464 11.6195L32.048 11.6174L31.252 11.012ZM37.272 4.488L37.6251 5.42365L37.6345 5.42L37.272 4.488ZM39.176 4.544L38.576 5.344L38.6128 5.37157L38.6519 5.39566L39.176 4.544ZM38.728 5.636L38.6251 4.64131L38.4341 4.66107L38.264 4.75017L38.728 5.636ZM37.272 6.7L36.6153 5.94592L36.6091 5.95126L36.6031 5.95671L37.272 6.7ZM35.48 8.436L34.7628 7.73921L34.7625 7.73952L35.48 8.436ZM33.744 10.34L34.4952 11.0001L34.5001 10.9946L34.5049 10.9889L33.744 10.34ZM32.428 11.936L31.628 11.336L31.6218 11.3443L31.6158 11.3527L32.428 11.936ZM26.436 18.6L25.7966 17.8312L25.7958 17.8318L26.436 18.6ZM26.268 18.74L25.6278 17.9718L24.9307 18.5527L25.4414 19.3028L26.268 18.74ZM28.424 20.56L28.0526 21.4885L28.0526 21.4885L28.424 20.56ZM36.068 20.28L35.7587 19.3291L35.7518 19.3313L35.7449 19.3337L36.068 20.28ZM40.24 18.012L40.8733 18.786L40.8745 18.7849L40.24 18.012ZM43.32 14.26L42.4425 13.7804L42.4417 13.7819L43.32 14.26ZM43.992 6.868L43.0902 7.30013L43.0938 7.30755L43.992 6.868ZM42.256 4.572L41.5892 5.3173L41.5989 5.32577L42.256 4.572ZM39.876 3.34L39.6629 4.31703L39.6679 4.31811L39.876 3.34ZM28.704 4.992L28.2247 4.11436L28.2238 4.11484L28.704 4.992ZM25.288 10.9L24.5197 11.5402L24.5288 11.5508L25.288 10.9ZM25.764 11.348V12.348L26.1354 10.4195L25.764 11.348ZM25.596 11.348L25.4202 12.3324L25.5074 12.348H25.596V11.348ZM24.252 10.564L23.4974 11.2202L23.4974 11.2202L24.252 10.564ZM24.588 6.476L23.788 5.876L23.7858 5.87899L24.588 6.476ZM27.248 4.236L26.7511 3.36817L26.7459 3.37121L27.248 4.236ZM37.58 2.36L37.6847 1.36549L37.6847 1.36549L37.58 2.36ZM39.68 2.696L39.4687 3.67341L39.4695 3.67358L39.68 2.696ZM42.984 4.18L42.3914 4.98544L42.3914 4.98544L42.984 4.18ZM45.364 6.84L44.4958 7.33614L45.364 6.84ZM45.028 14.568L44.1518 14.0861L44.1493 14.0907L45.028 14.568ZM41.836 18.376L42.4523 19.1635L42.4539 19.1623L41.836 18.376ZM37.468 20.672L37.1617 19.72L37.1518 19.7233L37.468 20.672ZM22.096 20.7L21.2094 21.1626L21.643 21.9935L22.5002 21.6147L22.096 20.7ZM25.008 18.488L25.7093 19.2009L26.2724 18.647L25.8639 17.9709L25.008 18.488ZM23.944 16.22L24.9088 15.9569L24.9088 15.9569L23.944 16.22ZM23.692 14.344L24.6898 14.2775L24.5003 11.4354L22.8716 13.7722L23.692 14.344ZM32.2402 20.6251C29.2956 20.7662 27.4333 20.0271 26.3481 18.6743L24.788 19.9257C26.4281 21.9702 29.0458 22.7805 32.3359 22.6229L32.2402 20.6251ZM24.9566 18.5087C24.1598 19.1244 23.4986 19.563 22.9667 19.8434C22.4127 20.1354 22.0945 20.204 21.956 20.204V22.204C22.5829 22.204 23.2494 21.9552 23.8993 21.6126C24.5714 21.2583 25.3336 20.7449 26.1795 20.0913L24.9566 18.5087ZM21.956 20.204C21.9372 20.204 21.9342 20.2017 21.942 20.204C21.9507 20.2065 21.9618 20.2113 21.9717 20.2179C21.9811 20.2242 21.9812 20.2265 21.9735 20.2173C21.9652 20.2074 21.9482 20.1842 21.9265 20.1408L20.1376 21.0352C20.2996 21.3592 20.5326 21.6622 20.8623 21.8821C21.1983 22.106 21.5757 22.204 21.956 22.204V20.204ZM21.9349 20.1581C21.8169 19.9102 21.752 19.6293 21.752 19.3H19.752C19.752 19.9041 19.8738 20.4818 20.1292 21.0179L21.9349 20.1581ZM21.752 19.3C21.752 18.6099 22.0314 17.4739 22.7129 15.8162L20.8631 15.0558C20.1633 16.7581 19.752 18.1981 19.752 19.3H21.752ZM22.7062 15.8321C23.1029 14.9127 23.4561 14.2912 23.7541 13.9159C24.0804 13.505 24.1842 13.58 24.056 13.58V11.58C23.2372 11.58 22.6176 12.131 22.1879 12.6721C21.73 13.2488 21.2945 14.0553 20.8698 15.0399L22.7062 15.8321ZM24.056 13.58C23.8546 13.58 23.7088 13.4923 23.6392 13.43C23.5851 13.3815 23.5889 13.3612 23.6247 13.4352C23.6976 13.5861 23.7933 13.8945 23.8816 14.4244L25.8544 14.0956C25.7561 13.5055 25.6231 12.9739 25.4254 12.5648C25.2548 12.2119 24.8472 11.58 24.056 11.58V13.58ZM23.8854 14.4456C24.2022 16.1227 24.5066 17.3726 24.8114 18.1127L26.6607 17.3513C26.4428 16.822 26.1685 15.7573 25.8507 14.0744L23.8854 14.4456ZM26.4636 18.418C27.1026 17.7403 27.8847 16.8333 28.8066 15.7045L27.2575 14.4395C26.35 15.5507 25.6014 16.4171 25.0084 17.046L26.4636 18.418ZM28.8003 15.7122C29.7451 14.5784 30.8274 13.2135 32.0464 11.6194L30.4577 10.4045C29.25 11.9839 28.1856 13.3256 27.2638 14.4318L28.8003 15.7122ZM32.048 11.6174C33.5519 9.64 34.7877 8.13079 35.76 7.07715C36.2465 6.54991 36.6545 6.15044 36.9871 5.86751C37.3359 5.57089 37.5414 5.45519 37.6251 5.4236L36.919 3.5524C36.508 3.70748 36.0916 4.00361 35.6914 4.34399C35.2751 4.69806 34.8069 5.16075 34.2901 5.72085C33.2557 6.84187 31.9762 8.408 30.4561 10.4066L32.048 11.6174ZM37.6345 5.42C37.8634 5.33097 38.0768 5.292 38.28 5.292V3.292C37.8112 3.292 37.3526 3.38369 36.9096 3.556L37.6345 5.42ZM38.28 5.292C38.5086 5.292 38.5748 5.34307 38.576 5.344L39.776 3.744C39.3293 3.40893 38.7981 3.292 38.28 3.292V5.292ZM38.6519 5.39566C38.6909 5.41962 38.6636 5.41191 38.6237 5.35368C38.6027 5.32295 38.5805 5.28127 38.5641 5.22949C38.5475 5.17732 38.54 5.12483 38.54 5.076H40.54C40.54 4.39658 40.1115 3.94548 39.7001 3.69234L38.6519 5.39566ZM38.54 5.076C38.54 5.00862 38.5557 4.91423 38.6083 4.81637C38.6601 4.71986 38.7259 4.66075 38.7693 4.63079C38.8085 4.60372 38.8256 4.60282 38.7969 4.61137C38.7694 4.61961 38.7149 4.63203 38.6251 4.64131L38.8309 6.63069C39.1716 6.59544 39.5688 6.50893 39.9048 6.27721C40.2991 6.00525 40.54 5.57735 40.54 5.076H38.54ZM38.264 4.75017C37.7704 5.00875 37.2166 5.42217 36.6153 5.94592L37.9288 7.45408C38.4848 6.96983 38.9017 6.67391 39.192 6.52183L38.264 4.75017ZM36.6031 5.95671C36.0234 6.47836 35.4099 7.07302 34.7628 7.73921L36.1973 9.13279C36.8195 8.49231 37.4006 7.92964 37.941 7.44329L36.6031 5.95671ZM34.7625 7.73952C34.1324 8.38865 33.5392 9.03914 32.9832 9.69105L34.5049 10.9889C35.0315 10.3715 35.5956 9.75268 36.1976 9.13247L34.7625 7.73952ZM32.9929 9.67988C32.4415 10.3073 31.9848 10.8603 31.628 11.336L33.228 12.536C33.5432 12.1157 33.9639 11.6047 34.4952 11.0001L32.9929 9.67988ZM31.6158 11.3527C29.6532 14.0856 27.7118 16.2381 25.7966 17.8312L27.0755 19.3688C29.1549 17.6392 31.2082 15.3491 33.2403 12.5193L31.6158 11.3527ZM25.7958 17.8318L25.6278 17.9718L26.9082 19.5082L27.0762 19.3682L25.7958 17.8318ZM25.4414 19.3028C26.1309 20.3155 26.9977 21.0665 28.0526 21.4885L28.7954 19.6315C28.1704 19.3815 27.5998 18.9192 27.0946 18.1772L25.4414 19.3028ZM28.0526 21.4885C29.0256 21.8777 30.0872 22.064 31.224 22.064V20.064C30.3076 20.064 29.5025 19.9143 28.7954 19.6315L28.0526 21.4885ZM31.224 22.064C33.0271 22.064 34.7513 21.7863 36.3912 21.2263L35.7449 19.3337C34.3234 19.819 32.8183 20.064 31.224 20.064V22.064ZM36.3774 21.2309C38.0419 20.6895 39.5429 19.8744 40.8733 18.786L39.6068 17.238C38.4731 18.1656 37.1928 18.8625 35.7587 19.3291L36.3774 21.2309ZM40.8745 18.7849C42.2284 17.6735 43.3365 16.3215 44.1984 14.7381L42.4417 13.7819C41.6982 15.1479 40.753 16.2972 39.6055 17.2391L40.8745 18.7849ZM44.1975 14.7396C45.135 13.0242 45.636 11.3293 45.636 9.668H43.636C43.636 10.9187 43.2597 12.2851 42.4425 13.7804L44.1975 14.7396ZM45.636 9.668C45.636 8.52834 45.3874 7.44445 44.8902 6.42845L43.0938 7.30755C43.4553 8.04622 43.636 8.82899 43.636 9.668H45.636ZM44.8938 6.43588C44.4074 5.42074 43.7467 4.54494 42.9132 3.81823L41.5989 5.32577C42.2213 5.8684 42.718 6.52326 43.0902 7.30012L44.8938 6.43588ZM42.9228 3.82676C42.0918 3.08317 41.1426 2.58709 40.0841 2.36189L39.6679 4.31811C40.3642 4.46624 41.0016 4.79149 41.5892 5.31724L42.9228 3.82676ZM40.0892 2.36298C38.9881 2.12274 37.843 2.004 36.656 2.004V4.004C37.709 4.004 38.7107 4.10926 39.6629 4.31701L40.0892 2.36298ZM36.656 2.004C33.6208 2.004 30.8043 2.7055 28.2247 4.11436L29.1834 5.86964C31.4571 4.62783 33.942 4.004 36.656 4.004V2.004ZM28.2238 4.11484C25.5735 5.56577 23.868 7.39334 23.868 9.696H25.868C25.868 8.52666 26.7199 7.21823 29.1842 5.86916L28.2238 4.11484ZM23.868 9.696C23.868 10.3797 24.0796 11.0119 24.5198 11.5402L26.0563 10.2598C25.9365 10.1161 25.868 9.94563 25.868 9.696H23.868ZM24.5288 11.5508C24.6524 11.695 24.7739 11.8273 24.8897 11.9362C24.9787 12.02 25.1581 12.1826 25.3926 12.2765L26.1354 10.4195C26.1832 10.4386 26.2179 10.4578 26.2378 10.4696C26.2584 10.4819 26.2717 10.4915 26.277 10.4954C26.2865 10.5024 26.2816 10.4998 26.2604 10.4798C26.2174 10.4394 26.1477 10.3663 26.0473 10.2492L24.5288 11.5508ZM25.764 10.348H25.596V12.348H25.764V10.348ZM25.7718 10.3636C25.4906 10.3134 25.2417 10.1781 25.0066 9.90782L23.4974 11.2202C24.0091 11.8086 24.6561 12.196 25.4202 12.3324L25.7718 10.3636ZM25.0066 9.90782C24.7764 9.64308 24.692 9.39542 24.692 9.136H22.692C22.692 9.92192 22.981 10.6263 23.4974 11.2202L25.0066 9.90782ZM24.692 9.136C24.692 8.38742 24.9171 7.70882 25.3903 7.07301L23.7858 5.87899C23.0643 6.84851 22.692 7.94324 22.692 9.136H24.692ZM25.388 7.076C25.9031 6.38926 26.6753 5.72491 27.7502 5.10079L26.7459 3.37121C25.5061 4.09109 24.505 4.92008 23.788 5.876L25.388 7.076ZM27.7449 5.10381C29.8828 3.87972 32.4397 3.248 35.452 3.248V1.248C32.1551 1.248 29.2426 1.94161 26.7511 3.36819L27.7449 5.10381ZM35.452 3.248C36.1262 3.248 36.8006 3.28348 37.4753 3.3545L37.6847 1.36549C36.9408 1.28719 36.1965 1.248 35.452 1.248V3.248ZM37.4753 3.3545C38.1492 3.42543 38.8136 3.53176 39.4687 3.67341L39.8914 1.71859C39.1652 1.56157 38.4295 1.4439 37.6847 1.36549L37.4753 3.3545ZM39.4695 3.67358C40.5462 3.90549 41.517 4.34206 42.3914 4.98544L43.5767 3.37456C42.4724 2.56193 41.2405 2.00918 39.8906 1.71842L39.4695 3.67358ZM42.3914 4.98544C43.2706 5.63242 43.9691 6.4145 44.4958 7.33614L46.2323 6.34386C45.5643 5.17483 44.6761 4.18358 43.5767 3.37456L42.3914 4.98544ZM44.4958 7.33614C45.0061 8.22914 45.26 9.18727 45.26 10.228H47.26C47.26 8.84206 46.9167 7.54152 46.2323 6.34386L44.4958 7.33614ZM45.26 10.228C45.26 11.4265 44.9095 12.7085 44.1518 14.0861L45.9042 15.0499C46.7893 13.4408 47.26 11.8295 47.26 10.228H45.26ZM44.1493 14.0907C43.3906 15.4873 42.414 16.6502 41.2182 17.5897L42.4539 19.1623C43.8714 18.0485 45.0228 16.6727 45.9068 15.0453L44.1493 14.0907ZM41.2197 17.5885C40.0285 18.5208 38.6784 19.232 37.1617 19.7201L37.7744 21.6239C39.5057 21.0667 41.0676 20.2472 42.4523 19.1635L41.2197 17.5885ZM37.1518 19.7233C35.6193 20.2341 33.9824 20.5363 32.2371 20.6253L32.339 22.6227C34.2523 22.5251 36.0687 22.1925 37.7843 21.6207L37.1518 19.7233ZM22.5002 21.6147C23.4694 21.1864 24.5432 20.3479 25.7093 19.2009L24.3068 17.7751C23.1955 18.8681 22.328 19.5042 21.6919 19.7853L22.5002 21.6147ZM25.8639 17.9709C25.3441 17.1105 25.0419 16.445 24.9088 15.9569L22.9793 16.4831C23.1821 17.227 23.5893 18.0735 24.1521 19.0051L25.8639 17.9709ZM24.9088 15.9569C24.824 15.646 24.7448 15.1022 24.6898 14.2775L22.6942 14.4105C22.7513 15.2658 22.8401 15.9727 22.9793 16.4831L24.9088 15.9569ZM22.8716 13.7722C21.5339 15.6916 20.76 17.5098 20.76 19.188H22.76C22.76 18.1035 23.2742 16.6924 24.5124 14.9158L22.8716 13.7722ZM20.76 19.188C20.76 19.8965 20.8977 20.5651 21.2094 21.1626L22.9826 20.2374C22.8463 19.9762 22.76 19.6368 22.76 19.188H20.76Z" fill="#00BC91" mask="url(#path-1-outside-1_6_2)"/>
</svg>
