<svg width="179" height="32" viewBox="0 0 179 32" fill="none" xmlns="http://www.w3.org/2000/svg">
<mask id="path-1-outside-1_1_6" maskUnits="userSpaceOnUse" x="0.0482483" y="0.888" width="179" height="31" fill="black">
<rect fill="white" x="0.0482483" y="0.888" width="179" height="31"/>
<path d="M12.2802 26.272C12.1736 26.272 12.1202 26.1653 12.1202 25.952C12.1202 25.248 12.7176 23.456 13.9122 20.576C14.2749 19.744 14.6376 18.912 15.0002 18.08C15.3629 17.248 15.7149 16.416 16.0562 15.584L17.5282 11.264C17.7629 10.5387 17.9442 9.92 18.0722 9.408C18.2216 8.87467 18.2962 8.43733 18.2962 8.096C18.2962 6.60267 17.8696 5.48267 17.0162 4.736C16.1629 3.968 15.0322 3.584 13.6242 3.584C12.3016 3.584 10.9896 3.88267 9.68825 4.48C8.40825 5.056 7.23492 5.84534 6.16825 6.848C5.12291 7.85067 4.28025 8.97067 3.64025 10.208C2.72291 11.9573 2.26425 13.5573 2.26425 15.008C2.26425 16.0107 2.50958 16.9173 3.00025 17.728C3.49092 18.5387 4.13092 19.0933 4.92025 19.392C5.47492 19.584 6.01892 19.68 6.55225 19.68C7.29892 19.68 7.99225 19.52 8.63225 19.2C9.27225 18.8587 9.78425 18.3893 10.1682 17.792C10.5736 17.1947 10.7762 16.5227 10.7762 15.776C10.7762 15.6907 10.7762 15.6053 10.7762 15.52C10.7762 15.4133 10.7656 15.3173 10.7442 15.232C10.6589 14.976 10.7229 14.848 10.9362 14.848C11.1709 14.848 11.2989 15.0187 11.3202 15.36C11.3416 15.4453 11.3522 15.5307 11.3522 15.616C11.3736 15.7013 11.3842 15.7973 11.3842 15.904C11.3842 16.672 11.1282 17.3867 10.6162 18.048C10.1042 18.7093 9.44292 19.2533 8.63225 19.68C7.84292 20.0853 7.02158 20.288 6.16825 20.288C5.29358 20.288 4.45091 20.0747 3.64025 19.648C1.91225 18.7093 1.04825 17.0773 1.04825 14.752C1.04825 13.088 1.49625 11.4773 2.39225 9.92C3.20292 8.512 4.25891 7.28533 5.56025 6.24C6.86158 5.19467 8.29092 4.384 9.84825 3.808C11.4056 3.21067 12.9522 2.912 14.4882 2.912C15.5549 2.912 16.5149 3.08267 17.3682 3.424C18.2216 3.744 18.8936 4.24533 19.3842 4.928C19.8962 5.58934 20.1522 6.44267 20.1522 7.488C20.1522 9.472 19.2562 12.448 17.4642 16.416C15.4162 20.9173 14.3922 23.4453 14.3922 24C14.3922 24.1493 14.4456 24.2027 14.5522 24.16C15.1069 23.7973 17.6136 20.9387 22.0722 15.584C24.3549 12.8533 26.2856 10.6453 27.8643 8.96C29.4642 7.25333 30.7229 6.06933 31.6402 5.408C32.4509 4.78933 33.1549 4.288 33.7523 3.904C34.3496 3.49867 34.8296 3.18933 35.1923 2.976C36.5149 2.25067 37.7309 1.888 38.8403 1.888C39.3309 1.888 39.7043 1.94133 39.9603 2.048C40.2376 2.13333 40.3763 2.38933 40.3763 2.816C40.3763 3.09333 40.2803 3.232 40.0883 3.232C40.0243 3.232 39.8749 3.18933 39.6403 3.104C39.4056 2.99733 39.1709 2.944 38.9363 2.944C37.8056 2.944 36.6216 3.27467 35.3843 3.936C32.9096 5.25867 30.0722 7.62667 26.8722 11.04C25.9549 12.0213 24.8776 13.2373 23.6402 14.688C22.4242 16.1387 21.0482 17.8347 19.5122 19.776C17.0802 22.848 15.6189 24.5227 15.1282 24.8C14.2109 25.3333 13.5176 25.7067 13.0482 25.92C12.6002 26.1547 12.3442 26.272 12.2802 26.272Z"/>
<path d="M30.822 12.992C30.4593 12.992 30.1393 12.8747 29.862 12.64C29.606 12.4053 29.478 12.1387 29.478 11.84C29.478 11.2427 29.8833 10.944 30.694 10.944C30.9927 10.944 31.2913 11.0507 31.59 11.264C31.8887 11.456 32.038 11.7013 32.038 12C32.038 12.256 31.8993 12.4907 31.622 12.704C31.3447 12.896 31.078 12.992 30.822 12.992ZM24.902 24.352C24.4327 24.352 24.0487 24.2027 23.75 23.904C23.43 23.584 23.27 23.0293 23.27 22.24C23.27 21.792 23.3767 21.28 23.59 20.704C23.782 20.1067 24.0273 19.5093 24.326 18.912C24.646 18.3147 24.9553 17.7813 25.254 17.312C26.4487 15.3707 27.43 14.3893 28.198 14.368C28.39 14.368 28.6247 14.4533 28.902 14.624C29.1793 14.7733 29.318 14.944 29.318 15.136C29.318 15.136 28.5073 16.1813 26.886 18.272C25.286 20.3413 24.486 21.8133 24.486 22.688C24.486 23.3707 24.7527 23.712 25.286 23.712C25.6273 23.712 26.0647 23.5733 26.598 23.296C27.1527 22.9973 27.7287 22.624 28.326 22.176C28.9233 21.728 29.4887 21.248 30.022 20.736C30.5767 20.224 31.0247 19.7547 31.366 19.328C31.5793 19.0507 31.7607 18.8587 31.91 18.752C32.0807 18.6453 32.1873 18.592 32.23 18.592C32.3153 18.592 32.358 18.656 32.358 18.784C32.358 18.8907 32.23 19.104 31.974 19.424C31.7393 19.744 31.4087 20.1173 30.982 20.544C30.47 21.056 29.9047 21.6107 29.286 22.208C28.6673 22.8053 27.9953 23.3173 27.27 23.744C26.5447 24.1493 25.7553 24.352 24.902 24.352Z"/>
<path d="M33.1127 24.16C32.4727 24.16 31.9287 23.9893 31.4807 23.648C31.0327 23.2853 30.7767 22.848 30.7127 22.336C30.6274 21.6533 30.7234 20.9707 31.0007 20.288C31.2994 19.584 31.6941 18.912 32.1847 18.272C32.6967 17.632 33.2407 17.0347 33.8167 16.48C36.0781 14.2187 38.1154 13.088 39.9287 13.088C40.5474 13.088 40.9634 13.248 41.1768 13.568C41.2621 13.6747 41.3581 13.92 41.4647 14.304C43.8541 10.4213 45.5181 8.48 46.4567 8.48C46.6701 8.48 46.8941 8.53333 47.1287 8.64C47.3634 8.74667 47.4808 8.88533 47.4808 9.056C47.4808 9.16267 47.4274 9.30133 47.3208 9.472C46.6808 10.2613 46.0407 11.0507 45.4007 11.84C44.7607 12.608 44.1314 13.3867 43.5127 14.176C42.4674 15.4987 41.6247 16.6507 40.9847 17.632C40.3447 18.6133 39.8861 19.4453 39.6087 20.128C39.5234 20.3413 39.4381 20.608 39.3527 20.928C39.2887 21.2267 39.2567 21.536 39.2567 21.856C39.2567 22.2613 39.3421 22.6133 39.5127 22.912C39.6834 23.2107 39.9928 23.36 40.4408 23.36C41.1448 23.36 42.0087 23.0187 43.0327 22.336C44.0567 21.6533 45.2514 20.5333 46.6167 18.976C46.7021 18.8907 46.7767 18.816 46.8407 18.752C46.9261 18.688 47.0114 18.6453 47.0967 18.624C47.2887 18.5813 47.3848 18.624 47.3848 18.752C47.3848 18.816 47.3207 18.9333 47.1927 19.104C46.5314 19.8933 45.7954 20.672 44.9847 21.44C44.1741 22.208 43.3421 22.848 42.4888 23.36C41.6568 23.8507 40.8781 24.096 40.1527 24.096C39.4274 24.096 38.9154 23.8507 38.6167 23.36C38.3181 22.8693 38.1687 22.3147 38.1687 21.696C38.1687 21.056 38.2861 20.4693 38.5207 19.936L35.9287 22.528C35.3527 23.104 34.8194 23.52 34.3287 23.776C33.8594 24.032 33.4541 24.16 33.1127 24.16ZM32.8247 23.456C33.7421 23.456 35.2674 22.1973 37.4007 19.68C37.5074 19.552 37.8807 19.0827 38.5207 18.272C39.1607 17.44 40.0674 16.2347 41.2407 14.656C41.0914 14.4 40.8354 14.272 40.4727 14.272C39.1501 14.272 37.3794 15.3173 35.1607 17.408C33.0701 19.3493 32.0247 20.9813 32.0247 22.304C32.0247 23.072 32.2914 23.456 32.8247 23.456Z"/>
<path d="M45.0422 24.16C44.4236 24.16 44.1143 23.9787 44.1143 23.616C44.1143 23.4027 44.2422 23.0613 44.4982 22.592C45.4796 20.8427 46.3542 19.296 47.1222 17.952C47.9116 16.5867 48.6049 15.4347 49.2022 14.496C51.7409 10.4213 53.5329 8.21333 54.5783 7.872C54.6209 7.872 54.6529 7.872 54.6742 7.872C54.6956 7.85067 54.7169 7.84 54.7383 7.84C55.0156 7.84 55.1969 8.064 55.2822 8.512C55.2182 8.96 54.1089 10.5813 51.9543 13.376C50.8236 14.8053 49.9382 15.9893 49.2982 16.928C48.6796 17.8453 48.2956 18.5173 48.1462 18.944C48.8502 18.432 49.6076 17.888 50.4182 17.312C51.2289 16.736 52.0182 16.192 52.7862 15.68C53.5542 15.1467 54.2476 14.72 54.8662 14.4C55.4849 14.0587 55.9649 13.8667 56.3062 13.824C56.3489 13.824 56.4022 13.824 56.4662 13.824C56.5302 13.8027 56.5729 13.792 56.5942 13.792C57.1916 13.792 57.4902 14.0693 57.4902 14.624C57.4902 14.7733 57.2982 15.104 56.9142 15.616C56.5302 16.128 55.9436 16.9173 55.1542 17.984C53.7462 19.8613 53.0422 21.2693 53.0422 22.208C53.0422 22.6987 53.2236 22.944 53.5863 22.944C53.9703 22.9227 54.4076 22.752 54.8983 22.432C55.4103 22.112 55.9222 21.7173 56.4342 21.248C56.9462 20.7787 57.4049 20.32 57.8102 19.872C58.2369 19.4027 58.5569 19.04 58.7702 18.784C58.9622 18.592 59.1116 18.496 59.2183 18.496C59.3036 18.496 59.3462 18.5387 59.3462 18.624C59.3462 18.7947 59.2609 18.9973 59.0902 19.232C58.8342 19.552 58.4502 19.968 57.9382 20.48C57.4476 20.992 56.9036 21.5147 56.3062 22.048C55.7302 22.56 55.1756 22.9973 54.6423 23.36C54.1303 23.7013 53.7462 23.872 53.4902 23.872C52.2316 23.872 51.6022 23.136 51.6022 21.664C51.6022 20.832 51.9862 19.744 52.7542 18.4C53.0529 17.888 53.3622 17.376 53.6822 16.864C54.0022 16.352 54.3223 15.84 54.6423 15.328C51.9116 16.6933 49.4369 18.7093 47.2182 21.376C46.9409 21.76 46.6529 22.176 46.3542 22.624C46.0556 23.0507 45.7889 23.4133 45.5542 23.712C45.3196 24.0107 45.1489 24.16 45.0422 24.16Z"/>
<path d="M58.6735 30.56C57.9908 30.56 57.3935 30.272 56.8815 29.696C56.3695 29.0987 56.1242 28.4373 56.1455 27.712C56.4015 28.032 56.7428 28.4053 57.1695 28.832C57.7242 29.3653 58.2682 29.632 58.8015 29.632C60.0175 29.632 61.3295 28.6613 62.7375 26.72C63.2282 26.0373 63.7295 25.2373 64.2415 24.32C64.7748 23.424 65.2762 22.4213 65.7455 21.312L66.9615 18.368L62.2575 22.048C60.8068 23.1787 59.6442 23.744 58.7695 23.744C58.3002 23.744 57.9268 23.5733 57.6495 23.232C57.3722 22.8907 57.2335 22.5387 57.2335 22.176C57.2335 21.2587 58.0228 19.7547 59.6015 17.664C61.1802 15.552 62.3642 14.496 63.1535 14.496C63.8148 14.496 64.1455 14.7413 64.1455 15.232C64.1455 15.424 63.1962 16.5333 61.2975 18.56C59.4202 20.5653 58.4815 21.92 58.4815 22.624C58.4815 22.9013 58.6628 23.04 59.0255 23.04C59.7082 23.04 61.1908 22.1547 63.4735 20.384C64.4122 19.6373 65.2442 18.9547 65.9695 18.336C66.6948 17.7173 67.3028 17.1627 67.7935 16.672C67.9642 16.4587 68.1348 16.256 68.3055 16.064C68.4762 15.8507 68.6362 15.6373 68.7855 15.424C69.1908 14.9547 69.5962 14.72 70.0015 14.72C70.5775 14.72 70.8655 14.9547 70.8655 15.424C70.8655 15.5093 70.4175 16.2133 69.5215 17.536C69.0522 18.2613 68.6788 18.8267 68.4015 19.232C68.1242 19.616 67.9642 19.8613 67.9215 19.968C67.2602 21.248 66.2468 23.1147 64.8815 25.568C62.8122 28.896 60.7428 30.56 58.6735 30.56Z"/>
<path d="M71.9252 24.16C71.4132 24.16 70.9013 23.9787 70.3893 23.616C69.8773 23.2533 69.5892 22.8267 69.5252 22.336C69.3119 20.6933 70.3466 18.7413 72.6292 16.48C74.8906 14.2187 76.9279 13.088 78.7412 13.088C79.2319 13.088 79.6159 13.2053 79.8932 13.44C80.0426 13.5893 80.1492 13.792 80.2132 14.048C80.2986 14.304 80.3626 14.432 80.4053 14.432C80.4906 14.432 80.5652 14.4213 80.6292 14.4C80.6932 14.3573 80.7679 14.336 80.8532 14.336C81.1092 14.336 81.3332 14.432 81.5252 14.624C81.7172 14.816 81.8239 14.9867 81.8452 15.136C81.8666 15.1787 81.1839 16.2347 79.7972 18.304C78.4106 20.3307 77.7812 21.7067 77.9092 22.432C78.0159 22.9227 78.2506 23.168 78.6133 23.168C79.7226 23.168 81.7493 21.3333 84.6933 17.664C84.7573 17.5787 84.8212 17.536 84.8852 17.536C84.9919 17.536 85.0452 17.6107 85.0452 17.76C85.0452 17.9307 84.9492 18.144 84.7572 18.4C82.0479 22.048 79.9679 23.872 78.5173 23.872C78.3252 23.872 78.1439 23.84 77.9733 23.776C77.0346 23.4133 76.5652 22.7093 76.5652 21.664C76.5652 21.3013 76.6079 20.9387 76.6932 20.576L74.7093 22.496C74.1119 23.0933 73.5679 23.52 73.0772 23.776C72.6079 24.032 72.2239 24.16 71.9252 24.16ZM71.6372 23.456C72.8746 23.456 74.5599 22.1013 76.6932 19.392L80.0853 14.72C79.9146 14.4213 79.6373 14.272 79.2533 14.272C77.9519 14.272 76.1919 15.3173 73.9733 17.408C71.6693 19.5413 70.6346 21.3013 70.8692 22.688C70.9759 23.2 71.2319 23.456 71.6372 23.456Z"/>
<path d="M96.6328 25.856C93.0701 26.0267 90.5101 25.1413 88.9528 23.2C87.0754 24.6507 85.6994 25.376 84.8247 25.376C84.3554 25.376 84.0034 25.1413 83.7687 24.672C83.5554 24.224 83.4487 23.7333 83.4487 23.2C83.4487 22.176 83.8434 20.704 84.6328 18.784C85.5714 16.608 86.4354 15.52 87.2247 15.52C87.6301 15.52 87.9394 16.16 88.1527 17.44C88.5154 19.36 88.8461 20.6827 89.1447 21.408C89.8487 20.6613 90.7234 19.648 91.7687 18.368C92.8354 17.088 94.0621 15.5413 95.4487 13.728C98.9047 9.184 101.198 6.69867 102.329 6.272C102.713 6.12267 103.097 6.048 103.481 6.048C103.907 6.048 104.249 6.144 104.505 6.336C104.782 6.50667 104.921 6.70933 104.921 6.944C104.921 7.30667 104.611 7.52 103.993 7.584C103.545 7.81867 102.99 8.224 102.329 8.8C101.689 9.376 101.006 10.0373 100.281 10.784C99.5767 11.5093 98.9154 12.2347 98.2968 12.96C97.6781 13.664 97.1767 14.272 96.7927 14.784C94.5101 17.9627 92.2274 20.5013 89.9447 22.4L89.7527 22.56C90.4354 23.5627 91.2568 24.256 92.2168 24.64C93.1768 25.024 94.2434 25.216 95.4167 25.216C97.3581 25.216 99.2034 24.9173 100.953 24.32C102.723 23.744 104.313 22.88 105.721 21.728C107.15 20.5547 108.323 19.1253 109.241 17.44C110.243 15.6053 110.745 13.856 110.745 12.192C110.745 11.0613 110.499 9.99467 110.009 8.992C109.518 7.968 108.857 7.09333 108.025 6.368C107.214 5.64267 106.307 5.17333 105.305 4.96C104.131 4.704 102.905 4.576 101.625 4.576C98.3394 4.576 95.3101 5.33333 92.5368 6.848C89.6141 8.448 88.1527 10.24 88.1527 12.224C88.1527 12.7573 88.3128 13.216 88.6328 13.6C88.8888 13.8987 89.0701 14.0693 89.1768 14.112H88.9847C88.3874 14.0053 87.8754 13.7067 87.4487 13.216C87.0221 12.7253 86.8087 12.1813 86.8087 11.584C86.8087 10.4747 87.1501 9.46133 87.8327 8.544C88.5367 7.60533 89.5501 6.752 90.8727 5.984C93.5181 4.46933 96.6434 3.712 100.249 3.712C101.059 3.712 101.87 3.75467 102.681 3.84C103.491 3.92533 104.291 4.05333 105.081 4.224C106.467 4.52267 107.726 5.088 108.857 5.92C109.987 6.752 110.894 7.76533 111.577 8.96C112.259 10.1547 112.601 11.4453 112.601 12.832C112.601 14.432 112.131 16.0853 111.193 17.792C110.254 19.52 109.038 20.9707 107.545 22.144C106.073 23.296 104.409 24.1707 102.553 24.768C100.697 25.3867 98.7234 25.7493 96.6328 25.856ZM84.9847 24.8C85.9021 24.3947 87.0114 23.552 88.3128 22.272C87.6941 21.248 87.2887 20.384 87.0967 19.68C86.9687 19.2107 86.8727 18.496 86.8087 17.536C85.3367 19.648 84.6007 21.4933 84.6007 23.072C84.6007 23.7333 84.7287 24.3093 84.9847 24.8Z"/>
<path d="M111.574 24.16C110.955 24.16 110.646 23.9787 110.646 23.616C110.646 23.4027 110.773 23.0613 111.029 22.592C112.011 20.8427 112.885 19.296 113.653 17.952C114.443 16.5867 115.136 15.4347 115.733 14.496C118.272 10.4213 120.064 8.21333 121.109 7.872C121.152 7.872 121.184 7.872 121.205 7.872C121.227 7.85067 121.248 7.84 121.27 7.84C121.547 7.84 121.728 8.064 121.813 8.512C121.749 8.96 120.64 10.5813 118.485 13.376C117.355 14.8053 116.469 15.9893 115.829 16.928C115.211 17.8453 114.827 18.5173 114.677 18.944C115.381 18.432 116.139 17.888 116.95 17.312C117.76 16.736 118.549 16.192 119.317 15.68C120.085 15.1467 120.779 14.72 121.397 14.4C122.016 14.0587 122.496 13.8667 122.838 13.824C122.88 13.824 122.933 13.824 122.997 13.824C123.061 13.8027 123.104 13.792 123.125 13.792C123.723 13.792 124.021 14.0693 124.021 14.624C124.021 14.7733 123.829 15.104 123.445 15.616C123.061 16.128 122.475 16.9173 121.686 17.984C120.278 19.8613 119.574 21.2693 119.574 22.208C119.574 22.6987 119.755 22.944 120.118 22.944C120.502 22.9227 120.939 22.752 121.429 22.432C121.941 22.112 122.453 21.7173 122.965 21.248C123.477 20.7787 123.936 20.32 124.341 19.872C124.768 19.4027 125.088 19.04 125.301 18.784C125.493 18.592 125.643 18.496 125.749 18.496C125.835 18.496 125.878 18.5387 125.878 18.624C125.878 18.7947 125.792 18.9973 125.621 19.232C125.365 19.552 124.981 19.968 124.469 20.48C123.979 20.992 123.435 21.5147 122.838 22.048C122.262 22.56 121.707 22.9973 121.174 23.36C120.662 23.7013 120.277 23.872 120.021 23.872C118.763 23.872 118.133 23.136 118.133 21.664C118.133 20.832 118.517 19.744 119.285 18.4C119.584 17.888 119.894 17.376 120.214 16.864C120.534 16.352 120.854 15.84 121.174 15.328C118.443 16.6933 115.968 18.7093 113.749 21.376C113.472 21.76 113.184 22.176 112.885 22.624C112.587 23.0507 112.32 23.4133 112.085 23.712C111.851 24.0107 111.68 24.16 111.574 24.16Z"/>
<path d="M126.613 24.16C126.101 24.16 125.589 23.9787 125.077 23.616C124.565 23.2533 124.277 22.8267 124.213 22.336C123.999 20.6933 125.034 18.7413 127.317 16.48C129.578 14.2187 131.615 13.088 133.429 13.088C133.919 13.088 134.303 13.2053 134.581 13.44C134.73 13.5893 134.837 13.792 134.901 14.048C134.986 14.304 135.05 14.432 135.093 14.432C135.178 14.432 135.253 14.4213 135.317 14.4C135.381 14.3573 135.455 14.336 135.541 14.336C135.797 14.336 136.021 14.432 136.213 14.624C136.405 14.816 136.511 14.9867 136.533 15.136C136.554 15.1787 135.871 16.2347 134.485 18.304C133.098 20.3307 132.469 21.7067 132.597 22.432C132.703 22.9227 132.938 23.168 133.301 23.168C134.41 23.168 136.437 21.3333 139.381 17.664C139.445 17.5787 139.509 17.536 139.573 17.536C139.679 17.536 139.733 17.6107 139.733 17.76C139.733 17.9307 139.637 18.144 139.445 18.4C136.735 22.048 134.655 23.872 133.205 23.872C133.013 23.872 132.831 23.84 132.661 23.776C131.722 23.4133 131.253 22.7093 131.253 21.664C131.253 21.3013 131.295 20.9387 131.381 20.576L129.397 22.496C128.799 23.0933 128.255 23.52 127.765 23.776C127.295 24.032 126.911 24.16 126.613 24.16ZM126.325 23.456C127.562 23.456 129.247 22.1013 131.381 19.392L134.773 14.72C134.602 14.4213 134.325 14.272 133.941 14.272C132.639 14.272 130.879 15.3173 128.661 17.408C126.357 19.5413 125.322 21.3013 125.557 22.688C125.663 23.2 125.919 23.456 126.325 23.456Z"/>
<path d="M144.184 24.16C143.267 24.16 142.638 23.9253 142.296 23.456C141.955 22.9653 141.784 22.3147 141.784 21.504C141.784 20.608 142.062 19.5413 142.616 18.304C142.83 17.8133 143.054 17.376 143.288 16.992C143.523 16.5867 143.768 16.2133 144.024 15.872C143.939 15.8933 143.864 15.904 143.8 15.904C143.736 15.904 143.672 15.904 143.608 15.904C143.096 15.904 142.67 15.5413 142.328 14.816L139.96 17.888C138.702 19.5307 137.934 20.352 137.656 20.352C137.55 20.352 137.496 20.3093 137.496 20.224C137.496 20.1173 137.55 19.9787 137.656 19.808C137.72 19.68 137.848 19.5093 138.04 19.296C138.851 18.3573 139.598 17.4293 140.28 16.512C140.963 15.5947 141.528 14.6987 141.976 13.824C142.467 11.968 143.086 11.04 143.832 11.04C144.323 11.04 144.568 11.264 144.568 11.712C144.568 12.1173 144.302 12.6507 143.768 13.312C143.256 13.9733 143 14.3147 143 14.336C143 14.784 143.331 15.008 143.992 15.008C144.376 15.008 144.803 14.8693 145.272 14.592L146.104 14.08C146.147 14.0587 146.211 14.048 146.296 14.048C146.552 14.048 146.776 14.1547 146.968 14.368C147.16 14.5813 147.224 14.7733 147.16 14.944L144.952 17.728C143.587 19.4773 142.904 20.8853 142.904 21.952C142.904 22.912 143.374 23.392 144.312 23.392C144.952 23.392 145.635 23.2 146.36 22.816C147.107 22.432 147.822 21.9627 148.504 21.408C149.208 20.832 149.795 20.2773 150.264 19.744L151.032 18.848C151.075 18.8053 151.128 18.752 151.192 18.688C151.256 18.624 151.31 18.592 151.352 18.592C151.502 18.592 151.576 18.6667 151.576 18.816C151.576 18.8587 151.555 18.9333 151.512 19.04C151.47 19.1467 151.395 19.264 151.288 19.392L150.264 20.544C149.774 21.0987 149.166 21.664 148.44 22.24C147.736 22.7947 147 23.2533 146.232 23.616C145.486 23.9787 144.803 24.16 144.184 24.16Z"/>
<path d="M152.394 24.16C151.882 24.16 151.37 23.9787 150.858 23.616C150.346 23.2533 150.058 22.8267 149.994 22.336C149.781 20.6933 150.815 18.7413 153.098 16.48C155.359 14.2187 157.397 13.088 159.21 13.088C159.701 13.088 160.085 13.2053 160.362 13.44C160.511 13.5893 160.618 13.792 160.682 14.048C160.767 14.304 160.831 14.432 160.874 14.432C160.959 14.432 161.034 14.4213 161.098 14.4C161.162 14.3573 161.237 14.336 161.322 14.336C161.578 14.336 161.802 14.432 161.994 14.624C162.186 14.816 162.293 14.9867 162.314 15.136C162.335 15.1787 161.653 16.2347 160.266 18.304C158.879 20.3307 158.25 21.7067 158.378 22.432C158.485 22.9227 158.719 23.168 159.082 23.168C160.191 23.168 162.218 21.3333 165.162 17.664C165.226 17.5787 165.29 17.536 165.354 17.536C165.461 17.536 165.514 17.6107 165.514 17.76C165.514 17.9307 165.418 18.144 165.226 18.4C162.517 22.048 160.437 23.872 158.986 23.872C158.794 23.872 158.613 23.84 158.442 23.776C157.503 23.4133 157.034 22.7093 157.034 21.664C157.034 21.3013 157.077 20.9387 157.162 20.576L155.178 22.496C154.581 23.0933 154.037 23.52 153.546 23.776C153.077 24.032 152.693 24.16 152.394 24.16ZM152.106 23.456C153.343 23.456 155.029 22.1013 157.162 19.392L160.554 14.72C160.383 14.4213 160.106 14.272 159.722 14.272C158.421 14.272 156.661 15.3173 154.442 17.408C152.138 19.5413 151.103 21.3013 151.338 22.688C151.445 23.2 151.701 23.456 152.106 23.456Z"/>
<path d="M171.598 24.064C171.022 24.064 170.616 23.904 170.382 23.584C170.147 23.2427 170.029 22.8267 170.029 22.336C170.029 21.0987 170.456 19.776 171.309 18.368L173.357 15.04C171.907 16.1067 170.467 17.44 169.038 19.04C168.654 19.4667 168.216 19.968 167.725 20.544C167.256 21.12 166.734 21.7813 166.158 22.528C165.39 23.5307 164.931 24.032 164.781 24.032C164.483 24.032 164.238 23.904 164.046 23.648C163.854 23.3707 163.757 23.1253 163.757 22.912C163.757 22.7413 163.811 22.432 163.917 21.984C164.024 21.5147 164.152 21.1093 164.301 20.768C164.451 20.4053 164.6 20.0533 164.749 19.712C164.92 19.3493 165.08 18.9973 165.229 18.656L163.309 20.672C163.267 20.7147 163.139 20.8427 162.925 21.056C162.712 21.2693 162.541 21.376 162.413 21.376C162.307 21.376 162.253 21.3013 162.253 21.152C162.253 21.1093 162.275 21.056 162.318 20.992C162.339 20.9067 162.403 20.8107 162.509 20.704C162.829 20.384 163.16 20.0427 163.501 19.68C163.843 19.3173 164.195 18.9013 164.557 18.432C164.749 18.1973 165.037 17.8453 165.421 17.376C165.805 16.8853 166.221 16.3627 166.669 15.808C167.139 15.2533 167.576 14.7413 167.981 14.272C168.088 14.1227 168.205 14.0267 168.333 13.984C168.461 13.92 168.547 13.888 168.589 13.888C169.165 13.888 169.453 14.112 169.453 14.56C169.453 14.688 169.421 14.816 169.357 14.944C167.437 17.5893 166.286 19.6053 165.902 20.992C168.376 18.5173 170.36 16.6613 171.854 15.424C173.368 14.1653 174.445 13.536 175.085 13.536C175.427 13.536 175.683 13.5893 175.854 13.696C176.046 13.8027 176.141 14.0053 176.141 14.304C176.141 14.4107 176.131 14.496 176.109 14.56C176.045 14.7093 175.608 15.3067 174.798 16.352C174.307 16.9493 173.87 17.4933 173.486 17.984C173.123 18.4747 172.824 18.9013 172.589 19.264C172.205 19.8613 171.917 20.4267 171.725 20.96C171.533 21.472 171.438 21.9093 171.438 22.272C171.438 22.4213 171.459 22.6027 171.501 22.816C171.544 23.0293 171.672 23.136 171.885 23.136C172.376 23.136 173.144 22.7093 174.189 21.856C174.68 21.4293 175.139 21.0027 175.566 20.576C175.992 20.128 176.397 19.6907 176.781 19.264C176.867 19.1787 177.005 19.0187 177.197 18.784C177.389 18.528 177.507 18.4 177.549 18.4C177.635 18.4 177.678 18.4853 177.678 18.656C177.678 18.7413 177.624 18.8907 177.518 19.104C177.432 19.296 177.336 19.4453 177.229 19.552C176.995 19.8293 176.643 20.2133 176.173 20.704C175.725 21.1947 175.213 21.696 174.637 22.208C174.083 22.72 173.539 23.1573 173.005 23.52C172.472 23.8827 172.003 24.064 171.598 24.064Z"/>
</mask>
<path d="M12.2802 26.272C12.1736 26.272 12.1202 26.1653 12.1202 25.952C12.1202 25.248 12.7176 23.456 13.9122 20.576C14.2749 19.744 14.6376 18.912 15.0002 18.08C15.3629 17.248 15.7149 16.416 16.0562 15.584L17.5282 11.264C17.7629 10.5387 17.9442 9.92 18.0722 9.408C18.2216 8.87467 18.2962 8.43733 18.2962 8.096C18.2962 6.60267 17.8696 5.48267 17.0162 4.736C16.1629 3.968 15.0322 3.584 13.6242 3.584C12.3016 3.584 10.9896 3.88267 9.68825 4.48C8.40825 5.056 7.23492 5.84534 6.16825 6.848C5.12291 7.85067 4.28025 8.97067 3.64025 10.208C2.72291 11.9573 2.26425 13.5573 2.26425 15.008C2.26425 16.0107 2.50958 16.9173 3.00025 17.728C3.49092 18.5387 4.13092 19.0933 4.92025 19.392C5.47492 19.584 6.01892 19.68 6.55225 19.68C7.29892 19.68 7.99225 19.52 8.63225 19.2C9.27225 18.8587 9.78425 18.3893 10.1682 17.792C10.5736 17.1947 10.7762 16.5227 10.7762 15.776C10.7762 15.6907 10.7762 15.6053 10.7762 15.52C10.7762 15.4133 10.7656 15.3173 10.7442 15.232C10.6589 14.976 10.7229 14.848 10.9362 14.848C11.1709 14.848 11.2989 15.0187 11.3202 15.36C11.3416 15.4453 11.3522 15.5307 11.3522 15.616C11.3736 15.7013 11.3842 15.7973 11.3842 15.904C11.3842 16.672 11.1282 17.3867 10.6162 18.048C10.1042 18.7093 9.44292 19.2533 8.63225 19.68C7.84292 20.0853 7.02158 20.288 6.16825 20.288C5.29358 20.288 4.45091 20.0747 3.64025 19.648C1.91225 18.7093 1.04825 17.0773 1.04825 14.752C1.04825 13.088 1.49625 11.4773 2.39225 9.92C3.20292 8.512 4.25891 7.28533 5.56025 6.24C6.86158 5.19467 8.29092 4.384 9.84825 3.808C11.4056 3.21067 12.9522 2.912 14.4882 2.912C15.5549 2.912 16.5149 3.08267 17.3682 3.424C18.2216 3.744 18.8936 4.24533 19.3842 4.928C19.8962 5.58934 20.1522 6.44267 20.1522 7.488C20.1522 9.472 19.2562 12.448 17.4642 16.416C15.4162 20.9173 14.3922 23.4453 14.3922 24C14.3922 24.1493 14.4456 24.2027 14.5522 24.16C15.1069 23.7973 17.6136 20.9387 22.0722 15.584C24.3549 12.8533 26.2856 10.6453 27.8643 8.96C29.4642 7.25333 30.7229 6.06933 31.6402 5.408C32.4509 4.78933 33.1549 4.288 33.7523 3.904C34.3496 3.49867 34.8296 3.18933 35.1923 2.976C36.5149 2.25067 37.7309 1.888 38.8403 1.888C39.3309 1.888 39.7043 1.94133 39.9603 2.048C40.2376 2.13333 40.3763 2.38933 40.3763 2.816C40.3763 3.09333 40.2803 3.232 40.0883 3.232C40.0243 3.232 39.8749 3.18933 39.6403 3.104C39.4056 2.99733 39.1709 2.944 38.9363 2.944C37.8056 2.944 36.6216 3.27467 35.3843 3.936C32.9096 5.25867 30.0722 7.62667 26.8722 11.04C25.9549 12.0213 24.8776 13.2373 23.6402 14.688C22.4242 16.1387 21.0482 17.8347 19.5122 19.776C17.0802 22.848 15.6189 24.5227 15.1282 24.8C14.2109 25.3333 13.5176 25.7067 13.0482 25.92C12.6002 26.1547 12.3442 26.272 12.2802 26.272Z" fill="black"/>
<path d="M30.822 12.992C30.4593 12.992 30.1393 12.8747 29.862 12.64C29.606 12.4053 29.478 12.1387 29.478 11.84C29.478 11.2427 29.8833 10.944 30.694 10.944C30.9927 10.944 31.2913 11.0507 31.59 11.264C31.8887 11.456 32.038 11.7013 32.038 12C32.038 12.256 31.8993 12.4907 31.622 12.704C31.3447 12.896 31.078 12.992 30.822 12.992ZM24.902 24.352C24.4327 24.352 24.0487 24.2027 23.75 23.904C23.43 23.584 23.27 23.0293 23.27 22.24C23.27 21.792 23.3767 21.28 23.59 20.704C23.782 20.1067 24.0273 19.5093 24.326 18.912C24.646 18.3147 24.9553 17.7813 25.254 17.312C26.4487 15.3707 27.43 14.3893 28.198 14.368C28.39 14.368 28.6247 14.4533 28.902 14.624C29.1793 14.7733 29.318 14.944 29.318 15.136C29.318 15.136 28.5073 16.1813 26.886 18.272C25.286 20.3413 24.486 21.8133 24.486 22.688C24.486 23.3707 24.7527 23.712 25.286 23.712C25.6273 23.712 26.0647 23.5733 26.598 23.296C27.1527 22.9973 27.7287 22.624 28.326 22.176C28.9233 21.728 29.4887 21.248 30.022 20.736C30.5767 20.224 31.0247 19.7547 31.366 19.328C31.5793 19.0507 31.7607 18.8587 31.91 18.752C32.0807 18.6453 32.1873 18.592 32.23 18.592C32.3153 18.592 32.358 18.656 32.358 18.784C32.358 18.8907 32.23 19.104 31.974 19.424C31.7393 19.744 31.4087 20.1173 30.982 20.544C30.47 21.056 29.9047 21.6107 29.286 22.208C28.6673 22.8053 27.9953 23.3173 27.27 23.744C26.5447 24.1493 25.7553 24.352 24.902 24.352Z" fill="black"/>
<path d="M33.1127 24.16C32.4727 24.16 31.9287 23.9893 31.4807 23.648C31.0327 23.2853 30.7767 22.848 30.7127 22.336C30.6274 21.6533 30.7234 20.9707 31.0007 20.288C31.2994 19.584 31.6941 18.912 32.1847 18.272C32.6967 17.632 33.2407 17.0347 33.8167 16.48C36.0781 14.2187 38.1154 13.088 39.9287 13.088C40.5474 13.088 40.9634 13.248 41.1768 13.568C41.2621 13.6747 41.3581 13.92 41.4647 14.304C43.8541 10.4213 45.5181 8.48 46.4567 8.48C46.6701 8.48 46.8941 8.53333 47.1287 8.64C47.3634 8.74667 47.4808 8.88533 47.4808 9.056C47.4808 9.16267 47.4274 9.30133 47.3208 9.472C46.6808 10.2613 46.0407 11.0507 45.4007 11.84C44.7607 12.608 44.1314 13.3867 43.5127 14.176C42.4674 15.4987 41.6247 16.6507 40.9847 17.632C40.3447 18.6133 39.8861 19.4453 39.6087 20.128C39.5234 20.3413 39.4381 20.608 39.3527 20.928C39.2887 21.2267 39.2567 21.536 39.2567 21.856C39.2567 22.2613 39.3421 22.6133 39.5127 22.912C39.6834 23.2107 39.9928 23.36 40.4408 23.36C41.1448 23.36 42.0087 23.0187 43.0327 22.336C44.0567 21.6533 45.2514 20.5333 46.6167 18.976C46.7021 18.8907 46.7767 18.816 46.8407 18.752C46.9261 18.688 47.0114 18.6453 47.0967 18.624C47.2887 18.5813 47.3848 18.624 47.3848 18.752C47.3848 18.816 47.3207 18.9333 47.1927 19.104C46.5314 19.8933 45.7954 20.672 44.9847 21.44C44.1741 22.208 43.3421 22.848 42.4888 23.36C41.6568 23.8507 40.8781 24.096 40.1527 24.096C39.4274 24.096 38.9154 23.8507 38.6167 23.36C38.3181 22.8693 38.1687 22.3147 38.1687 21.696C38.1687 21.056 38.2861 20.4693 38.5207 19.936L35.9287 22.528C35.3527 23.104 34.8194 23.52 34.3287 23.776C33.8594 24.032 33.4541 24.16 33.1127 24.16ZM32.8247 23.456C33.7421 23.456 35.2674 22.1973 37.4007 19.68C37.5074 19.552 37.8807 19.0827 38.5207 18.272C39.1607 17.44 40.0674 16.2347 41.2407 14.656C41.0914 14.4 40.8354 14.272 40.4727 14.272C39.1501 14.272 37.3794 15.3173 35.1607 17.408C33.0701 19.3493 32.0247 20.9813 32.0247 22.304C32.0247 23.072 32.2914 23.456 32.8247 23.456Z" fill="black"/>
<path d="M45.0422 24.16C44.4236 24.16 44.1143 23.9787 44.1143 23.616C44.1143 23.4027 44.2422 23.0613 44.4982 22.592C45.4796 20.8427 46.3542 19.296 47.1222 17.952C47.9116 16.5867 48.6049 15.4347 49.2022 14.496C51.7409 10.4213 53.5329 8.21333 54.5783 7.872C54.6209 7.872 54.6529 7.872 54.6742 7.872C54.6956 7.85067 54.7169 7.84 54.7383 7.84C55.0156 7.84 55.1969 8.064 55.2822 8.512C55.2182 8.96 54.1089 10.5813 51.9543 13.376C50.8236 14.8053 49.9382 15.9893 49.2982 16.928C48.6796 17.8453 48.2956 18.5173 48.1462 18.944C48.8502 18.432 49.6076 17.888 50.4182 17.312C51.2289 16.736 52.0182 16.192 52.7862 15.68C53.5542 15.1467 54.2476 14.72 54.8662 14.4C55.4849 14.0587 55.9649 13.8667 56.3062 13.824C56.3489 13.824 56.4022 13.824 56.4662 13.824C56.5302 13.8027 56.5729 13.792 56.5942 13.792C57.1916 13.792 57.4902 14.0693 57.4902 14.624C57.4902 14.7733 57.2982 15.104 56.9142 15.616C56.5302 16.128 55.9436 16.9173 55.1542 17.984C53.7462 19.8613 53.0422 21.2693 53.0422 22.208C53.0422 22.6987 53.2236 22.944 53.5863 22.944C53.9703 22.9227 54.4076 22.752 54.8983 22.432C55.4103 22.112 55.9222 21.7173 56.4342 21.248C56.9462 20.7787 57.4049 20.32 57.8102 19.872C58.2369 19.4027 58.5569 19.04 58.7702 18.784C58.9622 18.592 59.1116 18.496 59.2183 18.496C59.3036 18.496 59.3462 18.5387 59.3462 18.624C59.3462 18.7947 59.2609 18.9973 59.0902 19.232C58.8342 19.552 58.4502 19.968 57.9382 20.48C57.4476 20.992 56.9036 21.5147 56.3062 22.048C55.7302 22.56 55.1756 22.9973 54.6423 23.36C54.1303 23.7013 53.7462 23.872 53.4902 23.872C52.2316 23.872 51.6022 23.136 51.6022 21.664C51.6022 20.832 51.9862 19.744 52.7542 18.4C53.0529 17.888 53.3622 17.376 53.6822 16.864C54.0022 16.352 54.3223 15.84 54.6423 15.328C51.9116 16.6933 49.4369 18.7093 47.2182 21.376C46.9409 21.76 46.6529 22.176 46.3542 22.624C46.0556 23.0507 45.7889 23.4133 45.5542 23.712C45.3196 24.0107 45.1489 24.16 45.0422 24.16Z" fill="black"/>
<path d="M58.6735 30.56C57.9908 30.56 57.3935 30.272 56.8815 29.696C56.3695 29.0987 56.1242 28.4373 56.1455 27.712C56.4015 28.032 56.7428 28.4053 57.1695 28.832C57.7242 29.3653 58.2682 29.632 58.8015 29.632C60.0175 29.632 61.3295 28.6613 62.7375 26.72C63.2282 26.0373 63.7295 25.2373 64.2415 24.32C64.7748 23.424 65.2762 22.4213 65.7455 21.312L66.9615 18.368L62.2575 22.048C60.8068 23.1787 59.6442 23.744 58.7695 23.744C58.3002 23.744 57.9268 23.5733 57.6495 23.232C57.3722 22.8907 57.2335 22.5387 57.2335 22.176C57.2335 21.2587 58.0228 19.7547 59.6015 17.664C61.1802 15.552 62.3642 14.496 63.1535 14.496C63.8148 14.496 64.1455 14.7413 64.1455 15.232C64.1455 15.424 63.1962 16.5333 61.2975 18.56C59.4202 20.5653 58.4815 21.92 58.4815 22.624C58.4815 22.9013 58.6628 23.04 59.0255 23.04C59.7082 23.04 61.1908 22.1547 63.4735 20.384C64.4122 19.6373 65.2442 18.9547 65.9695 18.336C66.6948 17.7173 67.3028 17.1627 67.7935 16.672C67.9642 16.4587 68.1348 16.256 68.3055 16.064C68.4762 15.8507 68.6362 15.6373 68.7855 15.424C69.1908 14.9547 69.5962 14.72 70.0015 14.72C70.5775 14.72 70.8655 14.9547 70.8655 15.424C70.8655 15.5093 70.4175 16.2133 69.5215 17.536C69.0522 18.2613 68.6788 18.8267 68.4015 19.232C68.1242 19.616 67.9642 19.8613 67.9215 19.968C67.2602 21.248 66.2468 23.1147 64.8815 25.568C62.8122 28.896 60.7428 30.56 58.6735 30.56Z" fill="black"/>
<path d="M71.9252 24.16C71.4132 24.16 70.9013 23.9787 70.3893 23.616C69.8773 23.2533 69.5892 22.8267 69.5252 22.336C69.3119 20.6933 70.3466 18.7413 72.6292 16.48C74.8906 14.2187 76.9279 13.088 78.7412 13.088C79.2319 13.088 79.6159 13.2053 79.8932 13.44C80.0426 13.5893 80.1492 13.792 80.2132 14.048C80.2986 14.304 80.3626 14.432 80.4053 14.432C80.4906 14.432 80.5652 14.4213 80.6292 14.4C80.6932 14.3573 80.7679 14.336 80.8532 14.336C81.1092 14.336 81.3332 14.432 81.5252 14.624C81.7172 14.816 81.8239 14.9867 81.8452 15.136C81.8666 15.1787 81.1839 16.2347 79.7972 18.304C78.4106 20.3307 77.7812 21.7067 77.9092 22.432C78.0159 22.9227 78.2506 23.168 78.6133 23.168C79.7226 23.168 81.7493 21.3333 84.6933 17.664C84.7573 17.5787 84.8212 17.536 84.8852 17.536C84.9919 17.536 85.0452 17.6107 85.0452 17.76C85.0452 17.9307 84.9492 18.144 84.7572 18.4C82.0479 22.048 79.9679 23.872 78.5173 23.872C78.3252 23.872 78.1439 23.84 77.9733 23.776C77.0346 23.4133 76.5652 22.7093 76.5652 21.664C76.5652 21.3013 76.6079 20.9387 76.6932 20.576L74.7093 22.496C74.1119 23.0933 73.5679 23.52 73.0772 23.776C72.6079 24.032 72.2239 24.16 71.9252 24.16ZM71.6372 23.456C72.8746 23.456 74.5599 22.1013 76.6932 19.392L80.0853 14.72C79.9146 14.4213 79.6373 14.272 79.2533 14.272C77.9519 14.272 76.1919 15.3173 73.9733 17.408C71.6693 19.5413 70.6346 21.3013 70.8692 22.688C70.9759 23.2 71.2319 23.456 71.6372 23.456Z" fill="black"/>
<path d="M96.6328 25.856C93.0701 26.0267 90.5101 25.1413 88.9528 23.2C87.0754 24.6507 85.6994 25.376 84.8247 25.376C84.3554 25.376 84.0034 25.1413 83.7687 24.672C83.5554 24.224 83.4487 23.7333 83.4487 23.2C83.4487 22.176 83.8434 20.704 84.6328 18.784C85.5714 16.608 86.4354 15.52 87.2247 15.52C87.6301 15.52 87.9394 16.16 88.1527 17.44C88.5154 19.36 88.8461 20.6827 89.1447 21.408C89.8487 20.6613 90.7234 19.648 91.7687 18.368C92.8354 17.088 94.0621 15.5413 95.4487 13.728C98.9047 9.184 101.198 6.69867 102.329 6.272C102.713 6.12267 103.097 6.048 103.481 6.048C103.907 6.048 104.249 6.144 104.505 6.336C104.782 6.50667 104.921 6.70933 104.921 6.944C104.921 7.30667 104.611 7.52 103.993 7.584C103.545 7.81867 102.99 8.224 102.329 8.8C101.689 9.376 101.006 10.0373 100.281 10.784C99.5767 11.5093 98.9154 12.2347 98.2968 12.96C97.6781 13.664 97.1767 14.272 96.7927 14.784C94.5101 17.9627 92.2274 20.5013 89.9447 22.4L89.7527 22.56C90.4354 23.5627 91.2568 24.256 92.2168 24.64C93.1768 25.024 94.2434 25.216 95.4167 25.216C97.3581 25.216 99.2034 24.9173 100.953 24.32C102.723 23.744 104.313 22.88 105.721 21.728C107.15 20.5547 108.323 19.1253 109.241 17.44C110.243 15.6053 110.745 13.856 110.745 12.192C110.745 11.0613 110.499 9.99467 110.009 8.992C109.518 7.968 108.857 7.09333 108.025 6.368C107.214 5.64267 106.307 5.17333 105.305 4.96C104.131 4.704 102.905 4.576 101.625 4.576C98.3394 4.576 95.3101 5.33333 92.5368 6.848C89.6141 8.448 88.1527 10.24 88.1527 12.224C88.1527 12.7573 88.3128 13.216 88.6328 13.6C88.8888 13.8987 89.0701 14.0693 89.1768 14.112H88.9847C88.3874 14.0053 87.8754 13.7067 87.4487 13.216C87.0221 12.7253 86.8087 12.1813 86.8087 11.584C86.8087 10.4747 87.1501 9.46133 87.8327 8.544C88.5367 7.60533 89.5501 6.752 90.8727 5.984C93.5181 4.46933 96.6434 3.712 100.249 3.712C101.059 3.712 101.87 3.75467 102.681 3.84C103.491 3.92533 104.291 4.05333 105.081 4.224C106.467 4.52267 107.726 5.088 108.857 5.92C109.987 6.752 110.894 7.76533 111.577 8.96C112.259 10.1547 112.601 11.4453 112.601 12.832C112.601 14.432 112.131 16.0853 111.193 17.792C110.254 19.52 109.038 20.9707 107.545 22.144C106.073 23.296 104.409 24.1707 102.553 24.768C100.697 25.3867 98.7234 25.7493 96.6328 25.856ZM84.9847 24.8C85.9021 24.3947 87.0114 23.552 88.3128 22.272C87.6941 21.248 87.2887 20.384 87.0967 19.68C86.9687 19.2107 86.8727 18.496 86.8087 17.536C85.3367 19.648 84.6007 21.4933 84.6007 23.072C84.6007 23.7333 84.7287 24.3093 84.9847 24.8Z" fill="black"/>
<path d="M111.574 24.16C110.955 24.16 110.646 23.9787 110.646 23.616C110.646 23.4027 110.773 23.0613 111.029 22.592C112.011 20.8427 112.885 19.296 113.653 17.952C114.443 16.5867 115.136 15.4347 115.733 14.496C118.272 10.4213 120.064 8.21333 121.109 7.872C121.152 7.872 121.184 7.872 121.205 7.872C121.227 7.85067 121.248 7.84 121.27 7.84C121.547 7.84 121.728 8.064 121.813 8.512C121.749 8.96 120.64 10.5813 118.485 13.376C117.355 14.8053 116.469 15.9893 115.829 16.928C115.211 17.8453 114.827 18.5173 114.677 18.944C115.381 18.432 116.139 17.888 116.95 17.312C117.76 16.736 118.549 16.192 119.317 15.68C120.085 15.1467 120.779 14.72 121.397 14.4C122.016 14.0587 122.496 13.8667 122.838 13.824C122.88 13.824 122.933 13.824 122.997 13.824C123.061 13.8027 123.104 13.792 123.125 13.792C123.723 13.792 124.021 14.0693 124.021 14.624C124.021 14.7733 123.829 15.104 123.445 15.616C123.061 16.128 122.475 16.9173 121.686 17.984C120.278 19.8613 119.574 21.2693 119.574 22.208C119.574 22.6987 119.755 22.944 120.118 22.944C120.502 22.9227 120.939 22.752 121.429 22.432C121.941 22.112 122.453 21.7173 122.965 21.248C123.477 20.7787 123.936 20.32 124.341 19.872C124.768 19.4027 125.088 19.04 125.301 18.784C125.493 18.592 125.643 18.496 125.749 18.496C125.835 18.496 125.878 18.5387 125.878 18.624C125.878 18.7947 125.792 18.9973 125.621 19.232C125.365 19.552 124.981 19.968 124.469 20.48C123.979 20.992 123.435 21.5147 122.838 22.048C122.262 22.56 121.707 22.9973 121.174 23.36C120.662 23.7013 120.277 23.872 120.021 23.872C118.763 23.872 118.133 23.136 118.133 21.664C118.133 20.832 118.517 19.744 119.285 18.4C119.584 17.888 119.894 17.376 120.214 16.864C120.534 16.352 120.854 15.84 121.174 15.328C118.443 16.6933 115.968 18.7093 113.749 21.376C113.472 21.76 113.184 22.176 112.885 22.624C112.587 23.0507 112.32 23.4133 112.085 23.712C111.851 24.0107 111.68 24.16 111.574 24.16Z" fill="black"/>
<path d="M126.613 24.16C126.101 24.16 125.589 23.9787 125.077 23.616C124.565 23.2533 124.277 22.8267 124.213 22.336C123.999 20.6933 125.034 18.7413 127.317 16.48C129.578 14.2187 131.615 13.088 133.429 13.088C133.919 13.088 134.303 13.2053 134.581 13.44C134.73 13.5893 134.837 13.792 134.901 14.048C134.986 14.304 135.05 14.432 135.093 14.432C135.178 14.432 135.253 14.4213 135.317 14.4C135.381 14.3573 135.455 14.336 135.541 14.336C135.797 14.336 136.021 14.432 136.213 14.624C136.405 14.816 136.511 14.9867 136.533 15.136C136.554 15.1787 135.871 16.2347 134.485 18.304C133.098 20.3307 132.469 21.7067 132.597 22.432C132.703 22.9227 132.938 23.168 133.301 23.168C134.41 23.168 136.437 21.3333 139.381 17.664C139.445 17.5787 139.509 17.536 139.573 17.536C139.679 17.536 139.733 17.6107 139.733 17.76C139.733 17.9307 139.637 18.144 139.445 18.4C136.735 22.048 134.655 23.872 133.205 23.872C133.013 23.872 132.831 23.84 132.661 23.776C131.722 23.4133 131.253 22.7093 131.253 21.664C131.253 21.3013 131.295 20.9387 131.381 20.576L129.397 22.496C128.799 23.0933 128.255 23.52 127.765 23.776C127.295 24.032 126.911 24.16 126.613 24.16ZM126.325 23.456C127.562 23.456 129.247 22.1013 131.381 19.392L134.773 14.72C134.602 14.4213 134.325 14.272 133.941 14.272C132.639 14.272 130.879 15.3173 128.661 17.408C126.357 19.5413 125.322 21.3013 125.557 22.688C125.663 23.2 125.919 23.456 126.325 23.456Z" fill="black"/>
<path d="M144.184 24.16C143.267 24.16 142.638 23.9253 142.296 23.456C141.955 22.9653 141.784 22.3147 141.784 21.504C141.784 20.608 142.062 19.5413 142.616 18.304C142.83 17.8133 143.054 17.376 143.288 16.992C143.523 16.5867 143.768 16.2133 144.024 15.872C143.939 15.8933 143.864 15.904 143.8 15.904C143.736 15.904 143.672 15.904 143.608 15.904C143.096 15.904 142.67 15.5413 142.328 14.816L139.96 17.888C138.702 19.5307 137.934 20.352 137.656 20.352C137.55 20.352 137.496 20.3093 137.496 20.224C137.496 20.1173 137.55 19.9787 137.656 19.808C137.72 19.68 137.848 19.5093 138.04 19.296C138.851 18.3573 139.598 17.4293 140.28 16.512C140.963 15.5947 141.528 14.6987 141.976 13.824C142.467 11.968 143.086 11.04 143.832 11.04C144.323 11.04 144.568 11.264 144.568 11.712C144.568 12.1173 144.302 12.6507 143.768 13.312C143.256 13.9733 143 14.3147 143 14.336C143 14.784 143.331 15.008 143.992 15.008C144.376 15.008 144.803 14.8693 145.272 14.592L146.104 14.08C146.147 14.0587 146.211 14.048 146.296 14.048C146.552 14.048 146.776 14.1547 146.968 14.368C147.16 14.5813 147.224 14.7733 147.16 14.944L144.952 17.728C143.587 19.4773 142.904 20.8853 142.904 21.952C142.904 22.912 143.374 23.392 144.312 23.392C144.952 23.392 145.635 23.2 146.36 22.816C147.107 22.432 147.822 21.9627 148.504 21.408C149.208 20.832 149.795 20.2773 150.264 19.744L151.032 18.848C151.075 18.8053 151.128 18.752 151.192 18.688C151.256 18.624 151.31 18.592 151.352 18.592C151.502 18.592 151.576 18.6667 151.576 18.816C151.576 18.8587 151.555 18.9333 151.512 19.04C151.47 19.1467 151.395 19.264 151.288 19.392L150.264 20.544C149.774 21.0987 149.166 21.664 148.44 22.24C147.736 22.7947 147 23.2533 146.232 23.616C145.486 23.9787 144.803 24.16 144.184 24.16Z" fill="black"/>
<path d="M152.394 24.16C151.882 24.16 151.37 23.9787 150.858 23.616C150.346 23.2533 150.058 22.8267 149.994 22.336C149.781 20.6933 150.815 18.7413 153.098 16.48C155.359 14.2187 157.397 13.088 159.21 13.088C159.701 13.088 160.085 13.2053 160.362 13.44C160.511 13.5893 160.618 13.792 160.682 14.048C160.767 14.304 160.831 14.432 160.874 14.432C160.959 14.432 161.034 14.4213 161.098 14.4C161.162 14.3573 161.237 14.336 161.322 14.336C161.578 14.336 161.802 14.432 161.994 14.624C162.186 14.816 162.293 14.9867 162.314 15.136C162.335 15.1787 161.653 16.2347 160.266 18.304C158.879 20.3307 158.25 21.7067 158.378 22.432C158.485 22.9227 158.719 23.168 159.082 23.168C160.191 23.168 162.218 21.3333 165.162 17.664C165.226 17.5787 165.29 17.536 165.354 17.536C165.461 17.536 165.514 17.6107 165.514 17.76C165.514 17.9307 165.418 18.144 165.226 18.4C162.517 22.048 160.437 23.872 158.986 23.872C158.794 23.872 158.613 23.84 158.442 23.776C157.503 23.4133 157.034 22.7093 157.034 21.664C157.034 21.3013 157.077 20.9387 157.162 20.576L155.178 22.496C154.581 23.0933 154.037 23.52 153.546 23.776C153.077 24.032 152.693 24.16 152.394 24.16ZM152.106 23.456C153.343 23.456 155.029 22.1013 157.162 19.392L160.554 14.72C160.383 14.4213 160.106 14.272 159.722 14.272C158.421 14.272 156.661 15.3173 154.442 17.408C152.138 19.5413 151.103 21.3013 151.338 22.688C151.445 23.2 151.701 23.456 152.106 23.456Z" fill="black"/>
<path d="M171.598 24.064C171.022 24.064 170.616 23.904 170.382 23.584C170.147 23.2427 170.029 22.8267 170.029 22.336C170.029 21.0987 170.456 19.776 171.309 18.368L173.357 15.04C171.907 16.1067 170.467 17.44 169.038 19.04C168.654 19.4667 168.216 19.968 167.725 20.544C167.256 21.12 166.734 21.7813 166.158 22.528C165.39 23.5307 164.931 24.032 164.781 24.032C164.483 24.032 164.238 23.904 164.046 23.648C163.854 23.3707 163.757 23.1253 163.757 22.912C163.757 22.7413 163.811 22.432 163.917 21.984C164.024 21.5147 164.152 21.1093 164.301 20.768C164.451 20.4053 164.6 20.0533 164.749 19.712C164.92 19.3493 165.08 18.9973 165.229 18.656L163.309 20.672C163.267 20.7147 163.139 20.8427 162.925 21.056C162.712 21.2693 162.541 21.376 162.413 21.376C162.307 21.376 162.253 21.3013 162.253 21.152C162.253 21.1093 162.275 21.056 162.318 20.992C162.339 20.9067 162.403 20.8107 162.509 20.704C162.829 20.384 163.16 20.0427 163.501 19.68C163.843 19.3173 164.195 18.9013 164.557 18.432C164.749 18.1973 165.037 17.8453 165.421 17.376C165.805 16.8853 166.221 16.3627 166.669 15.808C167.139 15.2533 167.576 14.7413 167.981 14.272C168.088 14.1227 168.205 14.0267 168.333 13.984C168.461 13.92 168.547 13.888 168.589 13.888C169.165 13.888 169.453 14.112 169.453 14.56C169.453 14.688 169.421 14.816 169.357 14.944C167.437 17.5893 166.286 19.6053 165.902 20.992C168.376 18.5173 170.36 16.6613 171.854 15.424C173.368 14.1653 174.445 13.536 175.085 13.536C175.427 13.536 175.683 13.5893 175.854 13.696C176.046 13.8027 176.141 14.0053 176.141 14.304C176.141 14.4107 176.131 14.496 176.109 14.56C176.045 14.7093 175.608 15.3067 174.798 16.352C174.307 16.9493 173.87 17.4933 173.486 17.984C173.123 18.4747 172.824 18.9013 172.589 19.264C172.205 19.8613 171.917 20.4267 171.725 20.96C171.533 21.472 171.438 21.9093 171.438 22.272C171.438 22.4213 171.459 22.6027 171.501 22.816C171.544 23.0293 171.672 23.136 171.885 23.136C172.376 23.136 173.144 22.7093 174.189 21.856C174.68 21.4293 175.139 21.0027 175.566 20.576C175.992 20.128 176.397 19.6907 176.781 19.264C176.867 19.1787 177.005 19.0187 177.197 18.784C177.389 18.528 177.507 18.4 177.549 18.4C177.635 18.4 177.678 18.4853 177.678 18.656C177.678 18.7413 177.624 18.8907 177.518 19.104C177.432 19.296 177.336 19.4453 177.229 19.552C176.995 19.8293 176.643 20.2133 176.173 20.704C175.725 21.1947 175.213 21.696 174.637 22.208C174.083 22.72 173.539 23.1573 173.005 23.52C172.472 23.8827 172.003 24.064 171.598 24.064Z" fill="black"/>
<path d="M12.2802 26.272C12.1736 26.272 12.1202 26.1653 12.1202 25.952C12.1202 25.248 12.7176 23.456 13.9122 20.576C14.2749 19.744 14.6376 18.912 15.0002 18.08C15.3629 17.248 15.7149 16.416 16.0562 15.584L17.5282 11.264C17.7629 10.5387 17.9442 9.92 18.0722 9.408C18.2216 8.87467 18.2962 8.43733 18.2962 8.096C18.2962 6.60267 17.8696 5.48267 17.0162 4.736C16.1629 3.968 15.0322 3.584 13.6242 3.584C12.3016 3.584 10.9896 3.88267 9.68825 4.48C8.40825 5.056 7.23492 5.84534 6.16825 6.848C5.12291 7.85067 4.28025 8.97067 3.64025 10.208C2.72291 11.9573 2.26425 13.5573 2.26425 15.008C2.26425 16.0107 2.50958 16.9173 3.00025 17.728C3.49092 18.5387 4.13092 19.0933 4.92025 19.392C5.47492 19.584 6.01892 19.68 6.55225 19.68C7.29892 19.68 7.99225 19.52 8.63225 19.2C9.27225 18.8587 9.78425 18.3893 10.1682 17.792C10.5736 17.1947 10.7762 16.5227 10.7762 15.776C10.7762 15.6907 10.7762 15.6053 10.7762 15.52C10.7762 15.4133 10.7656 15.3173 10.7442 15.232C10.6589 14.976 10.7229 14.848 10.9362 14.848C11.1709 14.848 11.2989 15.0187 11.3202 15.36C11.3416 15.4453 11.3522 15.5307 11.3522 15.616C11.3736 15.7013 11.3842 15.7973 11.3842 15.904C11.3842 16.672 11.1282 17.3867 10.6162 18.048C10.1042 18.7093 9.44292 19.2533 8.63225 19.68C7.84292 20.0853 7.02158 20.288 6.16825 20.288C5.29358 20.288 4.45091 20.0747 3.64025 19.648C1.91225 18.7093 1.04825 17.0773 1.04825 14.752C1.04825 13.088 1.49625 11.4773 2.39225 9.92C3.20292 8.512 4.25891 7.28533 5.56025 6.24C6.86158 5.19467 8.29092 4.384 9.84825 3.808C11.4056 3.21067 12.9522 2.912 14.4882 2.912C15.5549 2.912 16.5149 3.08267 17.3682 3.424C18.2216 3.744 18.8936 4.24533 19.3842 4.928C19.8962 5.58934 20.1522 6.44267 20.1522 7.488C20.1522 9.472 19.2562 12.448 17.4642 16.416C15.4162 20.9173 14.3922 23.4453 14.3922 24C14.3922 24.1493 14.4456 24.2027 14.5522 24.16C15.1069 23.7973 17.6136 20.9387 22.0722 15.584C24.3549 12.8533 26.2856 10.6453 27.8643 8.96C29.4642 7.25333 30.7229 6.06933 31.6402 5.408C32.4509 4.78933 33.1549 4.288 33.7523 3.904C34.3496 3.49867 34.8296 3.18933 35.1923 2.976C36.5149 2.25067 37.7309 1.888 38.8403 1.888C39.3309 1.888 39.7043 1.94133 39.9603 2.048C40.2376 2.13333 40.3763 2.38933 40.3763 2.816C40.3763 3.09333 40.2803 3.232 40.0883 3.232C40.0243 3.232 39.8749 3.18933 39.6403 3.104C39.4056 2.99733 39.1709 2.944 38.9363 2.944C37.8056 2.944 36.6216 3.27467 35.3843 3.936C32.9096 5.25867 30.0722 7.62667 26.8722 11.04C25.9549 12.0213 24.8776 13.2373 23.6402 14.688C22.4242 16.1387 21.0482 17.8347 19.5122 19.776C17.0802 22.848 15.6189 24.5227 15.1282 24.8C14.2109 25.3333 13.5176 25.7067 13.0482 25.92C12.6002 26.1547 12.3442 26.272 12.2802 26.272Z" stroke="black" stroke-width="2" mask="url(#path-1-outside-1_1_6)"/>
<path d="M30.822 12.992C30.4593 12.992 30.1393 12.8747 29.862 12.64C29.606 12.4053 29.478 12.1387 29.478 11.84C29.478 11.2427 29.8833 10.944 30.694 10.944C30.9927 10.944 31.2913 11.0507 31.59 11.264C31.8887 11.456 32.038 11.7013 32.038 12C32.038 12.256 31.8993 12.4907 31.622 12.704C31.3447 12.896 31.078 12.992 30.822 12.992ZM24.902 24.352C24.4327 24.352 24.0487 24.2027 23.75 23.904C23.43 23.584 23.27 23.0293 23.27 22.24C23.27 21.792 23.3767 21.28 23.59 20.704C23.782 20.1067 24.0273 19.5093 24.326 18.912C24.646 18.3147 24.9553 17.7813 25.254 17.312C26.4487 15.3707 27.43 14.3893 28.198 14.368C28.39 14.368 28.6247 14.4533 28.902 14.624C29.1793 14.7733 29.318 14.944 29.318 15.136C29.318 15.136 28.5073 16.1813 26.886 18.272C25.286 20.3413 24.486 21.8133 24.486 22.688C24.486 23.3707 24.7527 23.712 25.286 23.712C25.6273 23.712 26.0647 23.5733 26.598 23.296C27.1527 22.9973 27.7287 22.624 28.326 22.176C28.9233 21.728 29.4887 21.248 30.022 20.736C30.5767 20.224 31.0247 19.7547 31.366 19.328C31.5793 19.0507 31.7607 18.8587 31.91 18.752C32.0807 18.6453 32.1873 18.592 32.23 18.592C32.3153 18.592 32.358 18.656 32.358 18.784C32.358 18.8907 32.23 19.104 31.974 19.424C31.7393 19.744 31.4087 20.1173 30.982 20.544C30.47 21.056 29.9047 21.6107 29.286 22.208C28.6673 22.8053 27.9953 23.3173 27.27 23.744C26.5447 24.1493 25.7553 24.352 24.902 24.352Z" stroke="black" stroke-width="2" mask="url(#path-1-outside-1_1_6)"/>
<path d="M33.1127 24.16C32.4727 24.16 31.9287 23.9893 31.4807 23.648C31.0327 23.2853 30.7767 22.848 30.7127 22.336C30.6274 21.6533 30.7234 20.9707 31.0007 20.288C31.2994 19.584 31.6941 18.912 32.1847 18.272C32.6967 17.632 33.2407 17.0347 33.8167 16.48C36.0781 14.2187 38.1154 13.088 39.9287 13.088C40.5474 13.088 40.9634 13.248 41.1768 13.568C41.2621 13.6747 41.3581 13.92 41.4647 14.304C43.8541 10.4213 45.5181 8.48 46.4567 8.48C46.6701 8.48 46.8941 8.53333 47.1287 8.64C47.3634 8.74667 47.4808 8.88533 47.4808 9.056C47.4808 9.16267 47.4274 9.30133 47.3208 9.472C46.6808 10.2613 46.0407 11.0507 45.4007 11.84C44.7607 12.608 44.1314 13.3867 43.5127 14.176C42.4674 15.4987 41.6247 16.6507 40.9847 17.632C40.3447 18.6133 39.8861 19.4453 39.6087 20.128C39.5234 20.3413 39.4381 20.608 39.3527 20.928C39.2887 21.2267 39.2567 21.536 39.2567 21.856C39.2567 22.2613 39.3421 22.6133 39.5127 22.912C39.6834 23.2107 39.9928 23.36 40.4408 23.36C41.1448 23.36 42.0087 23.0187 43.0327 22.336C44.0567 21.6533 45.2514 20.5333 46.6167 18.976C46.7021 18.8907 46.7767 18.816 46.8407 18.752C46.9261 18.688 47.0114 18.6453 47.0967 18.624C47.2887 18.5813 47.3848 18.624 47.3848 18.752C47.3848 18.816 47.3207 18.9333 47.1927 19.104C46.5314 19.8933 45.7954 20.672 44.9847 21.44C44.1741 22.208 43.3421 22.848 42.4888 23.36C41.6568 23.8507 40.8781 24.096 40.1527 24.096C39.4274 24.096 38.9154 23.8507 38.6167 23.36C38.3181 22.8693 38.1687 22.3147 38.1687 21.696C38.1687 21.056 38.2861 20.4693 38.5207 19.936L35.9287 22.528C35.3527 23.104 34.8194 23.52 34.3287 23.776C33.8594 24.032 33.4541 24.16 33.1127 24.16ZM32.8247 23.456C33.7421 23.456 35.2674 22.1973 37.4007 19.68C37.5074 19.552 37.8807 19.0827 38.5207 18.272C39.1607 17.44 40.0674 16.2347 41.2407 14.656C41.0914 14.4 40.8354 14.272 40.4727 14.272C39.1501 14.272 37.3794 15.3173 35.1607 17.408C33.0701 19.3493 32.0247 20.9813 32.0247 22.304C32.0247 23.072 32.2914 23.456 32.8247 23.456Z" stroke="black" stroke-width="2" mask="url(#path-1-outside-1_1_6)"/>
<path d="M45.0422 24.16C44.4236 24.16 44.1143 23.9787 44.1143 23.616C44.1143 23.4027 44.2422 23.0613 44.4982 22.592C45.4796 20.8427 46.3542 19.296 47.1222 17.952C47.9116 16.5867 48.6049 15.4347 49.2022 14.496C51.7409 10.4213 53.5329 8.21333 54.5783 7.872C54.6209 7.872 54.6529 7.872 54.6742 7.872C54.6956 7.85067 54.7169 7.84 54.7383 7.84C55.0156 7.84 55.1969 8.064 55.2822 8.512C55.2182 8.96 54.1089 10.5813 51.9543 13.376C50.8236 14.8053 49.9382 15.9893 49.2982 16.928C48.6796 17.8453 48.2956 18.5173 48.1462 18.944C48.8502 18.432 49.6076 17.888 50.4182 17.312C51.2289 16.736 52.0182 16.192 52.7862 15.68C53.5542 15.1467 54.2476 14.72 54.8662 14.4C55.4849 14.0587 55.9649 13.8667 56.3062 13.824C56.3489 13.824 56.4022 13.824 56.4662 13.824C56.5302 13.8027 56.5729 13.792 56.5942 13.792C57.1916 13.792 57.4902 14.0693 57.4902 14.624C57.4902 14.7733 57.2982 15.104 56.9142 15.616C56.5302 16.128 55.9436 16.9173 55.1542 17.984C53.7462 19.8613 53.0422 21.2693 53.0422 22.208C53.0422 22.6987 53.2236 22.944 53.5863 22.944C53.9703 22.9227 54.4076 22.752 54.8983 22.432C55.4103 22.112 55.9222 21.7173 56.4342 21.248C56.9462 20.7787 57.4049 20.32 57.8102 19.872C58.2369 19.4027 58.5569 19.04 58.7702 18.784C58.9622 18.592 59.1116 18.496 59.2183 18.496C59.3036 18.496 59.3462 18.5387 59.3462 18.624C59.3462 18.7947 59.2609 18.9973 59.0902 19.232C58.8342 19.552 58.4502 19.968 57.9382 20.48C57.4476 20.992 56.9036 21.5147 56.3062 22.048C55.7302 22.56 55.1756 22.9973 54.6423 23.36C54.1303 23.7013 53.7462 23.872 53.4902 23.872C52.2316 23.872 51.6022 23.136 51.6022 21.664C51.6022 20.832 51.9862 19.744 52.7542 18.4C53.0529 17.888 53.3622 17.376 53.6822 16.864C54.0022 16.352 54.3223 15.84 54.6423 15.328C51.9116 16.6933 49.4369 18.7093 47.2182 21.376C46.9409 21.76 46.6529 22.176 46.3542 22.624C46.0556 23.0507 45.7889 23.4133 45.5542 23.712C45.3196 24.0107 45.1489 24.16 45.0422 24.16Z" stroke="black" stroke-width="2" mask="url(#path-1-outside-1_1_6)"/>
<path d="M58.6735 30.56C57.9908 30.56 57.3935 30.272 56.8815 29.696C56.3695 29.0987 56.1242 28.4373 56.1455 27.712C56.4015 28.032 56.7428 28.4053 57.1695 28.832C57.7242 29.3653 58.2682 29.632 58.8015 29.632C60.0175 29.632 61.3295 28.6613 62.7375 26.72C63.2282 26.0373 63.7295 25.2373 64.2415 24.32C64.7748 23.424 65.2762 22.4213 65.7455 21.312L66.9615 18.368L62.2575 22.048C60.8068 23.1787 59.6442 23.744 58.7695 23.744C58.3002 23.744 57.9268 23.5733 57.6495 23.232C57.3722 22.8907 57.2335 22.5387 57.2335 22.176C57.2335 21.2587 58.0228 19.7547 59.6015 17.664C61.1802 15.552 62.3642 14.496 63.1535 14.496C63.8148 14.496 64.1455 14.7413 64.1455 15.232C64.1455 15.424 63.1962 16.5333 61.2975 18.56C59.4202 20.5653 58.4815 21.92 58.4815 22.624C58.4815 22.9013 58.6628 23.04 59.0255 23.04C59.7082 23.04 61.1908 22.1547 63.4735 20.384C64.4122 19.6373 65.2442 18.9547 65.9695 18.336C66.6948 17.7173 67.3028 17.1627 67.7935 16.672C67.9642 16.4587 68.1348 16.256 68.3055 16.064C68.4762 15.8507 68.6362 15.6373 68.7855 15.424C69.1908 14.9547 69.5962 14.72 70.0015 14.72C70.5775 14.72 70.8655 14.9547 70.8655 15.424C70.8655 15.5093 70.4175 16.2133 69.5215 17.536C69.0522 18.2613 68.6788 18.8267 68.4015 19.232C68.1242 19.616 67.9642 19.8613 67.9215 19.968C67.2602 21.248 66.2468 23.1147 64.8815 25.568C62.8122 28.896 60.7428 30.56 58.6735 30.56Z" stroke="black" stroke-width="2" mask="url(#path-1-outside-1_1_6)"/>
<path d="M71.9252 24.16C71.4132 24.16 70.9013 23.9787 70.3893 23.616C69.8773 23.2533 69.5892 22.8267 69.5252 22.336C69.3119 20.6933 70.3466 18.7413 72.6292 16.48C74.8906 14.2187 76.9279 13.088 78.7412 13.088C79.2319 13.088 79.6159 13.2053 79.8932 13.44C80.0426 13.5893 80.1492 13.792 80.2132 14.048C80.2986 14.304 80.3626 14.432 80.4053 14.432C80.4906 14.432 80.5652 14.4213 80.6292 14.4C80.6932 14.3573 80.7679 14.336 80.8532 14.336C81.1092 14.336 81.3332 14.432 81.5252 14.624C81.7172 14.816 81.8239 14.9867 81.8452 15.136C81.8666 15.1787 81.1839 16.2347 79.7972 18.304C78.4106 20.3307 77.7812 21.7067 77.9092 22.432C78.0159 22.9227 78.2506 23.168 78.6133 23.168C79.7226 23.168 81.7493 21.3333 84.6933 17.664C84.7573 17.5787 84.8212 17.536 84.8852 17.536C84.9919 17.536 85.0452 17.6107 85.0452 17.76C85.0452 17.9307 84.9492 18.144 84.7572 18.4C82.0479 22.048 79.9679 23.872 78.5173 23.872C78.3252 23.872 78.1439 23.84 77.9733 23.776C77.0346 23.4133 76.5652 22.7093 76.5652 21.664C76.5652 21.3013 76.6079 20.9387 76.6932 20.576L74.7093 22.496C74.1119 23.0933 73.5679 23.52 73.0772 23.776C72.6079 24.032 72.2239 24.16 71.9252 24.16ZM71.6372 23.456C72.8746 23.456 74.5599 22.1013 76.6932 19.392L80.0853 14.72C79.9146 14.4213 79.6373 14.272 79.2533 14.272C77.9519 14.272 76.1919 15.3173 73.9733 17.408C71.6693 19.5413 70.6346 21.3013 70.8692 22.688C70.9759 23.2 71.2319 23.456 71.6372 23.456Z" stroke="black" stroke-width="2" mask="url(#path-1-outside-1_1_6)"/>
<path d="M96.6328 25.856C93.0701 26.0267 90.5101 25.1413 88.9528 23.2C87.0754 24.6507 85.6994 25.376 84.8247 25.376C84.3554 25.376 84.0034 25.1413 83.7687 24.672C83.5554 24.224 83.4487 23.7333 83.4487 23.2C83.4487 22.176 83.8434 20.704 84.6328 18.784C85.5714 16.608 86.4354 15.52 87.2247 15.52C87.6301 15.52 87.9394 16.16 88.1527 17.44C88.5154 19.36 88.8461 20.6827 89.1447 21.408C89.8487 20.6613 90.7234 19.648 91.7687 18.368C92.8354 17.088 94.0621 15.5413 95.4487 13.728C98.9047 9.184 101.198 6.69867 102.329 6.272C102.713 6.12267 103.097 6.048 103.481 6.048C103.907 6.048 104.249 6.144 104.505 6.336C104.782 6.50667 104.921 6.70933 104.921 6.944C104.921 7.30667 104.611 7.52 103.993 7.584C103.545 7.81867 102.99 8.224 102.329 8.8C101.689 9.376 101.006 10.0373 100.281 10.784C99.5767 11.5093 98.9154 12.2347 98.2968 12.96C97.6781 13.664 97.1767 14.272 96.7927 14.784C94.5101 17.9627 92.2274 20.5013 89.9447 22.4L89.7527 22.56C90.4354 23.5627 91.2568 24.256 92.2168 24.64C93.1768 25.024 94.2434 25.216 95.4167 25.216C97.3581 25.216 99.2034 24.9173 100.953 24.32C102.723 23.744 104.313 22.88 105.721 21.728C107.15 20.5547 108.323 19.1253 109.241 17.44C110.243 15.6053 110.745 13.856 110.745 12.192C110.745 11.0613 110.499 9.99467 110.009 8.992C109.518 7.968 108.857 7.09333 108.025 6.368C107.214 5.64267 106.307 5.17333 105.305 4.96C104.131 4.704 102.905 4.576 101.625 4.576C98.3394 4.576 95.3101 5.33333 92.5368 6.848C89.6141 8.448 88.1527 10.24 88.1527 12.224C88.1527 12.7573 88.3128 13.216 88.6328 13.6C88.8888 13.8987 89.0701 14.0693 89.1768 14.112H88.9847C88.3874 14.0053 87.8754 13.7067 87.4487 13.216C87.0221 12.7253 86.8087 12.1813 86.8087 11.584C86.8087 10.4747 87.1501 9.46133 87.8327 8.544C88.5367 7.60533 89.5501 6.752 90.8727 5.984C93.5181 4.46933 96.6434 3.712 100.249 3.712C101.059 3.712 101.87 3.75467 102.681 3.84C103.491 3.92533 104.291 4.05333 105.081 4.224C106.467 4.52267 107.726 5.088 108.857 5.92C109.987 6.752 110.894 7.76533 111.577 8.96C112.259 10.1547 112.601 11.4453 112.601 12.832C112.601 14.432 112.131 16.0853 111.193 17.792C110.254 19.52 109.038 20.9707 107.545 22.144C106.073 23.296 104.409 24.1707 102.553 24.768C100.697 25.3867 98.7234 25.7493 96.6328 25.856ZM84.9847 24.8C85.9021 24.3947 87.0114 23.552 88.3128 22.272C87.6941 21.248 87.2887 20.384 87.0967 19.68C86.9687 19.2107 86.8727 18.496 86.8087 17.536C85.3367 19.648 84.6007 21.4933 84.6007 23.072C84.6007 23.7333 84.7287 24.3093 84.9847 24.8Z" stroke="black" stroke-width="2" mask="url(#path-1-outside-1_1_6)"/>
<path d="M111.574 24.16C110.955 24.16 110.646 23.9787 110.646 23.616C110.646 23.4027 110.773 23.0613 111.029 22.592C112.011 20.8427 112.885 19.296 113.653 17.952C114.443 16.5867 115.136 15.4347 115.733 14.496C118.272 10.4213 120.064 8.21333 121.109 7.872C121.152 7.872 121.184 7.872 121.205 7.872C121.227 7.85067 121.248 7.84 121.27 7.84C121.547 7.84 121.728 8.064 121.813 8.512C121.749 8.96 120.64 10.5813 118.485 13.376C117.355 14.8053 116.469 15.9893 115.829 16.928C115.211 17.8453 114.827 18.5173 114.677 18.944C115.381 18.432 116.139 17.888 116.95 17.312C117.76 16.736 118.549 16.192 119.317 15.68C120.085 15.1467 120.779 14.72 121.397 14.4C122.016 14.0587 122.496 13.8667 122.838 13.824C122.88 13.824 122.933 13.824 122.997 13.824C123.061 13.8027 123.104 13.792 123.125 13.792C123.723 13.792 124.021 14.0693 124.021 14.624C124.021 14.7733 123.829 15.104 123.445 15.616C123.061 16.128 122.475 16.9173 121.686 17.984C120.278 19.8613 119.574 21.2693 119.574 22.208C119.574 22.6987 119.755 22.944 120.118 22.944C120.502 22.9227 120.939 22.752 121.429 22.432C121.941 22.112 122.453 21.7173 122.965 21.248C123.477 20.7787 123.936 20.32 124.341 19.872C124.768 19.4027 125.088 19.04 125.301 18.784C125.493 18.592 125.643 18.496 125.749 18.496C125.835 18.496 125.878 18.5387 125.878 18.624C125.878 18.7947 125.792 18.9973 125.621 19.232C125.365 19.552 124.981 19.968 124.469 20.48C123.979 20.992 123.435 21.5147 122.838 22.048C122.262 22.56 121.707 22.9973 121.174 23.36C120.662 23.7013 120.277 23.872 120.021 23.872C118.763 23.872 118.133 23.136 118.133 21.664C118.133 20.832 118.517 19.744 119.285 18.4C119.584 17.888 119.894 17.376 120.214 16.864C120.534 16.352 120.854 15.84 121.174 15.328C118.443 16.6933 115.968 18.7093 113.749 21.376C113.472 21.76 113.184 22.176 112.885 22.624C112.587 23.0507 112.32 23.4133 112.085 23.712C111.851 24.0107 111.68 24.16 111.574 24.16Z" stroke="black" stroke-width="2" mask="url(#path-1-outside-1_1_6)"/>
<path d="M126.613 24.16C126.101 24.16 125.589 23.9787 125.077 23.616C124.565 23.2533 124.277 22.8267 124.213 22.336C123.999 20.6933 125.034 18.7413 127.317 16.48C129.578 14.2187 131.615 13.088 133.429 13.088C133.919 13.088 134.303 13.2053 134.581 13.44C134.73 13.5893 134.837 13.792 134.901 14.048C134.986 14.304 135.05 14.432 135.093 14.432C135.178 14.432 135.253 14.4213 135.317 14.4C135.381 14.3573 135.455 14.336 135.541 14.336C135.797 14.336 136.021 14.432 136.213 14.624C136.405 14.816 136.511 14.9867 136.533 15.136C136.554 15.1787 135.871 16.2347 134.485 18.304C133.098 20.3307 132.469 21.7067 132.597 22.432C132.703 22.9227 132.938 23.168 133.301 23.168C134.41 23.168 136.437 21.3333 139.381 17.664C139.445 17.5787 139.509 17.536 139.573 17.536C139.679 17.536 139.733 17.6107 139.733 17.76C139.733 17.9307 139.637 18.144 139.445 18.4C136.735 22.048 134.655 23.872 133.205 23.872C133.013 23.872 132.831 23.84 132.661 23.776C131.722 23.4133 131.253 22.7093 131.253 21.664C131.253 21.3013 131.295 20.9387 131.381 20.576L129.397 22.496C128.799 23.0933 128.255 23.52 127.765 23.776C127.295 24.032 126.911 24.16 126.613 24.16ZM126.325 23.456C127.562 23.456 129.247 22.1013 131.381 19.392L134.773 14.72C134.602 14.4213 134.325 14.272 133.941 14.272C132.639 14.272 130.879 15.3173 128.661 17.408C126.357 19.5413 125.322 21.3013 125.557 22.688C125.663 23.2 125.919 23.456 126.325 23.456Z" stroke="black" stroke-width="2" mask="url(#path-1-outside-1_1_6)"/>
<path d="M144.184 24.16C143.267 24.16 142.638 23.9253 142.296 23.456C141.955 22.9653 141.784 22.3147 141.784 21.504C141.784 20.608 142.062 19.5413 142.616 18.304C142.83 17.8133 143.054 17.376 143.288 16.992C143.523 16.5867 143.768 16.2133 144.024 15.872C143.939 15.8933 143.864 15.904 143.8 15.904C143.736 15.904 143.672 15.904 143.608 15.904C143.096 15.904 142.67 15.5413 142.328 14.816L139.96 17.888C138.702 19.5307 137.934 20.352 137.656 20.352C137.55 20.352 137.496 20.3093 137.496 20.224C137.496 20.1173 137.55 19.9787 137.656 19.808C137.72 19.68 137.848 19.5093 138.04 19.296C138.851 18.3573 139.598 17.4293 140.28 16.512C140.963 15.5947 141.528 14.6987 141.976 13.824C142.467 11.968 143.086 11.04 143.832 11.04C144.323 11.04 144.568 11.264 144.568 11.712C144.568 12.1173 144.302 12.6507 143.768 13.312C143.256 13.9733 143 14.3147 143 14.336C143 14.784 143.331 15.008 143.992 15.008C144.376 15.008 144.803 14.8693 145.272 14.592L146.104 14.08C146.147 14.0587 146.211 14.048 146.296 14.048C146.552 14.048 146.776 14.1547 146.968 14.368C147.16 14.5813 147.224 14.7733 147.16 14.944L144.952 17.728C143.587 19.4773 142.904 20.8853 142.904 21.952C142.904 22.912 143.374 23.392 144.312 23.392C144.952 23.392 145.635 23.2 146.36 22.816C147.107 22.432 147.822 21.9627 148.504 21.408C149.208 20.832 149.795 20.2773 150.264 19.744L151.032 18.848C151.075 18.8053 151.128 18.752 151.192 18.688C151.256 18.624 151.31 18.592 151.352 18.592C151.502 18.592 151.576 18.6667 151.576 18.816C151.576 18.8587 151.555 18.9333 151.512 19.04C151.47 19.1467 151.395 19.264 151.288 19.392L150.264 20.544C149.774 21.0987 149.166 21.664 148.44 22.24C147.736 22.7947 147 23.2533 146.232 23.616C145.486 23.9787 144.803 24.16 144.184 24.16Z" stroke="black" stroke-width="2" mask="url(#path-1-outside-1_1_6)"/>
<path d="M152.394 24.16C151.882 24.16 151.37 23.9787 150.858 23.616C150.346 23.2533 150.058 22.8267 149.994 22.336C149.781 20.6933 150.815 18.7413 153.098 16.48C155.359 14.2187 157.397 13.088 159.21 13.088C159.701 13.088 160.085 13.2053 160.362 13.44C160.511 13.5893 160.618 13.792 160.682 14.048C160.767 14.304 160.831 14.432 160.874 14.432C160.959 14.432 161.034 14.4213 161.098 14.4C161.162 14.3573 161.237 14.336 161.322 14.336C161.578 14.336 161.802 14.432 161.994 14.624C162.186 14.816 162.293 14.9867 162.314 15.136C162.335 15.1787 161.653 16.2347 160.266 18.304C158.879 20.3307 158.25 21.7067 158.378 22.432C158.485 22.9227 158.719 23.168 159.082 23.168C160.191 23.168 162.218 21.3333 165.162 17.664C165.226 17.5787 165.29 17.536 165.354 17.536C165.461 17.536 165.514 17.6107 165.514 17.76C165.514 17.9307 165.418 18.144 165.226 18.4C162.517 22.048 160.437 23.872 158.986 23.872C158.794 23.872 158.613 23.84 158.442 23.776C157.503 23.4133 157.034 22.7093 157.034 21.664C157.034 21.3013 157.077 20.9387 157.162 20.576L155.178 22.496C154.581 23.0933 154.037 23.52 153.546 23.776C153.077 24.032 152.693 24.16 152.394 24.16ZM152.106 23.456C153.343 23.456 155.029 22.1013 157.162 19.392L160.554 14.72C160.383 14.4213 160.106 14.272 159.722 14.272C158.421 14.272 156.661 15.3173 154.442 17.408C152.138 19.5413 151.103 21.3013 151.338 22.688C151.445 23.2 151.701 23.456 152.106 23.456Z" stroke="black" stroke-width="2" mask="url(#path-1-outside-1_1_6)"/>
<path d="M171.598 24.064C171.022 24.064 170.616 23.904 170.382 23.584C170.147 23.2427 170.029 22.8267 170.029 22.336C170.029 21.0987 170.456 19.776 171.309 18.368L173.357 15.04C171.907 16.1067 170.467 17.44 169.038 19.04C168.654 19.4667 168.216 19.968 167.725 20.544C167.256 21.12 166.734 21.7813 166.158 22.528C165.39 23.5307 164.931 24.032 164.781 24.032C164.483 24.032 164.238 23.904 164.046 23.648C163.854 23.3707 163.757 23.1253 163.757 22.912C163.757 22.7413 163.811 22.432 163.917 21.984C164.024 21.5147 164.152 21.1093 164.301 20.768C164.451 20.4053 164.6 20.0533 164.749 19.712C164.92 19.3493 165.08 18.9973 165.229 18.656L163.309 20.672C163.267 20.7147 163.139 20.8427 162.925 21.056C162.712 21.2693 162.541 21.376 162.413 21.376C162.307 21.376 162.253 21.3013 162.253 21.152C162.253 21.1093 162.275 21.056 162.318 20.992C162.339 20.9067 162.403 20.8107 162.509 20.704C162.829 20.384 163.16 20.0427 163.501 19.68C163.843 19.3173 164.195 18.9013 164.557 18.432C164.749 18.1973 165.037 17.8453 165.421 17.376C165.805 16.8853 166.221 16.3627 166.669 15.808C167.139 15.2533 167.576 14.7413 167.981 14.272C168.088 14.1227 168.205 14.0267 168.333 13.984C168.461 13.92 168.547 13.888 168.589 13.888C169.165 13.888 169.453 14.112 169.453 14.56C169.453 14.688 169.421 14.816 169.357 14.944C167.437 17.5893 166.286 19.6053 165.902 20.992C168.376 18.5173 170.36 16.6613 171.854 15.424C173.368 14.1653 174.445 13.536 175.085 13.536C175.427 13.536 175.683 13.5893 175.854 13.696C176.046 13.8027 176.141 14.0053 176.141 14.304C176.141 14.4107 176.131 14.496 176.109 14.56C176.045 14.7093 175.608 15.3067 174.798 16.352C174.307 16.9493 173.87 17.4933 173.486 17.984C173.123 18.4747 172.824 18.9013 172.589 19.264C172.205 19.8613 171.917 20.4267 171.725 20.96C171.533 21.472 171.438 21.9093 171.438 22.272C171.438 22.4213 171.459 22.6027 171.501 22.816C171.544 23.0293 171.672 23.136 171.885 23.136C172.376 23.136 173.144 22.7093 174.189 21.856C174.68 21.4293 175.139 21.0027 175.566 20.576C175.992 20.128 176.397 19.6907 176.781 19.264C176.867 19.1787 177.005 19.0187 177.197 18.784C177.389 18.528 177.507 18.4 177.549 18.4C177.635 18.4 177.678 18.4853 177.678 18.656C177.678 18.7413 177.624 18.8907 177.518 19.104C177.432 19.296 177.336 19.4453 177.229 19.552C176.995 19.8293 176.643 20.2133 176.173 20.704C175.725 21.1947 175.213 21.696 174.637 22.208C174.083 22.72 173.539 23.1573 173.005 23.52C172.472 23.8827 172.003 24.064 171.598 24.064Z" stroke="black" stroke-width="2" mask="url(#path-1-outside-1_1_6)"/>
</svg>
